<?xml version="1.0" encoding="UTF-8" standalone="no"?>
<svg
   xmlns:dc="http://purl.org/dc/elements/1.1/"
   xmlns:cc="http://creativecommons.org/ns#"
   xmlns:rdf="http://www.w3.org/1999/02/22-rdf-syntax-ns#"
   xmlns:svg="http://www.w3.org/2000/svg"
   xmlns="http://www.w3.org/2000/svg"
   viewBox="0 0 614.40002 460.79999"
   height="460.79999"
   width="614.40002"
   xml:space="preserve"
   id="svg2"
   version="1.1"><metadata
     id="metadata8"><rdf:RDF><cc:Work
         rdf:about=""><dc:format>image/svg+xml</dc:format><dc:type
           rdf:resource="http://purl.org/dc/dcmitype/StillImage" /></cc:Work></rdf:RDF></metadata><defs
     id="defs6"><clipPath
       id="clipPath22"
       clipPathUnits="userSpaceOnUse"><path
         id="path20"
         d="m 59.04,48.06 h 388.8 V 332.64 H 59.04 Z" /></clipPath><clipPath
       id="clipPath40"
       clipPathUnits="userSpaceOnUse"><path
         id="path38"
         d="m 59.04,48.06 h 388.8 V 332.64 H 59.04 Z" /></clipPath><clipPath
       id="clipPath58"
       clipPathUnits="userSpaceOnUse"><path
         id="path56"
         d="m 59.04,48.06 h 388.8 V 332.64 H 59.04 Z" /></clipPath><clipPath
       id="clipPath76"
       clipPathUnits="userSpaceOnUse"><path
         id="path74"
         d="m 59.04,48.06 h 388.8 V 332.64 H 59.04 Z" /></clipPath><clipPath
       id="clipPath94"
       clipPathUnits="userSpaceOnUse"><path
         id="path92"
         d="m 59.04,48.06 h 388.8 V 332.64 H 59.04 Z" /></clipPath><clipPath
       id="clipPath118"
       clipPathUnits="userSpaceOnUse"><path
         id="path116"
         d="m 59.04,48.06 h 388.8 V 332.64 H 59.04 Z" /></clipPath><clipPath
       id="clipPath136"
       clipPathUnits="userSpaceOnUse"><path
         id="path134"
         d="m 59.04,48.06 h 388.8 V 332.64 H 59.04 Z" /></clipPath><clipPath
       id="clipPath154"
       clipPathUnits="userSpaceOnUse"><path
         id="path152"
         d="m 59.04,48.06 h 388.8 V 332.64 H 59.04 Z" /></clipPath><clipPath
       id="clipPath172"
       clipPathUnits="userSpaceOnUse"><path
         id="path170"
         d="m 59.04,48.06 h 388.8 V 332.64 H 59.04 Z" /></clipPath><clipPath
       id="clipPath190"
       clipPathUnits="userSpaceOnUse"><path
         id="path188"
         d="m 59.04,48.06 h 388.8 V 332.64 H 59.04 Z" /></clipPath><clipPath
       id="clipPath208"
       clipPathUnits="userSpaceOnUse"><path
         id="path206"
         d="m 59.04,48.06 h 388.8 V 332.64 H 59.04 Z" /></clipPath><clipPath
       id="clipPath226"
       clipPathUnits="userSpaceOnUse"><path
         id="path224"
         d="m 59.04,48.06 h 388.8 V 332.64 H 59.04 Z" /></clipPath><clipPath
       id="clipPath244"
       clipPathUnits="userSpaceOnUse"><path
         id="path242"
         d="m 59.04,48.06 h 388.8 V 332.64 H 59.04 Z" /></clipPath><clipPath
       id="clipPath268"
       clipPathUnits="userSpaceOnUse"><path
         id="path266"
         d="m 59.04,48.06 h 388.8 V 332.64 H 59.04 Z" /></clipPath><clipPath
       id="clipPath278"
       clipPathUnits="userSpaceOnUse"><path
         id="path276"
         d="m 59.04,48.06 h 388.8 V 332.64 H 59.04 Z" /></clipPath></defs><g
     transform="matrix(1.3333333,0,0,-1.3333333,0,460.8)"
     id="g10"><path
       id="path12"
       style="fill:#ffffff;fill-opacity:1;fill-rule:nonzero;stroke:none"
       d="M 0,0 H 460.8 V 345.6 H 0 Z" /><path
       id="path14"
       style="fill:#eaeaf2;fill-opacity:1;fill-rule:nonzero;stroke:none"
       d="m 59.04,48.06 h 388.8 V 332.64 H 59.04 Z" /><g
       id="g16"><g
         clip-path="url(#clipPath22)"
         id="g18"><path
           id="path24"
           style="fill:none;stroke:#ffffff;stroke-width:1;stroke-linecap:round;stroke-linejoin:round;stroke-miterlimit:10;stroke-dasharray:none;stroke-opacity:1"
           d="M 75.86916,48.06 V 332.64" /></g></g><g
       id="g26"><g
         transform="translate(72.80666,30.685)"
         id="g28"><text
           id="text32"
           style="font-variant:normal;font-weight:normal;font-size:11px;font-family:ArialMT;-inkscape-font-specification:ArialMT;writing-mode:lr-tb;fill:#262626;fill-opacity:1;fill-rule:nonzero;stroke:none"
           transform="scale(1,-1)"><tspan
             id="tspan30"
             y="0"
             x="0">0</tspan></text>
</g></g><g
       id="g34"><g
         clip-path="url(#clipPath40)"
         id="g36"><path
           id="path42"
           style="fill:none;stroke:#ffffff;stroke-width:1;stroke-linecap:round;stroke-linejoin:round;stroke-miterlimit:10;stroke-dasharray:none;stroke-opacity:1"
           d="M 160.22585,48.06 V 332.64" /></g></g><g
       id="g44"><g
         transform="translate(147.97585,30.685)"
         id="g46"><text
           id="text50"
           style="font-variant:normal;font-weight:normal;font-size:11px;font-family:ArialMT;-inkscape-font-specification:ArialMT;writing-mode:lr-tb;fill:#262626;fill-opacity:1;fill-rule:nonzero;stroke:none"
           transform="scale(1,-1)"><tspan
             id="tspan48"
             y="0"
             x="0 6.1160002 12.232 18.348">5000</tspan></text>
</g></g><g
       id="g52"><g
         clip-path="url(#clipPath58)"
         id="g54"><path
           id="path60"
           style="fill:none;stroke:#ffffff;stroke-width:1;stroke-linecap:round;stroke-linejoin:round;stroke-miterlimit:10;stroke-dasharray:none;stroke-opacity:1"
           d="M 244.58255,48.06 V 332.64" /></g></g><g
       id="g62"><g
         transform="translate(229.27005,30.685)"
         id="g64"><text
           id="text68"
           style="font-variant:normal;font-weight:normal;font-size:11px;font-family:ArialMT;-inkscape-font-specification:ArialMT;writing-mode:lr-tb;fill:#262626;fill-opacity:1;fill-rule:nonzero;stroke:none"
           transform="scale(1,-1)"><tspan
             id="tspan66"
             y="0"
             x="0 6.1160002 12.232 18.348 24.464001">10000</tspan></text>
</g></g><g
       id="g70"><g
         clip-path="url(#clipPath76)"
         id="g72"><path
           id="path78"
           style="fill:none;stroke:#ffffff;stroke-width:1;stroke-linecap:round;stroke-linejoin:round;stroke-miterlimit:10;stroke-dasharray:none;stroke-opacity:1"
           d="M 328.93924,48.06 V 332.64" /></g></g><g
       id="g80"><g
         transform="translate(313.62674,30.685)"
         id="g82"><text
           id="text86"
           style="font-variant:normal;font-weight:normal;font-size:11px;font-family:ArialMT;-inkscape-font-specification:ArialMT;writing-mode:lr-tb;fill:#262626;fill-opacity:1;fill-rule:nonzero;stroke:none"
           transform="scale(1,-1)"><tspan
             id="tspan84"
             y="0"
             x="0 6.1160002 12.232 18.348 24.464001">15000</tspan></text>
</g></g><g
       id="g88"><g
         clip-path="url(#clipPath94)"
         id="g90"><path
           id="path96"
           style="fill:none;stroke:#ffffff;stroke-width:1;stroke-linecap:round;stroke-linejoin:round;stroke-miterlimit:10;stroke-dasharray:none;stroke-opacity:1"
           d="M 413.29593,48.06 V 332.64" /></g></g><g
       id="g98"><g
         transform="translate(397.98343,30.685)"
         id="g100"><text
           id="text104"
           style="font-variant:normal;font-weight:normal;font-size:11px;font-family:ArialMT;-inkscape-font-specification:ArialMT;writing-mode:lr-tb;fill:#262626;fill-opacity:1;fill-rule:nonzero;stroke:none"
           transform="scale(1,-1)"><tspan
             id="tspan102"
             y="0"
             x="0 6.1160002 12.232 18.348 24.464001">20000</tspan></text>
</g><g
         transform="translate(231.76812,15.90375)"
         id="g106"><text
           id="text110"
           style="font-variant:normal;font-weight:normal;font-size:12px;font-family:ArialMT;-inkscape-font-specification:ArialMT;writing-mode:lr-tb;fill:#262626;fill-opacity:1;fill-rule:nonzero;stroke:none"
           transform="scale(1,-1)"><tspan
             id="tspan108"
             y="0"
             x="0 3.336 6.6719999 13.344 17.34 24.011999 27.348 30.011999 36.683998">Iteration</tspan></text>
</g></g><g
       id="g112"><g
         clip-path="url(#clipPath118)"
         id="g114"><path
           id="path120"
           style="fill:none;stroke:#ffffff;stroke-width:1;stroke-linecap:round;stroke-linejoin:round;stroke-miterlimit:10;stroke-dasharray:none;stroke-opacity:1"
           d="m 59.04,48.06 h 388.8" /></g></g><g
       id="g122"><g
         transform="translate(34.2275,44.1225)"
         id="g124"><text
           id="text128"
           style="font-variant:normal;font-weight:normal;font-size:11px;font-family:ArialMT;-inkscape-font-specification:ArialMT;writing-mode:lr-tb;fill:#262626;fill-opacity:1;fill-rule:nonzero;stroke:none"
           transform="scale(1,-1)"><tspan
             id="tspan126"
             y="0"
             x="0 6.1160002 9.1739998">0.0</tspan></text>
</g></g><g
       id="g130"><g
         clip-path="url(#clipPath136)"
         id="g132"><path
           id="path138"
           style="fill:none;stroke:#ffffff;stroke-width:1;stroke-linecap:round;stroke-linejoin:round;stroke-miterlimit:10;stroke-dasharray:none;stroke-opacity:1"
           d="m 59.04,85.504737 h 388.8" /></g></g><g
       id="g140"><g
         transform="translate(34.2275,81.567237)"
         id="g142"><text
           id="text146"
           style="font-variant:normal;font-weight:normal;font-size:11px;font-family:ArialMT;-inkscape-font-specification:ArialMT;writing-mode:lr-tb;fill:#262626;fill-opacity:1;fill-rule:nonzero;stroke:none"
           transform="scale(1,-1)"><tspan
             id="tspan144"
             y="0"
             x="0 6.1160002 9.1739998">2.5</tspan></text>
</g></g><g
       id="g148"><g
         clip-path="url(#clipPath154)"
         id="g150"><path
           id="path156"
           style="fill:none;stroke:#ffffff;stroke-width:1;stroke-linecap:round;stroke-linejoin:round;stroke-miterlimit:10;stroke-dasharray:none;stroke-opacity:1"
           d="m 59.04,122.94947 h 388.8" /></g></g><g
       id="g158"><g
         transform="translate(34.2275,119.01197)"
         id="g160"><text
           id="text164"
           style="font-variant:normal;font-weight:normal;font-size:11px;font-family:ArialMT;-inkscape-font-specification:ArialMT;writing-mode:lr-tb;fill:#262626;fill-opacity:1;fill-rule:nonzero;stroke:none"
           transform="scale(1,-1)"><tspan
             id="tspan162"
             y="0"
             x="0 6.1160002 9.1739998">5.0</tspan></text>
</g></g><g
       id="g166"><g
         clip-path="url(#clipPath172)"
         id="g168"><path
           id="path174"
           style="fill:none;stroke:#ffffff;stroke-width:1;stroke-linecap:round;stroke-linejoin:round;stroke-miterlimit:10;stroke-dasharray:none;stroke-opacity:1"
           d="m 59.04,160.39421 h 388.8" /></g></g><g
       id="g176"><g
         transform="translate(34.2275,156.45671)"
         id="g178"><text
           id="text182"
           style="font-variant:normal;font-weight:normal;font-size:11px;font-family:ArialMT;-inkscape-font-specification:ArialMT;writing-mode:lr-tb;fill:#262626;fill-opacity:1;fill-rule:nonzero;stroke:none"
           transform="scale(1,-1)"><tspan
             id="tspan180"
             y="0"
             x="0 6.1160002 9.1739998">7.5</tspan></text>
</g></g><g
       id="g184"><g
         clip-path="url(#clipPath190)"
         id="g186"><path
           id="path192"
           style="fill:none;stroke:#ffffff;stroke-width:1;stroke-linecap:round;stroke-linejoin:round;stroke-miterlimit:10;stroke-dasharray:none;stroke-opacity:1"
           d="m 59.04,197.83895 h 388.8" /></g></g><g
       id="g194"><g
         transform="translate(28.1025,193.90145)"
         id="g196"><text
           id="text200"
           style="font-variant:normal;font-weight:normal;font-size:11px;font-family:ArialMT;-inkscape-font-specification:ArialMT;writing-mode:lr-tb;fill:#262626;fill-opacity:1;fill-rule:nonzero;stroke:none"
           transform="scale(1,-1)"><tspan
             id="tspan198"
             y="0"
             x="0 6.1160002 12.232 15.29">10.0</tspan></text>
</g></g><g
       id="g202"><g
         clip-path="url(#clipPath208)"
         id="g204"><path
           id="path210"
           style="fill:none;stroke:#ffffff;stroke-width:1;stroke-linecap:round;stroke-linejoin:round;stroke-miterlimit:10;stroke-dasharray:none;stroke-opacity:1"
           d="m 59.04,235.28368 h 388.8" /></g></g><g
       id="g212"><g
         transform="translate(28.1025,231.34618)"
         id="g214"><text
           id="text218"
           style="font-variant:normal;font-weight:normal;font-size:11px;font-family:ArialMT;-inkscape-font-specification:ArialMT;writing-mode:lr-tb;fill:#262626;fill-opacity:1;fill-rule:nonzero;stroke:none"
           transform="scale(1,-1)"><tspan
             id="tspan216"
             y="0"
             x="0 6.1160002 12.232 15.29">12.5</tspan></text>
</g></g><g
       id="g220"><g
         clip-path="url(#clipPath226)"
         id="g222"><path
           id="path228"
           style="fill:none;stroke:#ffffff;stroke-width:1;stroke-linecap:round;stroke-linejoin:round;stroke-miterlimit:10;stroke-dasharray:none;stroke-opacity:1"
           d="m 59.04,272.72842 h 388.8" /></g></g><g
       id="g230"><g
         transform="translate(28.1025,268.79092)"
         id="g232"><text
           id="text236"
           style="font-variant:normal;font-weight:normal;font-size:11px;font-family:ArialMT;-inkscape-font-specification:ArialMT;writing-mode:lr-tb;fill:#262626;fill-opacity:1;fill-rule:nonzero;stroke:none"
           transform="scale(1,-1)"><tspan
             id="tspan234"
             y="0"
             x="0 6.1160002 12.232 15.29">15.0</tspan></text>
</g></g><g
       id="g238"><g
         clip-path="url(#clipPath244)"
         id="g240"><path
           id="path246"
           style="fill:none;stroke:#ffffff;stroke-width:1;stroke-linecap:round;stroke-linejoin:round;stroke-miterlimit:10;stroke-dasharray:none;stroke-opacity:1"
           d="m 59.04,310.17316 h 388.8" /></g></g><g
       id="g248"><g
         transform="translate(28.1025,306.23566)"
         id="g250"><text
           id="text254"
           style="font-variant:normal;font-weight:normal;font-size:11px;font-family:ArialMT;-inkscape-font-specification:ArialMT;writing-mode:lr-tb;fill:#262626;fill-opacity:1;fill-rule:nonzero;stroke:none"
           transform="scale(1,-1)"><tspan
             id="tspan252"
             y="0"
             x="0 6.1160002 12.232 15.29">17.5</tspan></text>
</g><g
         transform="rotate(90,-77.983125,99.695)"
         id="g256"><text
           id="text260"
           style="font-variant:normal;font-weight:normal;font-size:12px;font-family:ArialMT;-inkscape-font-specification:ArialMT;writing-mode:lr-tb;fill:#262626;fill-opacity:1;fill-rule:nonzero;stroke:none"
           transform="scale(1,-1)"><tspan
             id="tspan258"
             y="0"
             x="0 6.6719999 13.344 19.344">Loss</tspan></text>
</g></g><g
       id="g262"><g
         clip-path="url(#clipPath268)"
         id="g264"><path
           id="path270"
           style="fill:#4c72b0;fill-opacity:0.2;fill-rule:nonzero;stroke:#4c72b0;stroke-width:1;stroke-linecap:butt;stroke-linejoin:round;stroke-miterlimit:10;stroke-dasharray:none;stroke-opacity:0.2"
           d="m 76.712727,273.12754 v -30.2987 l 0.843567,-36.81446 0.843567,2.90614 0.843567,5.2482 0.843567,-14.4284 0.843567,6.22191 0.843567,-18.69181 0.843567,14.85672 0.843567,-18.7885 0.843567,-3.68904 0.843567,5.45096 0.843567,5.84929 0.843566,-6.64426 0.843567,-4.80574 0.843567,10.12235 0.843567,3.90376 0.843567,-23.3614 0.843567,15.04668 0.843567,5.13368 0.843567,-19.75361 0.843567,8.59947 0.843567,-5.01358 0.843567,12.07292 0.843567,-21.93414 0.843567,11.45418 0.843567,10.07453 0.843567,-9.64699 0.843566,-13.44497 0.843566,2.12713 0.84357,1.84196 0.84356,2.94625 0.84357,-8.03206 0.84357,-0.81337 0.84357,5.60575 0.84356,-22.78951 0.84357,9.05076 0.84357,-6.18189 0.84356,17.25158 0.84357,-12.98911 0.84357,-5.79793 0.84357,1.50175 0.84356,1.17864 0.84357,7.76337 0.84357,-9.61212 0.84356,-9.98015 0.84357,2.10289 0.84357,11.48638 0.84356,-16.74721 0.84357,14.15859 0.84357,-19.36787 0.84356,-3.04341 0.84357,7.19574 0.84357,-9.05832 0.84356,10.09315 0.84357,-0.93566 0.84357,-3.24575 0.84357,1.00223 0.84356,-13.77542 0.84357,-7.59274 0.84357,0.80918 0.84356,10.07615 0.84357,-0.15701 0.84357,-4.75257 0.84356,0.10338 0.84357,-1.22212 0.84357,-5.10144 0.84357,3.11805 0.84356,-11.296695 0.84357,-0.644708 0.84357,-3.177679 0.84356,9.610952 0.84357,4.62058 0.84357,-13.593255 0.84356,9.297085 0.84357,6.02437 0.84357,-11.41035 0.84356,3.25553 0.84357,-6.185676 0.84357,-5.407845 0.84356,0.559261 0.84357,12.18133 0.84357,-10.818032 0.84357,-1.068374 0.84356,2.340931 0.84357,-3.871151 0.84357,-2.007583 0.84356,-6.047077 0.84357,5.855064 0.84357,-2.463486 0.84356,-1.848689 0.84357,6.525597 0.84357,-9.366158 0.84356,3.988385 0.84357,-1.430786 0.84357,4.562307 0.84357,-6.004059 0.84356,-1.359648 0.84357,1.077321 0.84357,-6.122608 0.84356,5.056316 0.84357,-3.247613 0.84357,2.584377 0.84356,-0.506677 0.84357,3.619825 0.84357,-0.05932 0.84356,-9.3953 0.84357,3.730855 0.84357,-7.005289 0.84357,3.288349 0.84356,-0.600686 0.84357,1.229355 0.84357,0.277 0.84356,-2.445214 0.84357,1.032462 0.84357,3.231092 0.84356,-5.078909 0.84357,1.105213 0.84357,-0.65105 0.84357,-0.986476 0.84356,1.415079 0.84357,-1.93267 0.84357,0.273631 0.84356,1.321483 0.84357,-2.42774 0.84357,-0.785902 0.84356,-0.122247 0.84357,-3.01814 0.84357,5.228451 0.84356,-5.26292 0.84357,-0.102318 0.84357,1.401664 0.84357,0.989905 0.84356,-4.426972 0.84357,2.960943 0.84357,-3.934736 0.84356,-0.529504 0.84357,7.111426 0.84357,-4.925933 0.84356,2.036332 0.84357,-1.49938 0.84357,-1.620126 0.84356,-0.596991 0.84357,0.907145 0.84357,-4.063711 0.84357,3.399449 0.84356,-0.737478 0.84357,-0.974847 0.84357,0.789618 0.84356,-0.707054 0.84357,-1.047063 0.84357,0.116318 0.84356,-2.317591 0.84357,-1.650096 0.84357,4.603842 0.84356,-0.538053 0.84357,0.532957 0.84357,-0.426708 0.84357,-1.35044 0.84356,0.960953 0.84357,-1.515378 0.84357,2.367906 0.84356,3.486757 0.84357,-4.830307 0.84357,-1.835333 0.84356,4.892591 0.84357,-3.798414 0.84357,-0.619339 0.84357,-0.636363 0.84356,-1.80921 0.84357,2.14904 0.84357,-4.113959 0.84356,4.019922 0.84357,-2.168677 0.84357,3.669415 0.84356,-2.478526 0.84357,0.245751 0.84357,-1.419595 0.84356,-1.622106 0.84357,3.514723 0.84357,-4.716656 0.84356,4.900407 0.84357,-7.375785 0.84357,3.981078 0.84357,-1.023326 0.84356,2.170076 0.84357,-3.078153 0.84357,0.792253 0.84356,-3.687305 0.84357,7.048628 0.84357,-3.866192 0.84357,-1.22848 0.84356,3.638694 0.84357,2.477253 0.84357,-0.6656 0.84356,-2.586817 0.84357,-0.591216 0.84357,-1.187624 0.84356,1.658768 0.84357,-0.886902 0.84357,-0.142262 0.84356,-3.184073 0.84357,0.942528 0.84357,2.069148 0.84356,0.665387 0.84357,-1.473999 0.84357,0.247919 0.84357,0.699592 0.84356,-0.666061 0.84357,1.27566 0.84357,-4.172645 0.84356,1.226599 0.84357,-1.401027 0.84357,0.219891 0.84356,-0.98839 0.84357,2.641402 0.84357,-1.39891 0.84356,3.057416 0.84357,0.782712 0.84357,-1.563347 0.84357,-0.452556 0.84356,0.462541 0.84357,-1.346368 0.84357,1.370851 0.84356,0.199967 0.84357,-0.510769 0.84357,-2.036474 0.84356,0.459545 0.84357,-1.29803 0.84357,1.474397 0.84356,-1.68627 0.84357,-1.794937 0.84357,3.369595 0.84357,-2.57342 0.84356,0.372758 0.84357,-0.826549 0.84357,1.32717 0.84356,2.075287 0.84357,0.661545 0.84357,-2.073898 0.84356,-0.450487 0.84357,0.862775 0.84357,-0.262235 0.84357,1.062705 0.84356,1.548305 0.84357,-2.836871 0.84357,1.952598 0.84356,-2.108302 0.84357,-0.306458 0.84357,2.015398 0.84356,-1.010583 0.84357,-0.05159 0.84357,0.979085 0.84356,-1.728188 0.84357,1.572885 0.84357,-2.450095 0.84357,1.173888 0.84356,-1.78612 0.84357,0.695123 0.84357,-2.725589 0.84356,2.266879 0.84357,0.252605 0.84357,-3.696252 0.84356,3.677983 0.84357,2.330668 0.84357,-1.073401 0.84357,-1.576299 0.84356,-0.350591 0.84357,2.059368 0.84357,0.704097 0.84356,-1.341858 0.84357,-0.844693 0.84357,0.302017 0.84356,-2.178557 0.84357,-0.505252 0.84357,2.608837 0.84356,1.075942 0.84357,-3.816309 0.84357,3.426679 0.84356,-0.626174 0.84357,0.784571 0.84357,-0.34793 0.84357,-1.501766 0.84356,2.039358 0.84357,0.23201 0.84357,-1.798672 0.84356,-0.354379 0.84357,0.453983 0.84357,0.348984 0.84356,-2.590911 0.84357,3.958769 0.84357,-2.969953 0.84356,2.518319 0.84357,-2.417447 0.84357,2.396238 0.84357,-3.48638 0.84356,1.467483 0.84357,-0.07443 0.84357,2.267847 0.84356,-2.001424 0.84357,0.219793 0.84357,-5.275618 0.84356,6.208859 0.84357,0.06104 0.84357,0.501508 0.84357,-1.280645 0.84356,-1.461894 0.84357,-0.113665 0.84357,-1.430304 0.84356,3.281698 0.84357,0.750832 0.84357,-1.309787 0.84356,1.000727 0.84357,-2.095784 0.84357,2.835404 0.84356,-2.21659 0.84357,1.815261 0.84357,-5.375374 0.84356,3.373533 0.84357,-0.189981 0.84357,2.118277 0.84357,-1.846608 0.84356,0.87838 0.84357,0.917685 0.84357,-1.01603 0.84356,-0.426091 0.84357,-4.51319 0.84357,2.442152 0.84356,3.225449 0.84357,-2.208353 0.84357,2.317058 0.84357,-1.530859 0.84356,-1.249879 0.84357,1.087229 0.84357,-2.797397 0.84356,1.105888 0.84357,2.3621 0.84357,0.68099 0.84356,-0.936611 0.84357,-2.253256 0.84357,3.379619 0.84356,-5.160822 0.84357,2.940913 0.84357,-2.030895 0.84357,0.836373 0.84356,1.682278 0.84357,-1.942091 0.84357,3.929712 0.84356,-1.609002 0.84357,0.39038 0.84357,-1.282558 0.84356,1.505514 0.84357,1.090566 0.84357,-1.308968 0.84356,-0.149122 0.84357,0.426793 0.84357,0.166698 0.84357,-3.89852 0.84356,1.275016 0.84357,-1.007683 0.84357,2.181454 0.84356,0.140213 0.84357,1.586128 0.84357,-3.919261 0.84356,-1.356783 0.84357,3.130088 0.84357,0.230427 0.84356,-3.130179 0.84357,2.849946 0.84357,0.976512 0.84357,1.382557 0.84356,-3.01477 0.84357,-0.528941 0.84357,0.170583 0.84356,-0.860032 0.84357,2.771991 0.84357,0.918442 0.84356,-0.682536 0.84357,0.195457 0.84357,-0.608756 0.84356,0.747726 0.84357,-1.136455 0.84357,-1.156521 0.84357,0.606349 0.84356,1.113071 0.84357,-0.599953 0.84357,-2.540782 0.84356,4.495669 0.84357,-2.075866 0.84357,1.190853 0.84357,-4.10677 0.84356,-0.578095 0.84357,5.050946 0.84357,-1.454008 0.84356,1.275906 0.84357,-1.16332 0.84357,1.662725 0.84356,-1.342388 0.84357,1.576445 0.84357,-3.101728 0.84356,0.626127 0.84357,1.464379 0.84357,-0.791456 0.84356,-0.835166 0.84357,0.93789 0.84357,-0.112155 0.84357,1.597178 0.84356,-0.03489 0.84357,-1.833174 0.84357,-0.62773 0.84356,1.516503 0.84357,-0.856826 0.84357,0.175854 0.84356,1.452687 0.84357,-0.313408 0.84357,-1.032876 0.84356,-0.11034 0.84357,0.536177 0.84357,-1.115275 0.84357,1.300483 0.84356,-2.599493 v 14.920586 0 l -0.84356,-6.468523 -0.84357,2.261218 -0.84357,-2.894221 -0.84357,0.889533 -0.84356,-0.390002 -0.84357,-2.48487 -0.84357,1.162131 -0.84356,4.298951 -0.84357,1.252313 -0.84357,-4.442966 -0.84356,3.25257 -0.84357,0.477426 -0.84357,-3.021727 -0.84356,-0.398801 -0.84357,1.900321 -0.84357,-1.637739 -0.84357,1.697079 -0.84356,1.178784 -0.84357,-4.489948 -0.84357,2.394445 -0.84356,3.559757 -0.84357,-5.700439 -0.84357,4.578996 -0.84356,-4.456001 -0.84357,4.789319 -0.84357,-3.887076 -0.84356,2.926461 -0.84357,-4.247517 -0.84357,12.772266 -0.84356,-1.915836 -0.84357,-7.252083 -0.84357,6.499253 -0.84357,-10.377432 -0.84356,9.009147 -0.84357,-4.466668 -0.84357,0.772591 -0.84356,1.380407 -0.84357,2.568656 -0.84357,-6.871798 -0.84357,0.421337 -0.84356,0.704695 -0.84357,-1.261869 -0.84357,2.213179 -0.84356,-3.429431 -0.84357,4.171545 -0.84357,8.246425 -0.84356,-5.003377 -0.84357,2.281399 -0.84357,-2.802011 -0.84356,-7.467849 -0.84357,3.742187 -0.84357,2.729219 -0.84357,5.586398 -0.84356,-6.055238 -0.84357,0.335211 -0.84357,9.44451 -0.84356,-4.365839 -0.84357,-10.2236 -0.84357,3.068381 -0.84356,0.848286 -0.84357,3.838004 -0.84357,1.680751 -0.84356,6.564061 -0.84357,-14.632648 -0.84357,0.634792 -0.84357,0.241008 -0.84356,2.894906 -0.84357,0.274481 -0.84357,-3.77758 -0.84356,6.579274 -0.84357,-4.918241 -0.84357,1.027506 -0.84356,-4.387219 -0.84357,7.862602 -0.84357,-5.391346 -0.84356,8.780098 -0.84357,1.608828 -0.84357,-9.722407 -0.84357,7.323099 -0.84356,-8.958301 -0.84357,8.91285 -0.84357,-7.45195 -0.84356,3.204309 -0.84357,-2.137372 -0.84357,5.339224 -0.84356,3.339533 -0.84357,-9.381576 -0.84357,5.057716 -0.84356,-1.826619 -0.84357,-2.927905 -0.84357,4.508803 -0.84357,-6.305503 -0.84356,9.963944 -0.84357,4.026323 -0.84357,-7.293727 -0.84356,-1.152236 -0.84357,-3.781299 -0.84357,0.830548 -0.84356,2.584463 -0.84357,-5.185694 -0.84357,6.094886 -0.84357,1.48629 -0.84356,2.38777 -0.84357,-8.909624 -0.84357,7.629181 -0.84356,-4.819757 -0.84357,3.50722 -0.84357,-5.844564 -0.84356,1.972439 -0.84357,1.879689 -0.84357,-1.049242 -0.84356,7.006456 -0.84357,-5.056276 -0.84357,2.674765 -0.84356,1.403049 -0.84357,-4.481659 -0.84357,-0.74964 -0.84357,0.129267 -0.84356,11.535996 -0.84357,-9.516911 -0.84357,0.72468 -0.84356,-4.895832 -0.84357,8.821993 -0.84357,-6.469052 -0.84356,5.546201 -0.84357,-8.158194 -0.84357,9.875893 -0.84357,-7.991957 -0.84356,9.059707 -0.84357,-11.866263 -0.84357,9.167106 -0.84356,2.340342 -0.84357,-3.236767 -0.84357,-0.656404 -0.84356,0.382082 -0.84357,-6.294579 -0.84357,1.881653 -0.84356,2.969195 -0.84357,-2.474537 -0.84357,-0.526799 -0.84357,-1.402581 -0.84356,3.441193 -0.84357,9.775299 -0.84357,-12.116865 -0.84356,8.395371 -0.84357,3.360106 -0.84357,-2.361121 -0.84356,-3.926775 -0.84357,-0.403764 -0.84357,-3.824974 -0.84356,0.16951 -0.84357,-0.235025 -0.84357,5.701978 -0.84356,-1.28989 -0.84357,2.258702 -0.84357,-1.182537 -0.84357,2.967079 -0.84356,12.178296 -0.84357,-15.770375 -0.84357,4.826822 -0.84356,5.503609 -0.84357,-7.860964 -0.84357,-0.633738 -0.84356,-2.636166 -0.84357,4.912376 -0.84357,-9.49201 -0.84357,8.035048 -0.84356,-6.306766 -0.84357,-1.326202 -0.84357,7.69734 -0.84356,-3.462295 -0.84357,2.557388 -0.84357,-0.782818 -0.84356,0.313398 -0.84357,3.820117 -0.84357,-0.957028 -0.84356,1.354198 -0.84357,2.887125 -0.84357,-2.884975 -0.84357,-2.611581 -0.84356,-4.096355 -0.84357,3.414648 -0.84357,-5.031139 -0.84356,2.687475 -0.84357,13.100281 -0.84357,1.603529 -0.84356,-6.354121 -0.84357,-1.468091 -0.84357,7.179821 -0.84357,0.63055 -0.84356,-12.024974 -0.84357,2.217668 -0.84357,5.806912 -0.84356,-9.69463 -0.84357,-1.799518 -0.84357,3.571026 -0.84356,6.613477 -0.84357,-6.239869 -0.84357,-1.269401 -0.84356,7.816226 -0.84357,-8.754469 -0.84357,8.964901 -0.84357,-12.651454 -0.84356,18.165665 -0.84357,-11.804396 -0.84357,12.603083 -0.84356,2.285758 -0.84357,0.861083 -0.84357,-12.061531 -0.84356,11.460072 -0.84357,-15.737771 -0.84357,6.3559 -0.84356,-2.439838 -0.84357,4.875154 -0.84357,-5.166888 -0.84357,0.360942 -0.84356,-4.888891 -0.84357,10.304404 -0.84357,-3.032396 -0.84356,-0.403419 -0.84357,4.202759 -0.84357,5.795939 -0.84356,-19.036288 -0.84357,16.527315 -0.84357,-4.387821 -0.84356,2.676201 -0.84357,8.449181 -0.84357,-12.484452 -0.84356,15.215274 -0.84357,-12.615392 -0.84357,-0.462698 -0.84357,6.587461 -0.84356,-8.473063 -0.84357,7.513882 -0.84357,-3.637319 -0.84356,1.198603 -0.84357,-5.450312 -0.84357,11.84669 -0.84357,-3.470118 -0.84356,-3.885991 -0.84357,2.125072 -0.84357,4.51389 -0.84356,-1.620497 -0.84357,5.015772 -0.84357,-6.870234 -0.84356,-12.986787 -0.84357,10.894917 -0.84357,-3.264768 -0.84356,7.067829 -0.84357,-6.758369 -0.84357,3.194945 -0.84356,-4.38782 -0.84357,7.429086 -0.84357,8.908719 -0.84357,-3.351269 -0.84356,1.330376 -0.84357,-4.356269 -0.84357,1.83373 -0.84356,1.176998 -0.84357,-0.725466 -0.84357,2.964315 -0.84356,-3.781717 -0.84357,-3.627821 -0.84357,7.981745 -0.84357,3.711316 -0.84356,-12.851567 -0.84357,9.258302 -0.84357,-4.253289 -0.84356,3.470846 -0.84357,-3.618853 -0.84357,9.932465 -0.84356,-0.505115 -0.84357,-2.944834 -0.84357,-4.820027 -0.84356,-5.017564 -0.84357,13.873321 -0.84357,-6.685201 -0.84357,2.060154 -0.84356,3.851801 -0.84357,13.038416 -0.84357,-20.605134 -0.84356,4.487261 -0.84357,-1.329636 -0.84357,5.371509 -0.84356,4.2482 -0.84357,-7.732681 -0.84357,10.605691 -0.84356,6.0581 -0.84357,-7.2472 -0.84357,-5.46004 -0.84357,-3.457181 -0.84356,2.877441 -0.84357,12.30438 -0.84357,-5.97357 -0.84356,3.02315 -0.84357,-4.1785 -0.84357,0.55947 -0.84356,1.36148 -0.84357,9.88612 -0.84357,-2.36336 -0.84356,-1.3542 -0.84357,-0.64558 -0.84357,-1.32686 -0.84357,14.42021 -0.84356,-12.73921 -0.84357,4.15461 -0.84357,-3.09813 -0.84356,-1.8759 -0.84357,13.49447 -0.84357,7.90394 -0.84356,-18.09412 -0.84357,6.3938 -0.84357,6.49725 -0.84357,-4.18939 -0.84356,-0.38602 -0.84357,-0.93866 -0.84357,3.52631 -0.84356,6.10243 -0.84357,-1.33816 -0.84357,2.26658 -0.84356,-11.40141 -0.84357,5.68478 -0.84357,8.96856 -0.84356,-0.6543 -0.84357,0.51251 -0.84357,1.02235 -0.84357,-1.634 -0.84356,3.87121 -0.84357,4.00131 -0.84357,-9.1408 -0.84356,-9.34622 -0.84357,16.61953 -0.84357,-2.3237 -0.84356,13.12667 -0.84357,-7.51623 -0.84357,2.72617 -0.84356,3.48618 -0.84357,5.2551 -0.84357,-6.96562 -0.84357,1.4115 -0.84356,1.63945 -0.84357,1.18194 -0.84357,11.7203 -0.84356,-4.17926 -0.84357,5.93457 -0.84357,-16.08772 -0.84356,16.81007 -0.84357,-11.49097 -0.84357,9.65452 -0.84356,3.84868 -0.84357,-16.24282 -0.84357,17.40374 -0.84356,15.04443 -0.84357,-24.76142 -0.84357,4.87774 -0.84357,5.86045 -0.84356,0.64437 -0.84357,9.85062 -0.84357,-16.85594 -0.84356,9.76356 -0.84357,-3.74625 -0.84357,19.99336 -0.84356,-13.87393 -0.84357,2.93375 -0.84357,9.41391 -0.84357,-3.65794 -0.84356,0.62633 -0.84357,0.11424 -0.84357,4.02496 -0.84356,-3.85115 -0.84357,-0.83384 -0.84357,3.75574 -0.84356,-8.8998 -0.84357,7.20642 -0.84357,8.13217 -0.84356,2.58479 -0.84357,7.71113 -0.84357,-20.97505 -0.84356,2.70632 -0.84357,-8.60719 -0.84357,-2.36354 -0.84357,9.82023 -0.84356,12.98953 -0.84357,-12.05877 -0.84357,-9.17205 -0.84356,17.48054 -0.84357,10.6558 -0.84357,-8.65473 -0.84357,5.81536 -0.84356,8.28469 -0.84357,-21.53579 -0.843566,10.04514 -0.843566,-6.76107 -0.843567,16.08986 -0.843567,-14.57691 -0.843567,10.13986 -0.843567,-7.48149 -0.843567,-5.22304 -0.843567,3.93909 -0.843567,10.14864 -0.843567,1.71321 -0.843567,-5.44429 -0.843567,26.01561 -0.843567,-24.52493 -0.843567,-0.0681 -0.843567,-5.01134 -0.843567,16.879 -0.843566,-0.27204 -0.843567,8.31071 -0.843567,-17.68386 -0.843567,13.40268 -0.843567,5.34291 -0.843567,-13.93055 -0.843567,17.02796 -0.843567,5.84704 -0.843567,1.45957 -0.843567,3.26461 -0.843567,7.2483 -0.843567,24.92036 z" /></g></g><g
       id="g272"><g
         clip-path="url(#clipPath278)"
         id="g274"><path
           id="path280"
           style="fill:none;stroke:#4c72b0;stroke-width:1.5;stroke-linecap:round;stroke-linejoin:round;stroke-miterlimit:10;stroke-dasharray:none;stroke-opacity:1"
           d="m 76.712727,257.97819 0.843567,-30.86741 0.843567,-2.17108 0.843567,0.99179 0.843567,-7.94398 0.843567,0.18743 0.843567,-17.85988 0.843567,14.39363 0.843567,-12.0657 0.843567,-8.54586 0.843567,11.56741 0.843567,-1.23071 0.843566,-3.18611 0.843567,-10.84237 0.843567,7.56685 0.843567,1.98592 0.843567,0.58176 0.843567,-5.48446 0.843567,5.28898 0.843567,-10.7334 0.843567,-0.77459 0.843567,-4.47634 0.843567,8.64799 0.843567,-7.22633 0.843567,0.65716 0.843567,12.32572 0.843567,-12.86843 0.843566,-3.34194 0.843566,-3.95901 0.84357,11.68888 0.84356,-2.66923 0.84357,-6.92371 0.84357,3.92068 0.84357,-2.52502 0.84356,-20.13503 0.84357,9.11141 0.84357,2.93844 0.84356,2.13102 0.84357,-11.40467 0.84357,-1.71719 0.84357,5.05447 0.84356,-0.76384 0.84357,14.36921 0.84357,-8.66163 0.84356,-6.28247 0.84357,-3.01463 0.84357,2.13998 0.84356,-3.92371 0.84357,5.20142 0.84357,-9.26701 0.84356,0.40387 0.84357,1.58539 0.84357,-4.58628 0.84356,4.73341 0.84357,1.36114 0.84357,-6.32983 0.84357,-0.96576 0.84356,0.0493 0.84357,-13.79304 0.84357,2.27771 0.84356,0.15629 0.84357,8.34947 0.84357,-7.3016 0.84356,-0.27049 0.84357,-3.54129 0.84357,-4.98959 0.84357,13.93974 0.84356,-13.17056 0.84357,-9.02422 0.84357,6.53256 0.84356,2.88114 0.84357,-2.51697 0.84357,-1.05114 0.84356,-3.7565 0.84357,11.05605 0.84357,-8.67246 0.84356,3.7174 0.84357,-8.95299 0.84357,-3.2949 0.84356,-0.54009 0.84357,5.38491 0.84357,-1.9262 0.84357,-3.16174 0.84356,-0.57262 0.84357,-3.29866 0.84357,2.75432 0.84356,-9.58687 0.84357,4.08938 0.84357,-9.54151 0.84356,3.74877 0.84357,7.8332 0.84357,-6.68374 1.68713,0.1602 0.84357,1.76997 0.84357,-3.25828 0.84356,-0.35268 0.84357,-3.94561 0.84357,-5.9037 0.84356,8.22887 0.84357,-2.7571 0.84357,1.96127 0.84356,-3.30456 0.84357,0.0468 0.84357,0.43967 0.84356,-4.504638 0.84357,3.960118 0.84357,-6.751268 0.84357,-1.552723 0.84356,8.746711 0.84357,-3.33728 0.84357,-6.608743 0.84356,-0.284654 0.84357,2.065295 0.84357,-0.461759 0.84356,3.83015 0.84357,-6.6575 0.84357,0.337908 0.84357,-0.170451 0.84356,1.38464 0.84357,0.215345 0.84357,-4.806242 0.84356,-0.02 0.84357,-1.493601 0.84357,1.696297 0.84356,-1.572699 0.84357,1.477714 0.84357,-3.537961 0.84356,-4.070184 0.84357,1.677435 0.84357,3.430852 0.84357,4.11855 0.84356,-5.242538 0.84357,-3.822373 0.84357,1.898972 0.84356,-2.388847 0.84357,0.869954 0.84357,-1.798148 0.84356,-1.225465 0.84357,9.55288 0.84357,-7.329274 0.84356,-2.224396 0.84357,-0.576505 0.84357,1.310748 0.84357,-5.236939 1.68713,4.062634 0.84357,1.867225 0.84356,-0.100969 0.84357,-5.489764 0.84357,1.867585 0.84356,-2.894218 0.84357,1.301596 0.84357,-2.327229 0.84356,6.156757 0.84357,-1.58918 0.84357,-4.204226 0.84357,1.13869 0.84356,2.371335 0.84357,-2.239846 0.84357,1.546686 0.84356,1.154879 0.84357,-3.332018 0.84357,1.260468 0.84356,1.781107 0.84357,-0.223573 0.84357,-4.764029 0.84357,-4.032724 0.84356,1.289305 0.84357,-0.522952 0.84357,1.322204 0.84356,-1.523953 0.84357,0.548045 0.84357,-3.61275 0.84356,5.25413 0.84357,3.557993 0.84357,-3.217684 0.84356,-8.05e-4 0.84357,-0.499583 0.84357,-3.420864 0.84356,4.393199 0.84357,-1.952834 0.84357,-3.932805 0.84357,2.213492 0.84356,0.485737 0.84357,0.279583 0.84357,-3.360814 0.84356,2.392879 0.84357,0.230583 0.84357,-1.701747 0.84357,5.693456 0.84356,-5.78829 0.84357,7.480853 0.84357,-4.557391 0.84356,-2.631509 0.84357,1.898302 0.84357,-8.857469 0.84356,10.347528 0.84357,-3.341421 0.84357,-2.17251 0.84356,-1.390327 0.84357,1.987462 0.84357,-4.117628 0.84356,2.777139 0.84357,-0.917471 0.84357,2.707404 0.84357,-2.087781 0.84356,0.886888 0.84357,-2.540119 0.84357,5.782562 0.84356,-5.116736 0.84357,5.330252 0.84357,-0.320596 0.84356,-1.637074 0.84357,-4.980841 0.84357,5.202743 0.84356,-7.554124 0.84357,6.717083 0.84357,-5.264124 0.84357,4.150956 0.84356,-3.676842 0.84357,-0.03848 0.84357,3.805359 0.84356,-3.206754 0.84357,-2.040898 0.84357,-0.118478 0.84356,5.077088 0.84357,-3.552471 0.84357,-0.371636 0.84356,5.169352 0.84357,-1.212743 0.84357,-1.905113 0.84357,-0.552665 0.84356,3.36344 0.84357,-1.215039 0.84357,-5.886556 0.84356,-0.306094 0.84357,2.846342 0.84357,-2.744273 1.68713,3.560112 0.84357,1.31137 0.84357,-0.91221 0.84356,0.09705 1.68714,-1.87368 0.84356,-1.210851 0.84357,0.238181 0.84357,-0.270995 0.84356,1.225856 0.84357,-3.874466 0.84357,1.152644 0.84356,2.289289 0.84357,-3.231081 0.84357,3.520957 0.84357,-1.869244 0.84356,0.425023 0.84357,0.66443 0.84357,2.567688 0.84356,-1.618365 0.84357,-2.287109 0.84357,6.037062 0.84356,-4.250156 0.84357,-0.318206 0.84357,0.05457 0.84357,-1.9175 0.84356,0.469649 0.84357,-1.821305 0.84357,0.469561 0.84356,-0.755684 0.84357,1.490141 0.84357,0.35289 1.68713,1.802044 0.84357,-0.375635 0.84356,-3.659714 0.84357,4.150277 0.84357,-3.17431 0.84356,-2.033683 0.84357,1.093576 0.84357,0.08944 0.84357,0.486385 0.84356,-0.464918 0.84357,-0.824822 0.84357,2.247953 0.84356,-0.36823 0.84357,0.555194 0.84357,1.792875 1.68713,-5.069795 0.84357,4.448155 0.84356,-3.270694 0.84357,2.787255 0.84357,-3.739828 0.84357,2.335908 0.84356,-2.039359 0.84357,3.197308 0.84357,-3.277073 0.84356,1.447204 0.84357,-0.252443 0.84357,2.120646 0.84356,-2.663568 0.84357,-0.03412 0.84357,0.625574 0.84357,1.600508 1.68713,-2.826687 0.84357,1.812986 0.84356,-1.862379 0.84357,0.900037 0.84357,-1.594738 0.84356,-0.485856 0.84357,1.87439 0.84357,-0.335908 0.84356,1.301584 0.84357,-2.906961 0.84357,1.767125 0.84356,0.492882 0.84357,-0.838136 0.84357,-1.988304 0.84357,1.669543 0.84356,-0.853041 0.84357,0.04357 0.84357,1.382634 0.84356,0.363073 0.84357,1.390269 0.84357,-0.792086 0.84356,-3.369247 0.84357,2.048575 0.84357,-1.095873 0.84357,0.698523 0.84356,0.28837 0.84357,-1.985243 0.84357,3.292089 0.84356,-1.116822 0.84357,-1.488563 0.84357,1.409181 0.84356,-2.07046 0.84357,2.599347 0.84357,-2.766615 0.84356,1.89874 0.84357,-2.191093 0.84357,3.845755 0.84357,-0.386227 0.84356,-3.54891 0.84357,1.724627 0.84357,-1.966444 0.84356,1.389108 0.84357,-0.318563 0.84357,1.817841 0.84356,-2.53688 0.84357,2.434074 0.84357,-0.791725 0.84356,-1.522014 0.84357,0.09289 0.84357,-0.234048 0.84357,5.367064 0.84356,-2.644522 0.84357,-1.344217 0.84357,-0.828275 0.84356,-0.354037 0.84357,-0.741126 0.84357,3.152169 0.84356,1.504528 0.84357,-3.15721 0.84357,-0.05239 0.84356,1.46253 0.84357,-1.368226 0.84357,-0.876354 0.84357,-1.179815 0.84356,2.22654 0.84357,1.136535 0.84357,-1.055408 0.84356,2.071672 0.84357,-2.737216 0.84357,-1.626552 0.84356,1.373447 0.84357,-1.00886 0.84357,0.326556 0.84356,0.02152 0.84357,-0.778896 0.84357,2.857639 0.84357,-0.981154 0.84356,-0.133667 0.84357,-0.686273 0.84357,0.962944 0.84356,-2.25674 0.84357,4.150784 0.84357,-2.654201 0.84357,1.572657 0.84356,0.66887 0.84357,-3.860659 0.84357,1.396754 0.84356,-0.825277 0.84357,1.361878 0.84357,-1.563298 0.84356,1.556807 0.84357,-1.501276 0.84357,1.299356 0.84356,-1.466815 0.84357,-0.465033 0.84357,1.849246 0.84356,-1.006975 0.84357,-0.379594 0.84357,0.762791 0.84357,-0.151571 0.84356,0.181954 0.84357,0.594276 0.84357,-0.552578 0.84356,-0.868033 0.84357,1.793069 0.84357,-0.538229 0.84356,-1.423132 0.84357,-0.73777 0.84357,0.725997 0.84356,0.139831 0.84357,-0.176677 0.84357,0.889473 0.84357,-0.480368 0.84356,1.934515 v 0" /></g></g><g
       id="g282"><path
         id="path284"
         style="fill:none;stroke:#ffffff;stroke-width:1.25;stroke-linecap:square;stroke-linejoin:miter;stroke-miterlimit:10;stroke-dasharray:none;stroke-opacity:1"
         d="M 59.04,48.06 V 332.64" /><path
         id="path286"
         style="fill:none;stroke:#ffffff;stroke-width:1.25;stroke-linecap:square;stroke-linejoin:miter;stroke-miterlimit:10;stroke-dasharray:none;stroke-opacity:1"
         d="M 447.84,48.06 V 332.64" /><path
         id="path288"
         style="fill:none;stroke:#ffffff;stroke-width:1.25;stroke-linecap:square;stroke-linejoin:miter;stroke-miterlimit:10;stroke-dasharray:none;stroke-opacity:1"
         d="m 59.04,48.06 h 388.8" /><path
         id="path290"
         style="fill:none;stroke:#ffffff;stroke-width:1.25;stroke-linecap:square;stroke-linejoin:miter;stroke-miterlimit:10;stroke-dasharray:none;stroke-opacity:1"
         d="m 59.04,332.64 h 388.8" /></g></g></svg>