<?xml version="1.0" encoding="UTF-8" standalone="no"?>
<svg
   xmlns:dc="http://purl.org/dc/elements/1.1/"
   xmlns:cc="http://creativecommons.org/ns#"
   xmlns:rdf="http://www.w3.org/1999/02/22-rdf-syntax-ns#"
   xmlns:svg="http://www.w3.org/2000/svg"
   xmlns="http://www.w3.org/2000/svg"
   viewBox="0 0 614.40002 460.79999"
   height="460.79999"
   width="614.40002"
   xml:space="preserve"
   id="svg2"
   version="1.1"><metadata
     id="metadata8"><rdf:RDF><cc:Work
         rdf:about=""><dc:format>image/svg+xml</dc:format><dc:type
           rdf:resource="http://purl.org/dc/dcmitype/StillImage" /></cc:Work></rdf:RDF></metadata><defs
     id="defs6"><clipPath
       id="clipPath22"
       clipPathUnits="userSpaceOnUse"><path
         id="path20"
         d="m 59.04,48.06 h 388.8 V 332.64 H 59.04 Z" /></clipPath><clipPath
       id="clipPath40"
       clipPathUnits="userSpaceOnUse"><path
         id="path38"
         d="m 59.04,48.06 h 388.8 V 332.64 H 59.04 Z" /></clipPath><clipPath
       id="clipPath58"
       clipPathUnits="userSpaceOnUse"><path
         id="path56"
         d="m 59.04,48.06 h 388.8 V 332.64 H 59.04 Z" /></clipPath><clipPath
       id="clipPath76"
       clipPathUnits="userSpaceOnUse"><path
         id="path74"
         d="m 59.04,48.06 h 388.8 V 332.64 H 59.04 Z" /></clipPath><clipPath
       id="clipPath94"
       clipPathUnits="userSpaceOnUse"><path
         id="path92"
         d="m 59.04,48.06 h 388.8 V 332.64 H 59.04 Z" /></clipPath><clipPath
       id="clipPath118"
       clipPathUnits="userSpaceOnUse"><path
         id="path116"
         d="m 59.04,48.06 h 388.8 V 332.64 H 59.04 Z" /></clipPath><clipPath
       id="clipPath136"
       clipPathUnits="userSpaceOnUse"><path
         id="path134"
         d="m 59.04,48.06 h 388.8 V 332.64 H 59.04 Z" /></clipPath><clipPath
       id="clipPath154"
       clipPathUnits="userSpaceOnUse"><path
         id="path152"
         d="m 59.04,48.06 h 388.8 V 332.64 H 59.04 Z" /></clipPath><clipPath
       id="clipPath172"
       clipPathUnits="userSpaceOnUse"><path
         id="path170"
         d="m 59.04,48.06 h 388.8 V 332.64 H 59.04 Z" /></clipPath><clipPath
       id="clipPath190"
       clipPathUnits="userSpaceOnUse"><path
         id="path188"
         d="m 59.04,48.06 h 388.8 V 332.64 H 59.04 Z" /></clipPath><clipPath
       id="clipPath208"
       clipPathUnits="userSpaceOnUse"><path
         id="path206"
         d="m 59.04,48.06 h 388.8 V 332.64 H 59.04 Z" /></clipPath><clipPath
       id="clipPath226"
       clipPathUnits="userSpaceOnUse"><path
         id="path224"
         d="m 59.04,48.06 h 388.8 V 332.64 H 59.04 Z" /></clipPath><clipPath
       id="clipPath244"
       clipPathUnits="userSpaceOnUse"><path
         id="path242"
         d="m 59.04,48.06 h 388.8 V 332.64 H 59.04 Z" /></clipPath><clipPath
       id="clipPath268"
       clipPathUnits="userSpaceOnUse"><path
         id="path266"
         d="m 59.04,48.06 h 388.8 V 332.64 H 59.04 Z" /></clipPath></defs><g
     transform="matrix(1.3333333,0,0,-1.3333333,0,460.8)"
     id="g10"><path
       id="path12"
       style="fill:#ffffff;fill-opacity:1;fill-rule:nonzero;stroke:none"
       d="M 0,0 H 460.8 V 345.6 H 0 Z" /><path
       id="path14"
       style="fill:#eaeaf2;fill-opacity:1;fill-rule:nonzero;stroke:none"
       d="m 59.04,48.06 h 388.8 V 332.64 H 59.04 Z" /><g
       id="g16"><g
         clip-path="url(#clipPath22)"
         id="g18"><path
           id="path24"
           style="fill:none;stroke:#ffffff;stroke-width:1;stroke-linecap:round;stroke-linejoin:round;stroke-miterlimit:10;stroke-dasharray:none;stroke-opacity:1"
           d="M 75.898316,48.06 V 332.64" /></g></g><g
       id="g26"><g
         transform="translate(72.835816,30.685)"
         id="g28"><text
           id="text32"
           style="font-variant:normal;font-weight:normal;font-size:11px;font-family:ArialMT;-inkscape-font-specification:ArialMT;writing-mode:lr-tb;fill:#262626;fill-opacity:1;fill-rule:nonzero;stroke:none"
           transform="scale(1,-1)"><tspan
             id="tspan30"
             y="0"
             x="0">0</tspan></text>
</g></g><g
       id="g34"><g
         clip-path="url(#clipPath40)"
         id="g36"><path
           id="path42"
           style="fill:none;stroke:#ffffff;stroke-width:1;stroke-linecap:round;stroke-linejoin:round;stroke-miterlimit:10;stroke-dasharray:none;stroke-opacity:1"
           d="M 157.33945,48.06 V 332.64" /></g></g><g
       id="g44"><g
         transform="translate(145.08946,30.685)"
         id="g46"><text
           id="text50"
           style="font-variant:normal;font-weight:normal;font-size:11px;font-family:ArialMT;-inkscape-font-specification:ArialMT;writing-mode:lr-tb;fill:#262626;fill-opacity:1;fill-rule:nonzero;stroke:none"
           transform="scale(1,-1)"><tspan
             id="tspan48"
             y="0"
             x="0 6.1160002 12.232 18.348">5000</tspan></text>
</g></g><g
       id="g52"><g
         clip-path="url(#clipPath58)"
         id="g54"><path
           id="path60"
           style="fill:none;stroke:#ffffff;stroke-width:1;stroke-linecap:round;stroke-linejoin:round;stroke-miterlimit:10;stroke-dasharray:none;stroke-opacity:1"
           d="M 238.78059,48.06 V 332.64" /></g></g><g
       id="g62"><g
         transform="translate(223.46809,30.685)"
         id="g64"><text
           id="text68"
           style="font-variant:normal;font-weight:normal;font-size:11px;font-family:ArialMT;-inkscape-font-specification:ArialMT;writing-mode:lr-tb;fill:#262626;fill-opacity:1;fill-rule:nonzero;stroke:none"
           transform="scale(1,-1)"><tspan
             id="tspan66"
             y="0"
             x="0 6.1160002 12.232 18.348 24.464001">10000</tspan></text>
</g></g><g
       id="g70"><g
         clip-path="url(#clipPath76)"
         id="g72"><path
           id="path78"
           style="fill:none;stroke:#ffffff;stroke-width:1;stroke-linecap:round;stroke-linejoin:round;stroke-miterlimit:10;stroke-dasharray:none;stroke-opacity:1"
           d="M 320.22173,48.06 V 332.64" /></g></g><g
       id="g80"><g
         transform="translate(304.90923,30.685)"
         id="g82"><text
           id="text86"
           style="font-variant:normal;font-weight:normal;font-size:11px;font-family:ArialMT;-inkscape-font-specification:ArialMT;writing-mode:lr-tb;fill:#262626;fill-opacity:1;fill-rule:nonzero;stroke:none"
           transform="scale(1,-1)"><tspan
             id="tspan84"
             y="0"
             x="0 6.1160002 12.232 18.348 24.464001">15000</tspan></text>
</g></g><g
       id="g88"><g
         clip-path="url(#clipPath94)"
         id="g90"><path
           id="path96"
           style="fill:none;stroke:#ffffff;stroke-width:1;stroke-linecap:round;stroke-linejoin:round;stroke-miterlimit:10;stroke-dasharray:none;stroke-opacity:1"
           d="M 401.66287,48.06 V 332.64" /></g></g><g
       id="g98"><g
         transform="translate(386.35037,30.685)"
         id="g100"><text
           id="text104"
           style="font-variant:normal;font-weight:normal;font-size:11px;font-family:ArialMT;-inkscape-font-specification:ArialMT;writing-mode:lr-tb;fill:#262626;fill-opacity:1;fill-rule:nonzero;stroke:none"
           transform="scale(1,-1)"><tspan
             id="tspan102"
             y="0"
             x="0 6.1160002 12.232 18.348 24.464001">20000</tspan></text>
</g><g
         transform="translate(231.76812,15.90375)"
         id="g106"><text
           id="text110"
           style="font-variant:normal;font-weight:normal;font-size:12px;font-family:ArialMT;-inkscape-font-specification:ArialMT;writing-mode:lr-tb;fill:#262626;fill-opacity:1;fill-rule:nonzero;stroke:none"
           transform="scale(1,-1)"><tspan
             id="tspan108"
             y="0"
             x="0 3.336 6.6719999 13.344 17.34 24.011999 27.348 30.011999 36.683998">Iteration</tspan></text>
</g></g><g
       id="g112"><g
         clip-path="url(#clipPath118)"
         id="g114"><path
           id="path120"
           style="fill:none;stroke:#ffffff;stroke-width:1;stroke-linecap:round;stroke-linejoin:round;stroke-miterlimit:10;stroke-dasharray:none;stroke-opacity:1"
           d="m 59.04,48.06 h 388.8" /></g></g><g
       id="g122"><g
         transform="translate(34.2275,44.1225)"
         id="g124"><text
           id="text128"
           style="font-variant:normal;font-weight:normal;font-size:11px;font-family:ArialMT;-inkscape-font-specification:ArialMT;writing-mode:lr-tb;fill:#262626;fill-opacity:1;fill-rule:nonzero;stroke:none"
           transform="scale(1,-1)"><tspan
             id="tspan126"
             y="0"
             x="0 6.1160002 9.1739998">0.0</tspan></text>
</g></g><g
       id="g130"><g
         clip-path="url(#clipPath136)"
         id="g132"><path
           id="path138"
           style="fill:none;stroke:#ffffff;stroke-width:1;stroke-linecap:round;stroke-linejoin:round;stroke-miterlimit:10;stroke-dasharray:none;stroke-opacity:1"
           d="m 59.04,85.504737 h 388.8" /></g></g><g
       id="g140"><g
         transform="translate(34.2275,81.567237)"
         id="g142"><text
           id="text146"
           style="font-variant:normal;font-weight:normal;font-size:11px;font-family:ArialMT;-inkscape-font-specification:ArialMT;writing-mode:lr-tb;fill:#262626;fill-opacity:1;fill-rule:nonzero;stroke:none"
           transform="scale(1,-1)"><tspan
             id="tspan144"
             y="0"
             x="0 6.1160002 9.1739998">2.5</tspan></text>
</g></g><g
       id="g148"><g
         clip-path="url(#clipPath154)"
         id="g150"><path
           id="path156"
           style="fill:none;stroke:#ffffff;stroke-width:1;stroke-linecap:round;stroke-linejoin:round;stroke-miterlimit:10;stroke-dasharray:none;stroke-opacity:1"
           d="m 59.04,122.94947 h 388.8" /></g></g><g
       id="g158"><g
         transform="translate(34.2275,119.01197)"
         id="g160"><text
           id="text164"
           style="font-variant:normal;font-weight:normal;font-size:11px;font-family:ArialMT;-inkscape-font-specification:ArialMT;writing-mode:lr-tb;fill:#262626;fill-opacity:1;fill-rule:nonzero;stroke:none"
           transform="scale(1,-1)"><tspan
             id="tspan162"
             y="0"
             x="0 6.1160002 9.1739998">5.0</tspan></text>
</g></g><g
       id="g166"><g
         clip-path="url(#clipPath172)"
         id="g168"><path
           id="path174"
           style="fill:none;stroke:#ffffff;stroke-width:1;stroke-linecap:round;stroke-linejoin:round;stroke-miterlimit:10;stroke-dasharray:none;stroke-opacity:1"
           d="m 59.04,160.39421 h 388.8" /></g></g><g
       id="g176"><g
         transform="translate(34.2275,156.45671)"
         id="g178"><text
           id="text182"
           style="font-variant:normal;font-weight:normal;font-size:11px;font-family:ArialMT;-inkscape-font-specification:ArialMT;writing-mode:lr-tb;fill:#262626;fill-opacity:1;fill-rule:nonzero;stroke:none"
           transform="scale(1,-1)"><tspan
             id="tspan180"
             y="0"
             x="0 6.1160002 9.1739998">7.5</tspan></text>
</g></g><g
       id="g184"><g
         clip-path="url(#clipPath190)"
         id="g186"><path
           id="path192"
           style="fill:none;stroke:#ffffff;stroke-width:1;stroke-linecap:round;stroke-linejoin:round;stroke-miterlimit:10;stroke-dasharray:none;stroke-opacity:1"
           d="m 59.04,197.83895 h 388.8" /></g></g><g
       id="g194"><g
         transform="translate(28.1025,193.90145)"
         id="g196"><text
           id="text200"
           style="font-variant:normal;font-weight:normal;font-size:11px;font-family:ArialMT;-inkscape-font-specification:ArialMT;writing-mode:lr-tb;fill:#262626;fill-opacity:1;fill-rule:nonzero;stroke:none"
           transform="scale(1,-1)"><tspan
             id="tspan198"
             y="0"
             x="0 6.1160002 12.232 15.29">10.0</tspan></text>
</g></g><g
       id="g202"><g
         clip-path="url(#clipPath208)"
         id="g204"><path
           id="path210"
           style="fill:none;stroke:#ffffff;stroke-width:1;stroke-linecap:round;stroke-linejoin:round;stroke-miterlimit:10;stroke-dasharray:none;stroke-opacity:1"
           d="m 59.04,235.28368 h 388.8" /></g></g><g
       id="g212"><g
         transform="translate(28.1025,231.34618)"
         id="g214"><text
           id="text218"
           style="font-variant:normal;font-weight:normal;font-size:11px;font-family:ArialMT;-inkscape-font-specification:ArialMT;writing-mode:lr-tb;fill:#262626;fill-opacity:1;fill-rule:nonzero;stroke:none"
           transform="scale(1,-1)"><tspan
             id="tspan216"
             y="0"
             x="0 6.1160002 12.232 15.29">12.5</tspan></text>
</g></g><g
       id="g220"><g
         clip-path="url(#clipPath226)"
         id="g222"><path
           id="path228"
           style="fill:none;stroke:#ffffff;stroke-width:1;stroke-linecap:round;stroke-linejoin:round;stroke-miterlimit:10;stroke-dasharray:none;stroke-opacity:1"
           d="m 59.04,272.72842 h 388.8" /></g></g><g
       id="g230"><g
         transform="translate(28.1025,268.79092)"
         id="g232"><text
           id="text236"
           style="font-variant:normal;font-weight:normal;font-size:11px;font-family:ArialMT;-inkscape-font-specification:ArialMT;writing-mode:lr-tb;fill:#262626;fill-opacity:1;fill-rule:nonzero;stroke:none"
           transform="scale(1,-1)"><tspan
             id="tspan234"
             y="0"
             x="0 6.1160002 12.232 15.29">15.0</tspan></text>
</g></g><g
       id="g238"><g
         clip-path="url(#clipPath244)"
         id="g240"><path
           id="path246"
           style="fill:none;stroke:#ffffff;stroke-width:1;stroke-linecap:round;stroke-linejoin:round;stroke-miterlimit:10;stroke-dasharray:none;stroke-opacity:1"
           d="m 59.04,310.17316 h 388.8" /></g></g><g
       id="g248"><g
         transform="translate(28.1025,306.23566)"
         id="g250"><text
           id="text254"
           style="font-variant:normal;font-weight:normal;font-size:11px;font-family:ArialMT;-inkscape-font-specification:ArialMT;writing-mode:lr-tb;fill:#262626;fill-opacity:1;fill-rule:nonzero;stroke:none"
           transform="scale(1,-1)"><tspan
             id="tspan252"
             y="0"
             x="0 6.1160002 12.232 15.29">17.5</tspan></text>
</g><g
         transform="rotate(90,-77.983125,99.695)"
         id="g256"><text
           id="text260"
           style="font-variant:normal;font-weight:normal;font-size:12px;font-family:ArialMT;-inkscape-font-specification:ArialMT;writing-mode:lr-tb;fill:#262626;fill-opacity:1;fill-rule:nonzero;stroke:none"
           transform="scale(1,-1)"><tspan
             id="tspan258"
             y="0"
             x="0 6.6719999 13.344 19.344">Loss</tspan></text>
</g></g><g
       id="g262"><g
         clip-path="url(#clipPath268)"
         id="g264"><path
           id="path270"
           style="fill:none;stroke:#4c72b0;stroke-width:1.5;stroke-linecap:round;stroke-linejoin:round;stroke-miterlimit:10;stroke-dasharray:none;stroke-opacity:1"
           d="m 76.712727,306.3819 0.814412,-28.00531 0.814411,-6.59317 0.814411,17.40698 0.814412,35.72518 0.814411,-63.2633 0.814412,-17.65126 0.814411,34.17378 0.814411,16.37062 0.814412,-27.90128 0.814411,30.73787 1.628823,-10.89603 0.814411,-18.58553 0.814412,-8.87851 0.814411,-27.90608 0.814412,45.64468 0.814411,-5.3694 0.814411,-3.05643 0.814412,6.28695 0.814411,-10.016 0.814412,20.22282 0.814411,-39.42243 0.814411,40.16526 0.814412,-65.49015 0.814411,53.78747 0.814412,4.39127 0.814411,-4.96878 0.814411,4.51366 0.814414,-4.06397 0.81441,-56.84481 0.81441,45.43538 0.81441,14.6135 0.81441,-12.66021 0.81442,-15.84355 0.81441,-18.66417 0.81441,36.70157 0.81441,-12.89865 0.81441,2.31427 0.81441,13.5432 0.81441,21.31245 0.81441,-28.60786 0.81442,10.94712 0.81441,-15.8784 0.81441,-12.07707 0.81441,20.95568 0.81441,-19.84478 0.81441,23.39425 0.81441,-7.96852 0.81442,23.95982 0.81441,-35.1675 0.81441,23.54688 0.81441,3.24603 0.81441,27.60967 0.81441,7.8535 0.81441,-53.00311 0.81442,-27.87556 0.81441,49.93887 0.81441,-14.56642 0.81441,-9.60714 0.81441,41.55444 0.81441,16.40748 0.81441,-46.47888 0.81441,8.46234 0.81442,-17.92347 0.81441,-13.27966 0.81441,38.56435 1.62882,-31.638 0.81441,14.45305 0.81441,-21.61423 0.81442,0.83923 0.81441,-23.06225 0.81441,25.35389 0.81441,4.36354 0.81441,18.62438 0.81441,-8.23731 0.81442,-16.55605 0.81441,1.20129 0.81441,2.07764 0.81441,-24.49378 0.81441,0.76242 0.81441,20.95868 0.81441,-10.28171 0.81441,18.93953 0.81442,-23.14392 0.81441,62.56134 0.81441,-43.69925 0.81441,-14.85524 0.81441,44.15866 0.81441,-48.85589 0.81441,30.81249 0.81442,-31.44389 0.81441,36.20564 0.81441,3.46646 0.81441,-20.10492 0.81441,-1.96591 0.81441,-45.30427 0.81441,41.16057 0.81441,9.14817 1.62883,-16.63542 0.81441,9.73596 0.81441,-7.38856 0.81441,45.95222 0.81441,-28.92315 0.81441,-37.87571 0.81442,21.96466 0.81441,-5.19589 0.81441,24.27917 0.81441,19.32835 0.81441,-20.26601 0.81441,28.78299 0.81441,-37.7091 0.81442,23.90302 0.81441,-21.0743 0.81441,-43.18512 0.81441,15.38449 0.81441,-4.12119 0.81441,50.25436 0.81441,-32.73334 0.81442,34.87686 0.81441,-24.3918 0.81441,-39.13914 0.81441,43.94656 0.81441,15.68075 0.81441,-41.77049 0.81441,14.63382 0.81442,-19.34813 0.81441,29.73773 0.81441,-21.00598 0.81441,31.01198 0.81441,-4.37478 0.81441,-23.31698 0.81441,37.27775 0.81442,-33.70477 0.81441,43.35117 0.81441,24.29265 0.81441,-57.40623 0.81441,-8.45596 0.81441,0.95041 0.81441,-17.41168 0.81441,22.36784 0.81442,-18.60616 0.81441,-3.60622 0.81441,32.50771 0.81441,9.98172 0.81441,-50.93251 0.81441,1.09493 0.81441,81.26884 0.81442,-21.61681 0.81441,-64.35056 0.81441,7.30773 0.81441,10.42089 0.81441,0.95781 0.81441,27.9122 0.81441,-24.0865 0.81442,27.03512 0.81441,-19.41524 0.81441,-28.86971 0.81441,34.30603 0.81441,-32.34589 1.62882,28.86312 0.81442,4.76467 0.81441,-10.83691 0.81441,5.92693 0.81441,16.96703 0.81441,11.64529 0.81441,-46.82829 0.81441,-0.33414 0.81442,-19.10359 0.81441,9.58898 0.81441,-1.30619 0.81441,15.20622 0.81441,3.33073 0.81441,6.92302 0.81441,-40.81629 0.81442,26.8707 0.81441,-8.82373 0.81441,20.97867 0.81441,-22.42206 0.81441,10.23661 0.81441,8.67955 0.81441,30.71814 0.81441,-43.31891 0.81442,8.76427 0.81441,-14.6156 0.81441,9.38719 0.81441,48.41292 0.81441,-42.1854 0.81441,16.33748 0.81441,-33.41419 0.81442,18.6756 0.81441,-40.31437 0.81441,57.32667 0.81441,8.93637 0.81441,-28.17715 0.81441,-49.07053 0.81441,48.66349 0.81442,11.96575 0.81441,27.84032 0.81441,-12.19289 0.81441,-54.33269 0.81441,-13.50958 0.81441,42.25702 0.81442,-19.13952 0.81441,7.81145 0.81441,-2.96253 0.81441,-3.94523 0.81441,57.24987 0.81441,-74.49953 0.81441,44.08438 0.81441,6.65807 0.81442,-5.39083 0.81441,-43.28948 0.81441,40.12128 0.81441,25.57383 0.81441,-60.63334 0.81441,7.37101 0.81441,31.14943 0.81442,-53.11659 0.81441,63.93063 0.81441,-39.82148 0.81441,-5.99681 0.81441,41.54659 0.81441,15.88729 0.81441,-27.66296 0.81441,-23.12278 0.81442,31.49053 0.81441,-13.40323 0.81441,15.90008 0.81441,-42.91703 0.81441,8.73244 0.81441,10.98573 0.81441,28.20058 0.81442,0.51746 0.81441,-13.79513 0.81441,-18.14477 0.81441,-4.0189 0.81441,7.84942 0.81441,-16.46721 0.81442,-6.91884 0.81441,28.3016 0.81441,-25.24785 1.62882,28.62868 0.81441,-21.35982 0.81441,35.26898 0.81441,-25.75581 0.81442,-11.68068 0.81441,13.00833 0.81441,4.57029 0.81441,-29.83736 0.81441,28.62709 0.81441,-56.82911 0.81441,88.9701 0.81442,-14.34333 0.81441,22.39323 0.81441,-46.52189 0.81441,-10.58196 0.81441,-15.7002 0.81441,54.34183 0.81441,-1.66986 0.81442,0.1849 0.81441,-49.33113 0.81441,15.65671 0.81441,37.7704 0.81441,-43.09395 0.81441,19.55698 0.81441,7.56699 0.81441,-54.10193 0.81442,90.02446 0.81441,-63.23933 0.81441,-8.94485 0.81441,8.7524 1.62882,37.60589 0.81442,-37.09675 0.81441,19.94982 0.81441,-8.30777 0.81441,11.68248 0.81441,-42.25206 0.81441,55.8766 0.81441,-5.16261 0.81441,-23.05486 0.81442,-32.00745 0.81441,19.79213 0.81441,29.03853 0.81441,9.27057 0.81441,-30.92247 0.81441,16.70865 0.81441,-18.24987 0.81442,-5.62163 0.81441,33.28644 0.81441,-35.28798 0.81441,3.60704 0.81441,-10.85706 0.81441,47.04437 0.81441,-25.14768 0.81442,-16.60018 0.81441,1.42188 0.81441,43.68238 0.81441,8.38796 0.81441,-45.25078 0.81441,-0.81606 0.81441,12.2693 0.81442,45.33676 0.81441,-54.40114 0.81441,11.88879 0.81441,5.89865 0.81441,-23.26993 0.81441,-18.12832 0.81441,10.76296 0.81441,48.75323 0.81442,-0.36656 0.81441,-17.52625 0.81441,-7.91384 0.81441,-15.70341 0.81441,20.30209 0.81441,-2.69549 0.81441,24.83447 0.81442,-23.24191 0.81441,-1.40726 0.81441,-6.45802 0.81441,8.19561 0.81441,-6.30303 0.81441,-12.30214 0.81442,51.33749 0.81441,-54.89208 0.81441,-16.02773 0.81441,20.79077 0.81441,13.879 0.81441,-11.07803 0.81441,15.97553 0.81441,-11.3242 0.81442,-36.79853 0.81441,64.08519 0.81441,-32.19472 0.81441,23.58924 0.81441,-67.55053 0.81441,96.71469 1.62883,-31.14473 0.81441,-25.5569 0.81441,-21.63769 0.81441,11.09108 0.81441,0.18547 0.81441,-3.4752 1.62883,43.66595 0.81441,-14.0781 0.81441,-21.49676 0.81441,37.27174 0.81441,-20.62878 0.81441,7.91611 1.62882,-48.39564 0.81442,1.29476 1.62882,67.25683 0.81441,9.1942 0.81441,-6.7846 0.81441,-21.71263 0.81441,-17.8494 0.81442,27.13058 0.81441,9.56979 0.81441,-33.44437 0.81441,31.04892 0.81441,-53.43088 0.81441,-35.95122 0.81441,55.54131 0.81442,21.83422 0.81441,-24.67361 0.81441,4.4516 0.81441,-4.27595 0.81441,1.05159 0.81441,38.45198 0.81441,-58.96316 0.81442,-1.13697 0.81441,2.39167 0.81441,26.69876 0.81441,-8.53312 0.81441,7.95574 0.81441,30.41458 0.81441,-48.03574 0.81442,32.74166 0.81441,-6.79382 0.81441,-39.80364 0.81441,48.26639 0.81441,-27.63717 0.81441,33.60147 0.81441,-41.40079 0.81442,20.10177 0.81441,3.24192 0.81441,0.49455 0.81441,-5.09163 0.81441,-11.95648 0.81441,6.16768 0.81441,17.73247 0.81441,22.91443 0.81442,-38.56423 0.81441,-9.42417 0.81441,36.53612 0.81441,-58.68279 0.81441,31.91293 0.81441,-3.49588 0.81441,36.67346 0.81442,-61.33399 0.81441,37.68868 0.81441,25.14896 0.81441,-23.24495 0.81441,26.07695 0.81441,-56.43309 0.81442,34.16898 0.81441,3.91174 0.81441,-12.76778 0.81441,-23.07432 0.81441,-15.91865 1.62882,58.05006 0.81441,-26.05729 0.81442,46.65259 0.81441,-62.70259 0.81441,31.34957 0.81441,-44.20189 0.81441,-6.57883 0.81441,28.85653 0.81441,-3.32306 0.81442,14.07731 0.81441,-15.16497 0.81441,43.20958 0.81441,-10.81285 0.81441,-56.7968 0.81441,21.01942 v 0" /></g></g><g
       id="g272"><path
         id="path274"
         style="fill:none;stroke:#ffffff;stroke-width:1.25;stroke-linecap:square;stroke-linejoin:miter;stroke-miterlimit:10;stroke-dasharray:none;stroke-opacity:1"
         d="M 59.04,48.06 V 332.64" /><path
         id="path276"
         style="fill:none;stroke:#ffffff;stroke-width:1.25;stroke-linecap:square;stroke-linejoin:miter;stroke-miterlimit:10;stroke-dasharray:none;stroke-opacity:1"
         d="M 447.84,48.06 V 332.64" /><path
         id="path278"
         style="fill:none;stroke:#ffffff;stroke-width:1.25;stroke-linecap:square;stroke-linejoin:miter;stroke-miterlimit:10;stroke-dasharray:none;stroke-opacity:1"
         d="m 59.04,48.06 h 388.8" /><path
         id="path280"
         style="fill:none;stroke:#ffffff;stroke-width:1.25;stroke-linecap:square;stroke-linejoin:miter;stroke-miterlimit:10;stroke-dasharray:none;stroke-opacity:1"
         d="m 59.04,332.64 h 388.8" /></g></g></svg>