<svg xmlns="http://www.w3.org/2000/svg" xmlns:xlink="http://www.w3.org/1999/xlink" version="1.1" width="864" height="360" viewBox="0 0 864 360">
<defs>
<clipPath id="clip_0">
<path transform="matrix(1,0,0,-1,0,360)" d="M50.96 41.96H444.93V333.12H50.96Z"/>
</clipPath>
<clipPath id="clip_1">
<path transform="matrix(1,0,0,-1,0,360)" d="M50.96 41.96H444.93V333.12H50.96Z"/>
</clipPath>
<clipPath id="clip_2">
<path transform="matrix(1,0,0,-1,0,360)" d="M50.96 41.96H444.93V333.12H50.96Z"/>
</clipPath>
<clipPath id="clip_3">
<path transform="matrix(1,0,0,-1,0,360)" d="M50.96 41.96H444.93V333.12H50.96Z"/>
</clipPath>
<clipPath id="clip_4">
<path transform="matrix(1,0,0,-1,0,360)" d="M50.96 41.96H444.93V333.12H50.96Z"/>
</clipPath>
<clipPath id="clip_5">
<path transform="matrix(1,0,0,-1,0,360)" d="M50.96 41.96H444.93V333.12H50.96Z"/>
</clipPath>
<clipPath id="clip_6">
<path transform="matrix(1,0,0,-1,0,360)" d="M50.96 41.96H444.93V333.12H50.96Z"/>
</clipPath>
<clipPath id="clip_7">
<path transform="matrix(1,0,0,-1,0,360)" d="M50.96 41.96H444.93V333.12H50.96Z"/>
</clipPath>
<clipPath id="clip_8">
<path transform="matrix(1,0,0,-1,0,360)" d="M50.96 41.96H444.93V333.12H50.96Z"/>
</clipPath>
<clipPath id="clip_9">
<path transform="matrix(1,0,0,-1,0,360)" d="M50.96 41.96H444.93V333.12H50.96Z"/>
</clipPath>
<clipPath id="clip_10">
<path transform="matrix(1,0,0,-1,0,360)" d="M50.96 41.96H444.93V333.12H50.96Z"/>
</clipPath>
<clipPath id="clip_11">
<path transform="matrix(1,0,0,-1,0,360)" d="M50.96 41.96H444.93V333.12H50.96Z"/>
</clipPath>
<clipPath id="clip_12">
<path transform="matrix(1,0,0,-1,0,360)" d="M50.96 41.96H444.93V333.12H50.96Z"/>
</clipPath>
<clipPath id="clip_13">
<path transform="matrix(1,0,0,-1,0,360)" d="M50.96 41.96H444.93V333.12H50.96Z"/>
</clipPath>
<clipPath id="clip_14">
<path transform="matrix(1,0,0,-1,0,360)" d="M50.96 41.96H444.93V333.12H50.96Z"/>
</clipPath>
<clipPath id="clip_15">
<path transform="matrix(1,0,0,-1,0,360)" d="M50.96 41.96H444.93V333.12H50.96Z"/>
</clipPath>
<clipPath id="clip_16">
<path transform="matrix(1,0,0,-1,0,360)" d="M50.96 41.96H444.93V333.12H50.96Z"/>
</clipPath>
<clipPath id="clip_17">
<path transform="matrix(1,0,0,-1,0,360)" d="M50.96 41.96H444.93V333.12H50.96Z"/>
</clipPath>
<clipPath id="clip_18">
<path transform="matrix(1,0,0,-1,0,360)" d="M459.23 41.96H853.2V333.12H459.23Z"/>
</clipPath>
<clipPath id="clip_19">
<path transform="matrix(1,0,0,-1,0,360)" d="M459.23 41.96H853.2V333.12H459.23Z"/>
</clipPath>
<clipPath id="clip_20">
<path transform="matrix(1,0,0,-1,0,360)" d="M459.23 41.96H853.2V333.12H459.23Z"/>
</clipPath>
<clipPath id="clip_21">
<path transform="matrix(1,0,0,-1,0,360)" d="M459.23 41.96H853.2V333.12H459.23Z"/>
</clipPath>
<clipPath id="clip_22">
<path transform="matrix(1,0,0,-1,0,360)" d="M459.23 41.96H853.2V333.12H459.23Z"/>
</clipPath>
<clipPath id="clip_23">
<path transform="matrix(1,0,0,-1,0,360)" d="M459.23 41.96H853.2V333.12H459.23Z"/>
</clipPath>
<clipPath id="clip_24">
<path transform="matrix(1,0,0,-1,0,360)" d="M459.23 41.96H853.2V333.12H459.23Z"/>
</clipPath>
<clipPath id="clip_25">
<path transform="matrix(1,0,0,-1,0,360)" d="M459.23 41.96H853.2V333.12H459.23Z"/>
</clipPath>
<clipPath id="clip_26">
<path transform="matrix(1,0,0,-1,0,360)" d="M459.23 41.96H853.2V333.12H459.23Z"/>
</clipPath>
<clipPath id="clip_27">
<path transform="matrix(1,0,0,-1,0,360)" d="M459.23 41.96H853.2V333.12H459.23Z"/>
</clipPath>
<clipPath id="clip_28">
<path transform="matrix(1,0,0,-1,0,360)" d="M459.23 41.96H853.2V333.12H459.23Z"/>
</clipPath>
<clipPath id="clip_29">
<path transform="matrix(1,0,0,-1,0,360)" d="M459.23 41.96H853.2V333.12H459.23Z"/>
</clipPath>
<clipPath id="clip_30">
<path transform="matrix(1,0,0,-1,0,360)" d="M459.23 41.96H853.2V333.12H459.23Z"/>
</clipPath>
<clipPath id="clip_31">
<path transform="matrix(1,0,0,-1,0,360)" d="M459.23 41.96H853.2V333.12H459.23Z"/>
</clipPath>
<clipPath id="clip_32">
<path transform="matrix(1,0,0,-1,0,360)" d="M459.23 41.96H853.2V333.12H459.23Z"/>
</clipPath>
<clipPath id="clip_33">
<path transform="matrix(1,0,0,-1,0,360)" d="M459.23 41.96H853.2V333.12H459.23Z"/>
</clipPath>
<clipPath id="clip_34">
<path transform="matrix(1,0,0,-1,0,360)" d="M459.23 41.96H853.2V333.12H459.23Z"/>
</clipPath>
<clipPath id="clip_35">
<path transform="matrix(1,0,0,-1,0,360)" d="M459.23 41.96H853.2V333.12H459.23Z"/>
</clipPath>
</defs>
<path transform="matrix(1,0,0,-1,0,360)" d="M0 0H864V360H0Z" fill="#ffffff"/>
<path transform="matrix(1,0,0,-1,0,360)" d="M50.96 41.96H444.93V333.12H50.96Z" fill="#ffffff"/>
<g clip-path="url(#clip_0)">
<path transform="matrix(1,0,0,-1,0,360)" d="M68.86773 323.47016V316.96055L76.177 253.72977 83.48628 232.26107 90.795558 223.85784 98.104839 215.45563 105.41411 209.69664 112.72339 207.4619 120.03266 203.2528 127.34194 203.06909 134.65122 195.94927 141.9605 200.3826 149.26978 195.98735 156.57904 196.58495 163.88832 194.52619 171.1976 195.27669 178.50687 194.62316 185.81615 193.97422 193.12543 190.29903 200.43471 190.54994 207.74398 193.98526 215.05326 191.11515 222.36254 188.27002 229.67182 186.34047 236.98108 189.01992 244.29036 185.6697 251.59964 187.76306 258.9089 182.9675 266.2182 188.96912 273.52748 184.11476 280.83674 185.3436 288.14604 186.23062 295.4553 184.83829 302.7646 187.9548 310.07386 182.18625 317.38313 181.34264 324.6924 179.802 332.00169 181.2252 339.31095 184.03865 346.62025 183.76451 353.9295 180.639 361.2388 182.24694 368.54808 184.73903 375.85734 181.81491 383.16664 181.53072 390.4759 184.67928 397.78517 180.74231 405.09446 181.79946 412.40373 180.81362 419.71299 178.27974 427.02229 181.41667V187.94376L419.71299 187.62973 412.40373 188.07563 405.09446 185.15738 397.78517 187.68459 390.4759 187.77787 383.16664 187.40404 375.85734 190.08995 368.54808 190.09476 361.2388 188.33994 353.9295 188.37644 346.62025 193.04953 339.31095 188.38092 332.00169 189.40947 324.6924 188.4878 317.38313 188.48325 310.07386 189.1351 302.7646 190.5305 295.4553 189.37136 288.14604 193.11003 280.83674 190.50325 273.52748 196.70738 266.2182 197.81914 258.9089 192.62926 251.59964 192.87519 244.29036 194.72032 236.98108 198.31282 229.67182 195.2979 222.36254 194.5195 215.05326 197.95496 207.74398 198.93045 200.43471 198.26505 193.12543 197.39308 185.81615 199.04459 178.50687 202.68943 171.1976 200.6097 163.88832 198.61766 156.57904 203.08727 149.26978 201.22127 141.9605 206.93117 134.65122 204.05408 127.34194 209.5177 120.03266 211.48259 112.72339 210.88314 105.41411 218.15175 98.104839 219.6519 90.795558 230.12114 83.48628 238.26599 76.177 265.86668 68.86773 323.47016Z" fill="#1f77b4" fill-opacity=".1"/>
</g>
<g clip-path="url(#clip_1)">
<path transform="matrix(1,0,0,-1,0,360)" d="M68.86773 260.5194V250.5185L76.177 216.08063 83.48628 203.20914 90.795558 201.5942 98.104839 194.04998 105.41411 191.43585 112.72339 189.54065 120.03266 191.28522 127.34194 190.7229 134.65122 188.12862 141.9605 186.81053 149.26978 186.67746 156.57904 185.59772 163.88832 183.3705 171.1976 186.05973 178.50687 179.98183 185.81615 181.74356 193.12543 182.04178 200.43471 181.75734 207.74398 181.43665 215.05326 183.96355 222.36254 176.79497 229.67182 178.4417 236.98108 178.58449 244.29036 178.87172 251.59964 176.53023 258.9089 179.43402 266.2182 181.9215 273.52748 181.98787 280.83674 178.32979 288.14604 176.6256 295.4553 179.70815 302.7646 175.37552 310.07386 174.67279 317.38313 178.95078 324.6924 176.42519 332.00169 176.24617 339.31095 177.54619 346.62025 177.68608 353.9295 176.61502 361.2388 176.47168 368.54808 176.13399 375.85734 174.39662 383.16664 179.9935 390.4759 175.0185 397.78517 174.30155 405.09446 177.02965 412.40373 176.46605 419.71299 177.49817 427.02229 175.65073V184.86917L419.71299 183.78066 412.40373 179.90622 405.09446 183.74738 397.78517 182.05435 390.4759 179.91393 383.16664 182.86109 375.85734 182.62195 368.54808 181.11441 361.2388 183.314 353.9295 184.91478 346.62025 186.76001 339.31095 180.73358 332.00169 181.15409 324.6924 184.16709 317.38313 184.77269 310.07386 181.97403 302.7646 184.09967 295.4553 184.01468 288.14604 184.13587 280.83674 186.61757 273.52748 186.3384 266.2182 186.47657 258.9089 180.81107 251.59964 182.37886 244.29036 184.99097 236.98108 184.73741 229.67182 182.14785 222.36254 185.89949 215.05326 186.57494 207.74398 188.58718 200.43471 188.52529 193.12543 187.93399 185.81615 190.4978 178.50687 190.37099 171.1976 189.20352 163.88832 191.30664 156.57904 192.6183 149.26978 193.04657 141.9605 192.44942 134.65122 194.99097 127.34194 198.6388 120.03266 193.33197 112.72339 200.96727 105.41411 196.80944 98.104839 203.91869 90.795558 209.74803 83.48628 211.62612 76.177 224.74396 68.86773 260.5194Z" fill="#ff7f0e" fill-opacity=".1"/>
</g>
<g clip-path="url(#clip_2)">
<path transform="matrix(1,0,0,-1,0,360)" stroke-width=".8" stroke-linecap="butt" stroke-dasharray="2.96,1.28" stroke-linejoin="round" fill="none" stroke="#bebebe" stroke-opacity=".4" d="M68.86773 41.96V333.12"/>
</g>
<path transform="matrix(1,0,0,-1,0,360)" d="M68.86773 41.96V38.46"/>
<path transform="matrix(1,0,0,-1,0,360)" stroke-width=".8" stroke-linecap="butt" stroke-linejoin="round" fill="none" stroke="#000000" d="M68.86773 41.96V38.46"/>
<text xml:space="preserve" transform="matrix(1 0 -0 1 65.68804 332.63377)" font-size="10" font-family="DejaVuSans"><tspan y="0" x="0">0</tspan></text>
<g clip-path="url(#clip_3)">
<path transform="matrix(1,0,0,-1,0,360)" stroke-width=".8" stroke-linecap="butt" stroke-dasharray="2.96,1.28" stroke-linejoin="round" fill="none" stroke="#bebebe" stroke-opacity=".4" d="M141.9605 41.96V333.12"/>
</g>
<path transform="matrix(1,0,0,-1,0,360)" d="M141.9605 41.96V38.46"/>
<path transform="matrix(1,0,0,-1,0,360)" stroke-width=".8" stroke-linecap="butt" stroke-linejoin="round" fill="none" stroke="#000000" d="M141.9605 41.96V38.46"/>
<text xml:space="preserve" transform="matrix(1 0 -0 1 135.60112 332.63377)" font-size="10" font-family="DejaVuSans"><tspan y="0" x="0 6.3600008">10</tspan></text>
<g clip-path="url(#clip_4)">
<path transform="matrix(1,0,0,-1,0,360)" stroke-width=".8" stroke-linecap="butt" stroke-dasharray="2.96,1.28" stroke-linejoin="round" fill="none" stroke="#bebebe" stroke-opacity=".4" d="M215.05326 41.96V333.12"/>
</g>
<path transform="matrix(1,0,0,-1,0,360)" d="M215.05326 41.96V38.46"/>
<path transform="matrix(1,0,0,-1,0,360)" stroke-width=".8" stroke-linecap="butt" stroke-linejoin="round" fill="none" stroke="#000000" d="M215.05326 41.96V38.46"/>
<text xml:space="preserve" transform="matrix(1 0 -0 1 208.69388 332.63377)" font-size="10" font-family="DejaVuSans"><tspan y="0" x="0 6.3600008">20</tspan></text>
<g clip-path="url(#clip_5)">
<path transform="matrix(1,0,0,-1,0,360)" stroke-width=".8" stroke-linecap="butt" stroke-dasharray="2.96,1.28" stroke-linejoin="round" fill="none" stroke="#bebebe" stroke-opacity=".4" d="M288.14604 41.96V333.12"/>
</g>
<path transform="matrix(1,0,0,-1,0,360)" d="M288.14604 41.96V38.46"/>
<path transform="matrix(1,0,0,-1,0,360)" stroke-width=".8" stroke-linecap="butt" stroke-linejoin="round" fill="none" stroke="#000000" d="M288.14604 41.96V38.46"/>
<text xml:space="preserve" transform="matrix(1 0 -0 1 281.78666 332.63377)" font-size="10" font-family="DejaVuSans"><tspan y="0" x="0 6.3600008">30</tspan></text>
<g clip-path="url(#clip_6)">
<path transform="matrix(1,0,0,-1,0,360)" stroke-width=".8" stroke-linecap="butt" stroke-dasharray="2.96,1.28" stroke-linejoin="round" fill="none" stroke="#bebebe" stroke-opacity=".4" d="M361.2388 41.96V333.12"/>
</g>
<path transform="matrix(1,0,0,-1,0,360)" d="M361.2388 41.96V38.46"/>
<path transform="matrix(1,0,0,-1,0,360)" stroke-width=".8" stroke-linecap="butt" stroke-linejoin="round" fill="none" stroke="#000000" d="M361.2388 41.96V38.46"/>
<text xml:space="preserve" transform="matrix(1 0 -0 1 354.8794 332.63377)" font-size="10" font-family="DejaVuSans"><tspan y="0" x="0 6.3600008">40</tspan></text>
<g clip-path="url(#clip_7)">
<path transform="matrix(1,0,0,-1,0,360)" stroke-width=".8" stroke-linecap="butt" stroke-dasharray="2.96,1.28" stroke-linejoin="round" fill="none" stroke="#bebebe" stroke-opacity=".4" d="M434.33155 41.96V333.12"/>
</g>
<path transform="matrix(1,0,0,-1,0,360)" d="M434.33155 41.96V38.46"/>
<path transform="matrix(1,0,0,-1,0,360)" stroke-width=".8" stroke-linecap="butt" stroke-linejoin="round" fill="none" stroke="#000000" d="M434.33155 41.96V38.46"/>
<text xml:space="preserve" transform="matrix(1 0 -0 1 427.97218 332.63377)" font-size="10" font-family="DejaVuSans"><tspan y="0" x="0 6.3600008">50</tspan></text>
<text xml:space="preserve" transform="matrix(1 0 -0 1 232.6325 346.30564)" font-size="10" font-family="DejaVuSans"><tspan y="0" x="0 6.32 12.67 18.79 24.29">Epoch</tspan></text>
<g clip-path="url(#clip_8)">
<path transform="matrix(1,0,0,-1,0,360)" stroke-width=".8" stroke-linecap="butt" stroke-dasharray="2.96,1.28" stroke-linejoin="round" fill="none" stroke="#bebebe" stroke-opacity=".4" d="M50.96 51.352258H444.93"/>
</g>
<path transform="matrix(1,0,0,-1,0,360)" d="M50.96 51.352258H47.46"/>
<path transform="matrix(1,0,0,-1,0,360)" stroke-width=".8" stroke-linecap="butt" stroke-linejoin="round" fill="none" stroke="#000000" d="M50.96 51.352258H47.46"/>
<text xml:space="preserve" transform="matrix(1 0 -0 1 31.24125 312.4446)" font-size="10" font-family="DejaVuSans"><tspan y="0" x="0 6.3600008">60</tspan></text>
<g clip-path="url(#clip_9)">
<path transform="matrix(1,0,0,-1,0,360)" stroke-width=".8" stroke-linecap="butt" stroke-dasharray="2.96,1.28" stroke-linejoin="round" fill="none" stroke="#bebebe" stroke-opacity=".4" d="M50.96 88.92129H444.93"/>
</g>
<path transform="matrix(1,0,0,-1,0,360)" d="M50.96 88.92129H47.46"/>
<path transform="matrix(1,0,0,-1,0,360)" stroke-width=".8" stroke-linecap="butt" stroke-linejoin="round" fill="none" stroke="#000000" d="M50.96 88.92129H47.46"/>
<text xml:space="preserve" transform="matrix(1 0 -0 1 31.24125 274.87559)" font-size="10" font-family="DejaVuSans"><tspan y="0" x="0 6.3600008">80</tspan></text>
<g clip-path="url(#clip_10)">
<path transform="matrix(1,0,0,-1,0,360)" stroke-width=".8" stroke-linecap="butt" stroke-dasharray="2.96,1.28" stroke-linejoin="round" fill="none" stroke="#bebebe" stroke-opacity=".4" d="M50.96 126.490329H444.93"/>
</g>
<path transform="matrix(1,0,0,-1,0,360)" d="M50.96 126.490329H47.46"/>
<path transform="matrix(1,0,0,-1,0,360)" stroke-width=".8" stroke-linecap="butt" stroke-linejoin="round" fill="none" stroke="#000000" d="M50.96 126.490329H47.46"/>
<text xml:space="preserve" transform="matrix(1 0 -0 1 24.881875 237.30655)" font-size="10" font-family="DejaVuSans"><tspan y="0" x="0 6.3600008 12.720001">100</tspan></text>
<g clip-path="url(#clip_11)">
<path transform="matrix(1,0,0,-1,0,360)" stroke-width=".8" stroke-linecap="butt" stroke-dasharray="2.96,1.28" stroke-linejoin="round" fill="none" stroke="#bebebe" stroke-opacity=".4" d="M50.96 164.05936H444.93"/>
</g>
<path transform="matrix(1,0,0,-1,0,360)" d="M50.96 164.05936H47.46"/>
<path transform="matrix(1,0,0,-1,0,360)" stroke-width=".8" stroke-linecap="butt" stroke-linejoin="round" fill="none" stroke="#000000" d="M50.96 164.05936H47.46"/>
<text xml:space="preserve" transform="matrix(1 0 -0 1 24.881875 199.73752)" font-size="10" font-family="DejaVuSans"><tspan y="0" x="0 6.3600008 12.720001">120</tspan></text>
<g clip-path="url(#clip_12)">
<path transform="matrix(1,0,0,-1,0,360)" stroke-width=".8" stroke-linecap="butt" stroke-dasharray="2.96,1.28" stroke-linejoin="round" fill="none" stroke="#bebebe" stroke-opacity=".4" d="M50.96 201.62839H444.93"/>
</g>
<path transform="matrix(1,0,0,-1,0,360)" d="M50.96 201.62839H47.46"/>
<path transform="matrix(1,0,0,-1,0,360)" stroke-width=".8" stroke-linecap="butt" stroke-linejoin="round" fill="none" stroke="#000000" d="M50.96 201.62839H47.46"/>
<text xml:space="preserve" transform="matrix(1 0 -0 1 24.881875 162.16849)" font-size="10" font-family="DejaVuSans"><tspan y="0" x="0 6.3600008 12.720001">140</tspan></text>
<g clip-path="url(#clip_13)">
<path transform="matrix(1,0,0,-1,0,360)" stroke-width=".8" stroke-linecap="butt" stroke-dasharray="2.96,1.28" stroke-linejoin="round" fill="none" stroke="#bebebe" stroke-opacity=".4" d="M50.96 239.19742H444.93"/>
</g>
<path transform="matrix(1,0,0,-1,0,360)" d="M50.96 239.19742H47.46"/>
<path transform="matrix(1,0,0,-1,0,360)" stroke-width=".8" stroke-linecap="butt" stroke-linejoin="round" fill="none" stroke="#000000" d="M50.96 239.19742H47.46"/>
<text xml:space="preserve" transform="matrix(1 0 -0 1 24.881875 124.59946)" font-size="10" font-family="DejaVuSans"><tspan y="0" x="0 6.3600008 12.720001">160</tspan></text>
<g clip-path="url(#clip_14)">
<path transform="matrix(1,0,0,-1,0,360)" stroke-width=".8" stroke-linecap="butt" stroke-dasharray="2.96,1.28" stroke-linejoin="round" fill="none" stroke="#bebebe" stroke-opacity=".4" d="M50.96 276.76646H444.93"/>
</g>
<path transform="matrix(1,0,0,-1,0,360)" d="M50.96 276.76646H47.46"/>
<path transform="matrix(1,0,0,-1,0,360)" stroke-width=".8" stroke-linecap="butt" stroke-linejoin="round" fill="none" stroke="#000000" d="M50.96 276.76646H47.46"/>
<text xml:space="preserve" transform="matrix(1 0 -0 1 24.881875 87.030429)" font-size="10" font-family="DejaVuSans"><tspan y="0" x="0 6.3600008 12.720001">180</tspan></text>
<g clip-path="url(#clip_15)">
<path transform="matrix(1,0,0,-1,0,360)" stroke-width=".8" stroke-linecap="butt" stroke-dasharray="2.96,1.28" stroke-linejoin="round" fill="none" stroke="#bebebe" stroke-opacity=".4" d="M50.96 314.33549H444.93"/>
</g>
<path transform="matrix(1,0,0,-1,0,360)" d="M50.96 314.33549H47.46"/>
<path transform="matrix(1,0,0,-1,0,360)" stroke-width=".8" stroke-linecap="butt" stroke-linejoin="round" fill="none" stroke="#000000" d="M50.96 314.33549H47.46"/>
<text xml:space="preserve" transform="matrix(1 0 -0 1 24.881875 49.461397)" font-size="10" font-family="DejaVuSans"><tspan y="0" x="0 6.3600008 12.720001">200</tspan></text>
<text xml:space="preserve" transform="matrix(0 -1 1 0 18.80375 183.46782)" font-size="10" font-family="DejaVuSans"><tspan y="0" x="0 5.3981258 11.518126 16.728127">Loss</tspan></text>
<g clip-path="url(#clip_16)">
<path transform="matrix(1,0,0,-1,0,360)" stroke-width="1.5" stroke-linecap="square" stroke-linejoin="round" fill="none" stroke="#1f77b4" d="M68.86773 320.21534 76.177 259.79823 83.48628 235.26352 90.795558 226.98949 98.104839 217.55377 105.41411 213.9242 112.72339 209.17252 120.03266 207.3677 127.34194 206.2934 134.65122 200.00168 141.9605 203.65689 149.26978 198.60431 156.57904 199.8361 163.88832 196.57193 171.1976 197.94319 178.50687 198.6563 185.81615 196.5094 193.12543 193.84606 200.43471 194.4075 207.74398 196.45786 215.05326 194.53505 222.36254 191.39476 229.67182 190.81919 236.98108 193.66637 244.29036 190.195 251.59964 190.31912 258.9089 187.79839 266.2182 193.39412 273.52748 190.41107 280.83674 187.92342 288.14604 189.67034 295.4553 187.10483 302.7646 189.24266 310.07386 185.66068 317.38313 184.91294 324.6924 184.1449 332.00169 185.31734 339.31095 186.20978 346.62025 188.40702 353.9295 184.50772 361.2388 185.29343 368.54808 187.41689 375.85734 185.95243 383.16664 184.46738 390.4759 186.22856 397.78517 184.21344 405.09446 183.47843 412.40373 184.44463 419.71299 182.95475 427.02229 184.68022"/>
</g>
<g clip-path="url(#clip_17)">
<path transform="matrix(1,0,0,-1,0,360)" stroke-width="1.5" stroke-linecap="square" stroke-linejoin="round" fill="none" stroke="#ff7f0e" d="M68.86773 255.51895 76.177 220.4123 83.48628 207.41762 90.795558 205.67111 98.104839 198.98433 105.41411 194.12265 112.72339 195.25395 120.03266 192.3086 127.34194 194.68085 134.65122 191.5598 141.9605 189.62998 149.26978 189.86202 156.57904 189.10802 163.88832 187.33856 171.1976 187.63162 178.50687 185.1764 185.81615 186.12068 193.12543 184.98789 200.43471 185.14131 207.74398 185.01192 215.05326 185.26924 222.36254 181.34723 229.67182 180.29477 236.98108 181.66095 244.29036 181.93134 251.59964 179.45455 258.9089 180.12255 266.2182 184.19904 273.52748 184.16313 280.83674 182.47368 288.14604 180.38074 295.4553 181.86142 302.7646 179.7376 310.07386 178.32341 317.38313 181.86174 324.6924 180.29615 332.00169 178.70012 339.31095 179.1399 346.62025 182.22306 353.9295 180.7649 361.2388 179.89284 368.54808 178.62419 375.85734 178.5093 383.16664 181.42729 390.4759 177.46622 397.78517 178.17795 405.09446 180.38852 412.40373 178.18613 419.71299 180.63942 427.02229 180.25995"/>
</g>
<path transform="matrix(1,0,0,-1,0,360)" stroke-width=".8" stroke-linecap="square" stroke-miterlimit="10" stroke-linejoin="miter" fill="none" stroke="#000000" d="M50.96 41.96V333.12"/>
<path transform="matrix(1,0,0,-1,0,360)" stroke-width=".8" stroke-linecap="square" stroke-miterlimit="10" stroke-linejoin="miter" fill="none" stroke="#000000" d="M444.93 41.96V333.12"/>
<path transform="matrix(1,0,0,-1,0,360)" stroke-width=".8" stroke-linecap="square" stroke-miterlimit="10" stroke-linejoin="miter" fill="none" stroke="#000000" d="M50.96 41.96H444.93"/>
<path transform="matrix(1,0,0,-1,0,360)" stroke-width=".8" stroke-linecap="square" stroke-miterlimit="10" stroke-linejoin="miter" fill="none" stroke="#000000" d="M50.96 333.12H444.93"/>
<text xml:space="preserve" transform="matrix(1 0 -0 1 175.67156 20.880005)" font-size="12" font-family="DejaVuSans"><tspan y="0" x="0 7.286125 14.642126 19.574128 22.910128 30.266129 34.97013 38.30613 45.65013 53.258134 60.614133 63.950136 67.766139 75.97414 83.58214 88.28614 95.63014 103.01014 110.61814 117.21814 124.56214 132.18215 139.56215">Variational Autoencoder</tspan></text>
<path transform="matrix(1,0,0,-1,0,360)" d="M459.23 41.96H853.2V333.12H459.23Z" fill="#ffffff"/>
<g clip-path="url(#clip_18)">
<path transform="matrix(1,0,0,-1,0,360)" d="M477.13774 294.40455V279.25108L484.447 185.8376 491.7563 169.90224 499.06556 161.10007 506.37486 152.13294 513.6841 143.34194 520.9934 142.06217 528.3027 146.56041 535.61196 135.87447 542.9212 132.90488 550.23049 134.29212 557.5398 127.213748 564.84909 123.344539 572.1583 128.23043 579.4676 126.16846 586.77688 124.143657 594.0861 119.12955 601.39547 119.41427 608.7047 125.11545 616.014 123.80969 623.32327 126.056758 630.6325 124.251857 637.94186 123.51573 645.2511 124.66807 652.56039 121.90177 659.8696 121.0298 667.1789 116.85261 674.4882 125.00324 681.7975 119.496509 689.10678 124.621219 696.416 124.47226 703.7253 123.2151 711.03457 115.98541 718.3439 116.33735 725.65316 116.87622 732.9624 117.27726 740.27169 117.75478 747.58096 121.45318 754.89028 121.77871 762.1995 119.32744 769.5088 124.235439 776.81808 120.36066 784.1273 112.970958 791.4366 119.010578 798.7459 122.01135 806.0552 115.773609 813.36447 115.99054 820.6737 120.78043 827.983 123.914447 835.2923 111.57448V127.01824L827.983 129.44286 820.6737 128.74863 813.36447 128.93674 806.0552 133.15065 798.7459 125.89847 791.4366 128.26679 784.1273 127.75234 776.81808 128.7292 769.5088 128.86496 762.1995 129.2792 754.89028 125.852718 747.58096 129.2125 740.27169 131.57637 732.9624 129.22698 725.65316 129.37824 718.3439 126.78642 711.03457 122.34754 703.7253 128.74219 696.416 129.23781 689.10678 130.24497 681.7975 129.47139 674.4882 129.74735 667.1789 132.81992 659.8696 129.73627 652.56039 127.256587 645.2511 132.33565 637.94186 131.95709 630.6325 137.91329 623.32327 134.95017 616.014 132.88355 608.7047 130.62538 601.39547 136.99959 594.0861 137.06037 586.77688 137.41083 579.4676 136.82714 572.1583 140.0708 564.84909 137.27957 557.5398 140.95059 550.23049 144.74573 542.9212 147.17464 535.61196 141.82387 528.3027 152.33025 520.9934 157.13399 513.6841 154.99565 506.37486 165.80425 499.06556 166.66996 491.7563 183.92124 484.447 195.8166 477.13774 294.40455Z" fill="#1f77b4" fill-opacity=".1"/>
</g>
<g clip-path="url(#clip_19)">
<path transform="matrix(1,0,0,-1,0,360)" d="M477.13774 194.81087V180.24129L484.447 159.91999 491.7563 149.82816 499.06556 139.0897 506.37486 137.45168 513.6841 130.37957 520.9934 134.23989 528.3027 119.30785 535.61196 123.63216 542.9212 118.98101 550.23049 125.6594 557.5398 123.15751 564.84909 116.6288 572.1583 121.68127 579.4676 117.66545 586.77688 121.727489 594.0861 117.57096 601.39547 119.86315 608.7047 112.01376 616.014 118.80485 623.32327 113.52514 630.6325 119.155979 637.94186 125.02968 645.2511 117.27427 652.56039 115.662349 659.8696 121.24619 667.1789 120.44842 674.4882 118.96787 681.7975 115.82241 689.10678 114.8638 696.416 113.41455 703.7253 125.365 711.03457 110.631099 718.3439 116.82945 725.65316 118.02954 732.9624 115.51414 740.27169 115.088619 747.58096 116.03436 754.89028 117.95286 762.1995 116.96193 769.5088 116.08263 776.81808 115.23201 784.1273 116.09641 791.4366 110.57491 798.7459 115.05786 806.0552 118.97852 813.36447 116.75443 820.6737 115.558948 827.983 115.86431 835.2923 116.748958V125.73955L827.983 122.17833 820.6737 130.19861 813.36447 121.64013 806.0552 128.49999 798.7459 120.93437 791.4366 131.93163 784.1273 126.57593 776.81808 123.952358 769.5088 125.213489 762.1995 129.96051 754.89028 125.06435 747.58096 131.73088 740.27169 127.87087 732.9624 120.9923 725.65316 126.456638 718.3439 124.77167 711.03457 136.50904 703.7253 134.45035 696.416 134.37892 689.10678 123.00208 681.7975 128.75637 674.4882 130.01323 667.1789 126.85162 659.8696 131.09111 652.56039 128.2688 645.2511 131.65029 637.94186 134.08353 630.6325 125.26867 623.32327 133.5554 616.014 125.785037 608.7047 128.96579 601.39547 130.12795 594.0861 140.36945 586.77688 129.96765 579.4676 135.00724 572.1583 128.32099 564.84909 127.24179 557.5398 138.65793 550.23049 140.59737 542.9212 134.36884 535.61196 131.86226 528.3027 135.51212 520.9934 136.88867 513.6841 141.2678 506.37486 147.3551 499.06556 151.63138 491.7563 160.06424 484.447 174.35227 477.13774 194.81087Z" fill="#ff7f0e" fill-opacity=".1"/>
</g>
<g clip-path="url(#clip_20)">
<path transform="matrix(1,0,0,-1,0,360)" stroke-width=".8" stroke-linecap="butt" stroke-dasharray="2.96,1.28" stroke-linejoin="round" fill="none" stroke="#bebebe" stroke-opacity=".4" d="M477.13774 41.96V333.12"/>
</g>
<path transform="matrix(1,0,0,-1,0,360)" d="M477.13774 41.96V38.46"/>
<path transform="matrix(1,0,0,-1,0,360)" stroke-width=".8" stroke-linecap="butt" stroke-linejoin="round" fill="none" stroke="#000000" d="M477.13774 41.96V38.46"/>
<text xml:space="preserve" transform="matrix(1 0 -0 1 473.95805 332.63377)" font-size="10" font-family="DejaVuSans"><tspan y="0" x="0">0</tspan></text>
<g clip-path="url(#clip_21)">
<path transform="matrix(1,0,0,-1,0,360)" stroke-width=".8" stroke-linecap="butt" stroke-dasharray="2.96,1.28" stroke-linejoin="round" fill="none" stroke="#bebebe" stroke-opacity=".4" d="M550.23049 41.96V333.12"/>
</g>
<path transform="matrix(1,0,0,-1,0,360)" d="M550.23049 41.96V38.46"/>
<path transform="matrix(1,0,0,-1,0,360)" stroke-width=".8" stroke-linecap="butt" stroke-linejoin="round" fill="none" stroke="#000000" d="M550.23049 41.96V38.46"/>
<text xml:space="preserve" transform="matrix(1 0 -0 1 543.8711 332.63377)" font-size="10" font-family="DejaVuSans"><tspan y="0" x="0 6.3600008">10</tspan></text>
<g clip-path="url(#clip_22)">
<path transform="matrix(1,0,0,-1,0,360)" stroke-width=".8" stroke-linecap="butt" stroke-dasharray="2.96,1.28" stroke-linejoin="round" fill="none" stroke="#bebebe" stroke-opacity=".4" d="M623.32327 41.96V333.12"/>
</g>
<path transform="matrix(1,0,0,-1,0,360)" d="M623.32327 41.96V38.46"/>
<path transform="matrix(1,0,0,-1,0,360)" stroke-width=".8" stroke-linecap="butt" stroke-linejoin="round" fill="none" stroke="#000000" d="M623.32327 41.96V38.46"/>
<text xml:space="preserve" transform="matrix(1 0 -0 1 616.96389 332.63377)" font-size="10" font-family="DejaVuSans"><tspan y="0" x="0 6.3600008">20</tspan></text>
<g clip-path="url(#clip_23)">
<path transform="matrix(1,0,0,-1,0,360)" stroke-width=".8" stroke-linecap="butt" stroke-dasharray="2.96,1.28" stroke-linejoin="round" fill="none" stroke="#bebebe" stroke-opacity=".4" d="M696.416 41.96V333.12"/>
</g>
<path transform="matrix(1,0,0,-1,0,360)" d="M696.416 41.96V38.46"/>
<path transform="matrix(1,0,0,-1,0,360)" stroke-width=".8" stroke-linecap="butt" stroke-linejoin="round" fill="none" stroke="#000000" d="M696.416 41.96V38.46"/>
<text xml:space="preserve" transform="matrix(1 0 -0 1 690.05667 332.63377)" font-size="10" font-family="DejaVuSans"><tspan y="0" x="0 6.3600008">30</tspan></text>
<g clip-path="url(#clip_24)">
<path transform="matrix(1,0,0,-1,0,360)" stroke-width=".8" stroke-linecap="butt" stroke-dasharray="2.96,1.28" stroke-linejoin="round" fill="none" stroke="#bebebe" stroke-opacity=".4" d="M769.5088 41.96V333.12"/>
</g>
<path transform="matrix(1,0,0,-1,0,360)" d="M769.5088 41.96V38.46"/>
<path transform="matrix(1,0,0,-1,0,360)" stroke-width=".8" stroke-linecap="butt" stroke-linejoin="round" fill="none" stroke="#000000" d="M769.5088 41.96V38.46"/>
<text xml:space="preserve" transform="matrix(1 0 -0 1 763.1494 332.63377)" font-size="10" font-family="DejaVuSans"><tspan y="0" x="0 6.3600008">40</tspan></text>
<g clip-path="url(#clip_25)">
<path transform="matrix(1,0,0,-1,0,360)" stroke-width=".8" stroke-linecap="butt" stroke-dasharray="2.96,1.28" stroke-linejoin="round" fill="none" stroke="#bebebe" stroke-opacity=".4" d="M842.60159 41.96V333.12"/>
</g>
<path transform="matrix(1,0,0,-1,0,360)" d="M842.60159 41.96V38.46"/>
<path transform="matrix(1,0,0,-1,0,360)" stroke-width=".8" stroke-linecap="butt" stroke-linejoin="round" fill="none" stroke="#000000" d="M842.60159 41.96V38.46"/>
<text xml:space="preserve" transform="matrix(1 0 -0 1 836.2422 332.63377)" font-size="10" font-family="DejaVuSans"><tspan y="0" x="0 6.3600008">50</tspan></text>
<text xml:space="preserve" transform="matrix(1 0 -0 1 640.9025 346.30564)" font-size="10" font-family="DejaVuSans"><tspan y="0" x="0 6.32 12.67 18.79 24.29">Epoch</tspan></text>
<g clip-path="url(#clip_26)">
<path transform="matrix(1,0,0,-1,0,360)" stroke-width=".8" stroke-linecap="butt" stroke-dasharray="2.96,1.28" stroke-linejoin="round" fill="none" stroke="#bebebe" stroke-opacity=".4" d="M459.23 51.352258H853.2"/>
</g>
<path transform="matrix(1,0,0,-1,0,360)" d="M459.23 51.352258H455.73"/>
<path transform="matrix(1,0,0,-1,0,360)" stroke-width=".8" stroke-linecap="butt" stroke-linejoin="round" fill="none" stroke="#000000" d="M459.23 51.352258H455.73"/>
<g clip-path="url(#clip_27)">
<path transform="matrix(1,0,0,-1,0,360)" stroke-width=".8" stroke-linecap="butt" stroke-dasharray="2.96,1.28" stroke-linejoin="round" fill="none" stroke="#bebebe" stroke-opacity=".4" d="M459.23 88.92129H853.2"/>
</g>
<path transform="matrix(1,0,0,-1,0,360)" d="M459.23 88.92129H455.73"/>
<path transform="matrix(1,0,0,-1,0,360)" stroke-width=".8" stroke-linecap="butt" stroke-linejoin="round" fill="none" stroke="#000000" d="M459.23 88.92129H455.73"/>
<g clip-path="url(#clip_28)">
<path transform="matrix(1,0,0,-1,0,360)" stroke-width=".8" stroke-linecap="butt" stroke-dasharray="2.96,1.28" stroke-linejoin="round" fill="none" stroke="#bebebe" stroke-opacity=".4" d="M459.23 126.490329H853.2"/>
</g>
<path transform="matrix(1,0,0,-1,0,360)" d="M459.23 126.490329H455.73"/>
<path transform="matrix(1,0,0,-1,0,360)" stroke-width=".8" stroke-linecap="butt" stroke-linejoin="round" fill="none" stroke="#000000" d="M459.23 126.490329H455.73"/>
<g clip-path="url(#clip_29)">
<path transform="matrix(1,0,0,-1,0,360)" stroke-width=".8" stroke-linecap="butt" stroke-dasharray="2.96,1.28" stroke-linejoin="round" fill="none" stroke="#bebebe" stroke-opacity=".4" d="M459.23 164.05936H853.2"/>
</g>
<path transform="matrix(1,0,0,-1,0,360)" d="M459.23 164.05936H455.73"/>
<path transform="matrix(1,0,0,-1,0,360)" stroke-width=".8" stroke-linecap="butt" stroke-linejoin="round" fill="none" stroke="#000000" d="M459.23 164.05936H455.73"/>
<g clip-path="url(#clip_30)">
<path transform="matrix(1,0,0,-1,0,360)" stroke-width=".8" stroke-linecap="butt" stroke-dasharray="2.96,1.28" stroke-linejoin="round" fill="none" stroke="#bebebe" stroke-opacity=".4" d="M459.23 201.62839H853.2"/>
</g>
<path transform="matrix(1,0,0,-1,0,360)" d="M459.23 201.62839H455.73"/>
<path transform="matrix(1,0,0,-1,0,360)" stroke-width=".8" stroke-linecap="butt" stroke-linejoin="round" fill="none" stroke="#000000" d="M459.23 201.62839H455.73"/>
<g clip-path="url(#clip_31)">
<path transform="matrix(1,0,0,-1,0,360)" stroke-width=".8" stroke-linecap="butt" stroke-dasharray="2.96,1.28" stroke-linejoin="round" fill="none" stroke="#bebebe" stroke-opacity=".4" d="M459.23 239.19742H853.2"/>
</g>
<path transform="matrix(1,0,0,-1,0,360)" d="M459.23 239.19742H455.73"/>
<path transform="matrix(1,0,0,-1,0,360)" stroke-width=".8" stroke-linecap="butt" stroke-linejoin="round" fill="none" stroke="#000000" d="M459.23 239.19742H455.73"/>
<g clip-path="url(#clip_32)">
<path transform="matrix(1,0,0,-1,0,360)" stroke-width=".8" stroke-linecap="butt" stroke-dasharray="2.96,1.28" stroke-linejoin="round" fill="none" stroke="#bebebe" stroke-opacity=".4" d="M459.23 276.76646H853.2"/>
</g>
<path transform="matrix(1,0,0,-1,0,360)" d="M459.23 276.76646H455.73"/>
<path transform="matrix(1,0,0,-1,0,360)" stroke-width=".8" stroke-linecap="butt" stroke-linejoin="round" fill="none" stroke="#000000" d="M459.23 276.76646H455.73"/>
<g clip-path="url(#clip_33)">
<path transform="matrix(1,0,0,-1,0,360)" stroke-width=".8" stroke-linecap="butt" stroke-dasharray="2.96,1.28" stroke-linejoin="round" fill="none" stroke="#bebebe" stroke-opacity=".4" d="M459.23 314.33549H853.2"/>
</g>
<path transform="matrix(1,0,0,-1,0,360)" d="M459.23 314.33549H455.73"/>
<path transform="matrix(1,0,0,-1,0,360)" stroke-width=".8" stroke-linecap="butt" stroke-linejoin="round" fill="none" stroke="#000000" d="M459.23 314.33549H455.73"/>
<g clip-path="url(#clip_34)">
<path transform="matrix(1,0,0,-1,0,360)" stroke-width="1.5" stroke-linecap="square" stroke-linejoin="round" fill="none" stroke="#1f77b4" d="M477.13774 286.8278 484.447 190.8271 491.7563 176.91173 499.06556 163.88501 506.37486 158.9686 513.6841 149.1688 520.9934 149.59809 528.3027 149.44533 535.61196 138.84917 542.9212 140.03977 550.23049 139.51892 557.5398 134.08217 564.84909 130.31206 572.1583 134.15062 579.4676 131.49779 586.77688 130.77724 594.0861 128.09496 601.39547 128.20693 608.7047 127.870418 616.014 128.34662 623.32327 130.50347 630.6325 131.08257 637.94186 127.736408 645.2511 128.50186 652.56039 124.57918 659.8696 125.38303 667.1789 124.83626 674.4882 127.37529 681.7975 124.48395 689.10678 127.43309 696.416 126.855037 703.7253 125.978649 711.03457 119.16647 718.3439 121.56188 725.65316 123.127239 732.9624 123.25212 740.27169 124.66557 747.58096 125.33283 754.89028 123.81571 762.1995 124.30332 769.5088 126.55019 776.81808 124.54493 784.1273 120.36165 791.4366 123.63868 798.7459 123.95491 806.0552 124.46213 813.36447 122.463649 820.6737 124.764537 827.983 126.67866 835.2923 119.29636"/>
</g>
<g clip-path="url(#clip_35)">
<path transform="matrix(1,0,0,-1,0,360)" stroke-width="1.5" stroke-linecap="square" stroke-linejoin="round" fill="none" stroke="#ff7f0e" d="M477.13774 187.52608 484.447 167.13613 491.7563 154.9462 499.06556 145.36054 506.37486 142.40338 513.6841 135.82369 520.9934 135.56429 528.3027 127.40999 535.61196 127.74721 542.9212 126.67493 550.23049 133.12839 557.5398 130.90772 564.84909 121.935298 572.1583 125.00112 579.4676 126.33634 586.77688 125.847568 594.0861 128.9702 601.39547 124.99555 608.7047 120.48978 616.014 122.29494 623.32327 123.540279 630.6325 122.212329 637.94186 129.5566 645.2511 124.46228 652.56039 121.96557 659.8696 126.16865 667.1789 123.650028 674.4882 124.490558 681.7975 122.28939 689.10678 118.932949 696.416 123.896739 703.7253 129.90767 711.03457 123.57007 718.3439 120.80056 725.65316 122.24309 732.9624 118.25322 740.27169 121.479747 747.58096 123.88262 754.89028 121.5086 762.1995 123.46122 769.5088 120.648059 776.81808 119.592189 784.1273 121.336177 791.4366 121.25327 798.7459 117.99612 806.0552 123.73926 813.36447 119.19728 820.6737 122.87878 827.983 119.021327 835.2923 121.24425"/>
</g>
<path transform="matrix(1,0,0,-1,0,360)" stroke-width=".8" stroke-linecap="square" stroke-miterlimit="10" stroke-linejoin="miter" fill="none" stroke="#000000" d="M459.23 41.96V333.12"/>
<path transform="matrix(1,0,0,-1,0,360)" stroke-width=".8" stroke-linecap="square" stroke-miterlimit="10" stroke-linejoin="miter" fill="none" stroke="#000000" d="M853.2 41.96V333.12"/>
<path transform="matrix(1,0,0,-1,0,360)" stroke-width=".8" stroke-linecap="square" stroke-miterlimit="10" stroke-linejoin="miter" fill="none" stroke="#000000" d="M459.23 41.96H853.2"/>
<path transform="matrix(1,0,0,-1,0,360)" stroke-width=".8" stroke-linecap="square" stroke-miterlimit="10" stroke-linejoin="miter" fill="none" stroke="#000000" d="M459.23 333.12H853.2"/>
<text xml:space="preserve" transform="matrix(1 0 -0 1 581.9572 20.880005)" font-size="12" font-family="DejaVuSans"><tspan y="0" x="0 8.376 15.720001 23.328001 30.948002 34.284006 38.988008 42.324007 49.668008 57.27601 64.63201 67.96801 71.78401 79.99201 87.60001 92.304019 99.64802 107.028018 114.63602 121.236019 128.58002 136.20001 143.58002">Conditional Autoencoder</tspan></text>
<g>
<path transform="matrix(1,0,0,-1,0,360)" d="M739.575 295.77626H846.2C847.5333 295.77626 848.2 296.44294 848.2 297.77626V326.12C848.2 327.45335 847.5333 328.12 846.2 328.12H739.575C738.24166 328.12 737.575 327.45335 737.575 326.12V297.77626C737.575 296.44294 738.24166 295.77626 739.575 295.77626Z" fill="#ffffff" fill-opacity=".8"/>
<path transform="matrix(1,0,0,-1,0,360)" stroke-width="1" stroke-linecap="butt" stroke-miterlimit="10" stroke-linejoin="miter" fill="none" stroke="#d5d6d5" stroke-opacity=".8" d="M739.575 295.77626H846.2C847.5333 295.77626 848.2 296.44294 848.2 297.77626V326.12C848.2 327.45335 847.5333 328.12 846.2 328.12H739.575C738.24166 328.12 737.575 327.45335 737.575 326.12V297.77626C737.575 296.44294 738.24166 295.77626 739.575 295.77626Z"/>
</g>
<path transform="matrix(1,0,0,-1,0,360)" stroke-width="1.5" stroke-linecap="square" stroke-linejoin="round" fill="none" stroke="#1f77b4" d="M741.575 320.02626H751.575 761.575"/>
<text xml:space="preserve" transform="matrix(1 0 -0 1 769.575 43.473756)" font-size="10" font-family="DejaVuSans"><tspan y="0" x="0 4.64125 8.75125 14.88125 17.661252 24.001252 27.181252 32.579378 38.699377 43.909376">Train Loss</tspan></text>
<path transform="matrix(1,0,0,-1,0,360)" stroke-width="1.5" stroke-linecap="square" stroke-linejoin="round" fill="none" stroke="#ff7f0e" d="M741.575 305.35438H751.575 761.575"/>
<text xml:space="preserve" transform="matrix(1 0 -0 1 769.575 58.14563)" font-size="10" font-family="DejaVuSans"><tspan y="0" x="0 6.074375 12.204375 14.984375 17.764376 24.114377 30.244378 34.164377 36.944375 43.064374 49.404375 52.584375 57.9825 64.1025 69.3125">Validation Loss</tspan></text>
</svg>
