<svg xmlns="http://www.w3.org/2000/svg" xmlns:xlink="http://www.w3.org/1999/xlink" version="1.1" width="864" height="360" viewBox="0 0 864 360">
<defs>
<clipPath id="clip_0">
<path transform="matrix(1,0,0,-1,0,360)" d="M50.96 41.96H444.93V333.12H50.96Z"/>
</clipPath>
<clipPath id="clip_1">
<path transform="matrix(1,0,0,-1,0,360)" d="M50.96 41.96H444.93V333.12H50.96Z"/>
</clipPath>
<clipPath id="clip_2">
<path transform="matrix(1,0,0,-1,0,360)" d="M50.96 41.96H444.93V333.12H50.96Z"/>
</clipPath>
<clipPath id="clip_3">
<path transform="matrix(1,0,0,-1,0,360)" d="M50.96 41.96H444.93V333.12H50.96Z"/>
</clipPath>
<clipPath id="clip_4">
<path transform="matrix(1,0,0,-1,0,360)" d="M50.96 41.96H444.93V333.12H50.96Z"/>
</clipPath>
<clipPath id="clip_5">
<path transform="matrix(1,0,0,-1,0,360)" d="M50.96 41.96H444.93V333.12H50.96Z"/>
</clipPath>
<clipPath id="clip_6">
<path transform="matrix(1,0,0,-1,0,360)" d="M50.96 41.96H444.93V333.12H50.96Z"/>
</clipPath>
<clipPath id="clip_7">
<path transform="matrix(1,0,0,-1,0,360)" d="M50.96 41.96H444.93V333.12H50.96Z"/>
</clipPath>
<clipPath id="clip_8">
<path transform="matrix(1,0,0,-1,0,360)" d="M50.96 41.96H444.93V333.12H50.96Z"/>
</clipPath>
<clipPath id="clip_9">
<path transform="matrix(1,0,0,-1,0,360)" d="M50.96 41.96H444.93V333.12H50.96Z"/>
</clipPath>
<clipPath id="clip_10">
<path transform="matrix(1,0,0,-1,0,360)" d="M50.96 41.96H444.93V333.12H50.96Z"/>
</clipPath>
<clipPath id="clip_11">
<path transform="matrix(1,0,0,-1,0,360)" d="M50.96 41.96H444.93V333.12H50.96Z"/>
</clipPath>
<clipPath id="clip_12">
<path transform="matrix(1,0,0,-1,0,360)" d="M50.96 41.96H444.93V333.12H50.96Z"/>
</clipPath>
<clipPath id="clip_13">
<path transform="matrix(1,0,0,-1,0,360)" d="M50.96 41.96H444.93V333.12H50.96Z"/>
</clipPath>
<clipPath id="clip_14">
<path transform="matrix(1,0,0,-1,0,360)" d="M50.96 41.96H444.93V333.12H50.96Z"/>
</clipPath>
<clipPath id="clip_15">
<path transform="matrix(1,0,0,-1,0,360)" d="M50.96 41.96H444.93V333.12H50.96Z"/>
</clipPath>
<clipPath id="clip_16">
<path transform="matrix(1,0,0,-1,0,360)" d="M50.96 41.96H444.93V333.12H50.96Z"/>
</clipPath>
<clipPath id="clip_17">
<path transform="matrix(1,0,0,-1,0,360)" d="M50.96 41.96H444.93V333.12H50.96Z"/>
</clipPath>
<clipPath id="clip_18">
<path transform="matrix(1,0,0,-1,0,360)" d="M459.23 41.96H853.2V333.12H459.23Z"/>
</clipPath>
<clipPath id="clip_19">
<path transform="matrix(1,0,0,-1,0,360)" d="M459.23 41.96H853.2V333.12H459.23Z"/>
</clipPath>
<clipPath id="clip_20">
<path transform="matrix(1,0,0,-1,0,360)" d="M459.23 41.96H853.2V333.12H459.23Z"/>
</clipPath>
<clipPath id="clip_21">
<path transform="matrix(1,0,0,-1,0,360)" d="M459.23 41.96H853.2V333.12H459.23Z"/>
</clipPath>
<clipPath id="clip_22">
<path transform="matrix(1,0,0,-1,0,360)" d="M459.23 41.96H853.2V333.12H459.23Z"/>
</clipPath>
<clipPath id="clip_23">
<path transform="matrix(1,0,0,-1,0,360)" d="M459.23 41.96H853.2V333.12H459.23Z"/>
</clipPath>
<clipPath id="clip_24">
<path transform="matrix(1,0,0,-1,0,360)" d="M459.23 41.96H853.2V333.12H459.23Z"/>
</clipPath>
<clipPath id="clip_25">
<path transform="matrix(1,0,0,-1,0,360)" d="M459.23 41.96H853.2V333.12H459.23Z"/>
</clipPath>
<clipPath id="clip_26">
<path transform="matrix(1,0,0,-1,0,360)" d="M459.23 41.96H853.2V333.12H459.23Z"/>
</clipPath>
<clipPath id="clip_27">
<path transform="matrix(1,0,0,-1,0,360)" d="M459.23 41.96H853.2V333.12H459.23Z"/>
</clipPath>
<clipPath id="clip_28">
<path transform="matrix(1,0,0,-1,0,360)" d="M459.23 41.96H853.2V333.12H459.23Z"/>
</clipPath>
<clipPath id="clip_29">
<path transform="matrix(1,0,0,-1,0,360)" d="M459.23 41.96H853.2V333.12H459.23Z"/>
</clipPath>
<clipPath id="clip_30">
<path transform="matrix(1,0,0,-1,0,360)" d="M459.23 41.96H853.2V333.12H459.23Z"/>
</clipPath>
<clipPath id="clip_31">
<path transform="matrix(1,0,0,-1,0,360)" d="M459.23 41.96H853.2V333.12H459.23Z"/>
</clipPath>
<clipPath id="clip_32">
<path transform="matrix(1,0,0,-1,0,360)" d="M459.23 41.96H853.2V333.12H459.23Z"/>
</clipPath>
<clipPath id="clip_33">
<path transform="matrix(1,0,0,-1,0,360)" d="M459.23 41.96H853.2V333.12H459.23Z"/>
</clipPath>
<clipPath id="clip_34">
<path transform="matrix(1,0,0,-1,0,360)" d="M459.23 41.96H853.2V333.12H459.23Z"/>
</clipPath>
<clipPath id="clip_35">
<path transform="matrix(1,0,0,-1,0,360)" d="M459.23 41.96H853.2V333.12H459.23Z"/>
</clipPath>
</defs>
<path transform="matrix(1,0,0,-1,0,360)" d="M0 0H864V360H0Z" fill="#ffffff"/>
<path transform="matrix(1,0,0,-1,0,360)" d="M50.96 41.96H444.93V333.12H50.96Z" fill="#ffffff"/>
<g clip-path="url(#clip_0)">
<path transform="matrix(1,0,0,-1,0,360)" d="M68.86773 313.17686V302.1486L76.177 238.34522 83.48628 221.65819 90.795558 214.9005 98.104839 211.49974 105.41411 209.92957 112.72339 202.30925 120.03266 204.82294 127.34194 199.51905 134.65122 200.97205 141.9605 199.30936 149.26978 200.25629 156.57904 198.11547 163.88832 193.95912 171.1976 198.52716 178.50687 195.41889 185.81615 193.30702 193.12543 191.18302 200.43471 190.46161 207.74398 189.48184 215.05326 190.88993 222.36254 189.88701 229.67182 193.2614 236.98108 189.46044 244.29036 187.00373 251.59964 188.18914 258.9089 189.97562 266.2182 190.15763 273.52748 189.48632 280.83674 186.50803 288.14604 186.23863 295.4553 188.47014 302.7646 188.59227 310.07386 187.07006 317.38313 190.33438 324.6924 185.11763 332.00169 186.55452 339.31095 188.50168 346.62025 186.19162 353.9295 186.65312 361.2388 184.66457 368.54808 183.18012 375.85734 190.58535 383.16664 188.39098 390.4759 185.07273 397.78517 185.8205 405.09446 186.86553 412.40373 186.16506 419.71299 187.15053 427.02229 185.2138V189.7713L419.71299 190.88909 412.40373 196.07305 405.09446 192.56037 397.78517 189.48688 390.4759 190.23998 383.16664 193.64443 375.85734 195.74326 368.54808 189.46184 361.2388 190.54708 353.9295 192.23606 346.62025 189.15058 339.31095 193.24735 332.00169 191.50159 324.6924 192.63988 317.38313 195.45403 310.07386 193.72562 302.7646 194.2286 295.4553 192.08325 288.14604 192.56623 280.83674 191.82932 273.52748 191.43732 266.2182 192.3033 258.9089 195.01706 251.59964 196.41909 244.29036 195.9711 236.98108 194.49771 229.67182 196.10378 222.36254 194.6557 215.05326 195.08303 207.74398 201.11765 200.43471 196.00313 193.12543 198.81723 185.81615 202.1683 178.50687 197.34154 171.1976 203.17488 163.88832 197.94702 156.57904 201.22385 149.26978 203.45919 141.9605 206.6189 134.65122 206.7334 127.34194 205.08405 120.03266 210.1777 112.72339 210.86769 105.41411 212.06845 98.104839 218.3387 90.795558 221.79253 83.48628 229.47972 76.177 243.2792 68.86773 313.17686Z" fill="#1f77b4" fill-opacity=".1"/>
</g>
<g clip-path="url(#clip_1)">
<path transform="matrix(1,0,0,-1,0,360)" d="M68.86773 230.89897V222.96723L76.177 203.97158 83.48628 197.82862 90.795558 192.93103 98.104839 192.3552 105.41411 192.7225 112.72339 191.31502 120.03266 187.92296 127.34194 190.60701 134.65122 186.04119 141.9605 184.3754 149.26978 185.52535 156.57904 185.0024 163.88832 181.99367 171.1976 187.59842 178.50687 184.80461 185.81615 182.57166 193.12543 181.94545 200.43471 180.35355 207.74398 181.14633 215.05326 181.99788 222.36254 183.44338 229.67182 180.80274 236.98108 182.00452 244.29036 184.13599 251.59964 182.68064 258.9089 178.8612 266.2182 180.11438 273.52748 181.62584 280.83674 182.33621 288.14604 177.55905 295.4553 179.77156 302.7646 182.428 310.07386 182.86859 317.38313 182.5793 324.6924 177.78437 332.00169 178.67504 339.31095 179.85546 346.62025 178.01172 353.9295 175.79062 361.2388 176.37886 368.54808 177.60051 375.85734 180.57309 383.16664 178.44599 390.4759 178.40885 397.78517 180.36655 405.09446 176.02323 412.40373 180.57445 419.71299 177.87905 427.02229 180.03609V184.26313L419.71299 181.73828 412.40373 183.5924 405.09446 181.6578 397.78517 186.57396 390.4759 180.57993 383.16664 184.01366 375.85734 183.91977 368.54808 181.7815 361.2388 185.68158 353.9295 184.61183 346.62025 183.6148 339.31095 183.23938 332.00169 186.62837 324.6924 181.41497 317.38313 188.36098 310.07386 186.25649 302.7646 186.54788 295.4553 186.13922 288.14604 182.7518 280.83674 187.56047 273.52748 187.11463 266.2182 185.94553 258.9089 187.47194 251.59964 189.90392 244.29036 187.39809 236.98108 186.79325 229.67182 190.15712 222.36254 184.57656 215.05326 191.15004 207.74398 187.92531 200.43471 188.26465 193.12543 189.53586 185.81615 188.24875 178.50687 189.59896 171.1976 191.66861 163.88832 191.01523 156.57904 190.40624 149.26978 190.98342 141.9605 193.34899 134.65122 194.29102 127.34194 192.91364 120.03266 197.79708 112.72339 202.17655 105.41411 198.6693 98.104839 208.22606 90.795558 199.8233 83.48628 205.21294 76.177 213.98738 68.86773 230.89897Z" fill="#ff7f0e" fill-opacity=".1"/>
</g>
<g clip-path="url(#clip_2)">
<path transform="matrix(1,0,0,-1,0,360)" stroke-width=".8" stroke-linecap="butt" stroke-dasharray="2.96,1.28" stroke-linejoin="round" fill="none" stroke="#bebebe" stroke-opacity=".4" d="M68.86773 41.96V333.12"/>
</g>
<path transform="matrix(1,0,0,-1,0,360)" d="M68.86773 41.96V38.46"/>
<path transform="matrix(1,0,0,-1,0,360)" stroke-width=".8" stroke-linecap="butt" stroke-linejoin="round" fill="none" stroke="#000000" d="M68.86773 41.96V38.46"/>
<text xml:space="preserve" transform="matrix(1 0 -0 1 65.68804 332.63377)" font-size="10" font-family="DejaVuSans"><tspan y="0" x="0">0</tspan></text>
<g clip-path="url(#clip_3)">
<path transform="matrix(1,0,0,-1,0,360)" stroke-width=".8" stroke-linecap="butt" stroke-dasharray="2.96,1.28" stroke-linejoin="round" fill="none" stroke="#bebebe" stroke-opacity=".4" d="M141.9605 41.96V333.12"/>
</g>
<path transform="matrix(1,0,0,-1,0,360)" d="M141.9605 41.96V38.46"/>
<path transform="matrix(1,0,0,-1,0,360)" stroke-width=".8" stroke-linecap="butt" stroke-linejoin="round" fill="none" stroke="#000000" d="M141.9605 41.96V38.46"/>
<text xml:space="preserve" transform="matrix(1 0 -0 1 135.60112 332.63377)" font-size="10" font-family="DejaVuSans"><tspan y="0" x="0 6.3600008">10</tspan></text>
<g clip-path="url(#clip_4)">
<path transform="matrix(1,0,0,-1,0,360)" stroke-width=".8" stroke-linecap="butt" stroke-dasharray="2.96,1.28" stroke-linejoin="round" fill="none" stroke="#bebebe" stroke-opacity=".4" d="M215.05326 41.96V333.12"/>
</g>
<path transform="matrix(1,0,0,-1,0,360)" d="M215.05326 41.96V38.46"/>
<path transform="matrix(1,0,0,-1,0,360)" stroke-width=".8" stroke-linecap="butt" stroke-linejoin="round" fill="none" stroke="#000000" d="M215.05326 41.96V38.46"/>
<text xml:space="preserve" transform="matrix(1 0 -0 1 208.69388 332.63377)" font-size="10" font-family="DejaVuSans"><tspan y="0" x="0 6.3600008">20</tspan></text>
<g clip-path="url(#clip_5)">
<path transform="matrix(1,0,0,-1,0,360)" stroke-width=".8" stroke-linecap="butt" stroke-dasharray="2.96,1.28" stroke-linejoin="round" fill="none" stroke="#bebebe" stroke-opacity=".4" d="M288.14604 41.96V333.12"/>
</g>
<path transform="matrix(1,0,0,-1,0,360)" d="M288.14604 41.96V38.46"/>
<path transform="matrix(1,0,0,-1,0,360)" stroke-width=".8" stroke-linecap="butt" stroke-linejoin="round" fill="none" stroke="#000000" d="M288.14604 41.96V38.46"/>
<text xml:space="preserve" transform="matrix(1 0 -0 1 281.78666 332.63377)" font-size="10" font-family="DejaVuSans"><tspan y="0" x="0 6.3600008">30</tspan></text>
<g clip-path="url(#clip_6)">
<path transform="matrix(1,0,0,-1,0,360)" stroke-width=".8" stroke-linecap="butt" stroke-dasharray="2.96,1.28" stroke-linejoin="round" fill="none" stroke="#bebebe" stroke-opacity=".4" d="M361.2388 41.96V333.12"/>
</g>
<path transform="matrix(1,0,0,-1,0,360)" d="M361.2388 41.96V38.46"/>
<path transform="matrix(1,0,0,-1,0,360)" stroke-width=".8" stroke-linecap="butt" stroke-linejoin="round" fill="none" stroke="#000000" d="M361.2388 41.96V38.46"/>
<text xml:space="preserve" transform="matrix(1 0 -0 1 354.8794 332.63377)" font-size="10" font-family="DejaVuSans"><tspan y="0" x="0 6.3600008">40</tspan></text>
<g clip-path="url(#clip_7)">
<path transform="matrix(1,0,0,-1,0,360)" stroke-width=".8" stroke-linecap="butt" stroke-dasharray="2.96,1.28" stroke-linejoin="round" fill="none" stroke="#bebebe" stroke-opacity=".4" d="M434.33155 41.96V333.12"/>
</g>
<path transform="matrix(1,0,0,-1,0,360)" d="M434.33155 41.96V38.46"/>
<path transform="matrix(1,0,0,-1,0,360)" stroke-width=".8" stroke-linecap="butt" stroke-linejoin="round" fill="none" stroke="#000000" d="M434.33155 41.96V38.46"/>
<text xml:space="preserve" transform="matrix(1 0 -0 1 427.97218 332.63377)" font-size="10" font-family="DejaVuSans"><tspan y="0" x="0 6.3600008">50</tspan></text>
<text xml:space="preserve" transform="matrix(1 0 -0 1 232.6325 346.30564)" font-size="10" font-family="DejaVuSans"><tspan y="0" x="0 6.32 12.67 18.79 24.29">Epoch</tspan></text>
<g clip-path="url(#clip_8)">
<path transform="matrix(1,0,0,-1,0,360)" stroke-width=".8" stroke-linecap="butt" stroke-dasharray="2.96,1.28" stroke-linejoin="round" fill="none" stroke="#bebebe" stroke-opacity=".4" d="M50.96 51.352258H444.93"/>
</g>
<path transform="matrix(1,0,0,-1,0,360)" d="M50.96 51.352258H47.46"/>
<path transform="matrix(1,0,0,-1,0,360)" stroke-width=".8" stroke-linecap="butt" stroke-linejoin="round" fill="none" stroke="#000000" d="M50.96 51.352258H47.46"/>
<text xml:space="preserve" transform="matrix(1 0 -0 1 31.24125 312.4446)" font-size="10" font-family="DejaVuSans"><tspan y="0" x="0 6.3600008">60</tspan></text>
<g clip-path="url(#clip_9)">
<path transform="matrix(1,0,0,-1,0,360)" stroke-width=".8" stroke-linecap="butt" stroke-dasharray="2.96,1.28" stroke-linejoin="round" fill="none" stroke="#bebebe" stroke-opacity=".4" d="M50.96 88.92129H444.93"/>
</g>
<path transform="matrix(1,0,0,-1,0,360)" d="M50.96 88.92129H47.46"/>
<path transform="matrix(1,0,0,-1,0,360)" stroke-width=".8" stroke-linecap="butt" stroke-linejoin="round" fill="none" stroke="#000000" d="M50.96 88.92129H47.46"/>
<text xml:space="preserve" transform="matrix(1 0 -0 1 31.24125 274.87559)" font-size="10" font-family="DejaVuSans"><tspan y="0" x="0 6.3600008">80</tspan></text>
<g clip-path="url(#clip_10)">
<path transform="matrix(1,0,0,-1,0,360)" stroke-width=".8" stroke-linecap="butt" stroke-dasharray="2.96,1.28" stroke-linejoin="round" fill="none" stroke="#bebebe" stroke-opacity=".4" d="M50.96 126.490329H444.93"/>
</g>
<path transform="matrix(1,0,0,-1,0,360)" d="M50.96 126.490329H47.46"/>
<path transform="matrix(1,0,0,-1,0,360)" stroke-width=".8" stroke-linecap="butt" stroke-linejoin="round" fill="none" stroke="#000000" d="M50.96 126.490329H47.46"/>
<text xml:space="preserve" transform="matrix(1 0 -0 1 24.881875 237.30655)" font-size="10" font-family="DejaVuSans"><tspan y="0" x="0 6.3600008 12.720001">100</tspan></text>
<g clip-path="url(#clip_11)">
<path transform="matrix(1,0,0,-1,0,360)" stroke-width=".8" stroke-linecap="butt" stroke-dasharray="2.96,1.28" stroke-linejoin="round" fill="none" stroke="#bebebe" stroke-opacity=".4" d="M50.96 164.05936H444.93"/>
</g>
<path transform="matrix(1,0,0,-1,0,360)" d="M50.96 164.05936H47.46"/>
<path transform="matrix(1,0,0,-1,0,360)" stroke-width=".8" stroke-linecap="butt" stroke-linejoin="round" fill="none" stroke="#000000" d="M50.96 164.05936H47.46"/>
<text xml:space="preserve" transform="matrix(1 0 -0 1 24.881875 199.73752)" font-size="10" font-family="DejaVuSans"><tspan y="0" x="0 6.3600008 12.720001">120</tspan></text>
<g clip-path="url(#clip_12)">
<path transform="matrix(1,0,0,-1,0,360)" stroke-width=".8" stroke-linecap="butt" stroke-dasharray="2.96,1.28" stroke-linejoin="round" fill="none" stroke="#bebebe" stroke-opacity=".4" d="M50.96 201.62839H444.93"/>
</g>
<path transform="matrix(1,0,0,-1,0,360)" d="M50.96 201.62839H47.46"/>
<path transform="matrix(1,0,0,-1,0,360)" stroke-width=".8" stroke-linecap="butt" stroke-linejoin="round" fill="none" stroke="#000000" d="M50.96 201.62839H47.46"/>
<text xml:space="preserve" transform="matrix(1 0 -0 1 24.881875 162.16849)" font-size="10" font-family="DejaVuSans"><tspan y="0" x="0 6.3600008 12.720001">140</tspan></text>
<g clip-path="url(#clip_13)">
<path transform="matrix(1,0,0,-1,0,360)" stroke-width=".8" stroke-linecap="butt" stroke-dasharray="2.96,1.28" stroke-linejoin="round" fill="none" stroke="#bebebe" stroke-opacity=".4" d="M50.96 239.19742H444.93"/>
</g>
<path transform="matrix(1,0,0,-1,0,360)" d="M50.96 239.19742H47.46"/>
<path transform="matrix(1,0,0,-1,0,360)" stroke-width=".8" stroke-linecap="butt" stroke-linejoin="round" fill="none" stroke="#000000" d="M50.96 239.19742H47.46"/>
<text xml:space="preserve" transform="matrix(1 0 -0 1 24.881875 124.59946)" font-size="10" font-family="DejaVuSans"><tspan y="0" x="0 6.3600008 12.720001">160</tspan></text>
<g clip-path="url(#clip_14)">
<path transform="matrix(1,0,0,-1,0,360)" stroke-width=".8" stroke-linecap="butt" stroke-dasharray="2.96,1.28" stroke-linejoin="round" fill="none" stroke="#bebebe" stroke-opacity=".4" d="M50.96 276.76646H444.93"/>
</g>
<path transform="matrix(1,0,0,-1,0,360)" d="M50.96 276.76646H47.46"/>
<path transform="matrix(1,0,0,-1,0,360)" stroke-width=".8" stroke-linecap="butt" stroke-linejoin="round" fill="none" stroke="#000000" d="M50.96 276.76646H47.46"/>
<text xml:space="preserve" transform="matrix(1 0 -0 1 24.881875 87.030429)" font-size="10" font-family="DejaVuSans"><tspan y="0" x="0 6.3600008 12.720001">180</tspan></text>
<g clip-path="url(#clip_15)">
<path transform="matrix(1,0,0,-1,0,360)" stroke-width=".8" stroke-linecap="butt" stroke-dasharray="2.96,1.28" stroke-linejoin="round" fill="none" stroke="#bebebe" stroke-opacity=".4" d="M50.96 314.33549H444.93"/>
</g>
<path transform="matrix(1,0,0,-1,0,360)" d="M50.96 314.33549H47.46"/>
<path transform="matrix(1,0,0,-1,0,360)" stroke-width=".8" stroke-linecap="butt" stroke-linejoin="round" fill="none" stroke="#000000" d="M50.96 314.33549H47.46"/>
<text xml:space="preserve" transform="matrix(1 0 -0 1 24.881875 49.461397)" font-size="10" font-family="DejaVuSans"><tspan y="0" x="0 6.3600008 12.720001">200</tspan></text>
<text xml:space="preserve" transform="matrix(0 -1 1 0 18.80375 183.46782)" font-size="10" font-family="DejaVuSans"><tspan y="0" x="0 5.3981258 11.518126 16.728127">Loss</tspan></text>
<g clip-path="url(#clip_16)">
<path transform="matrix(1,0,0,-1,0,360)" stroke-width="1.5" stroke-linecap="square" stroke-linejoin="round" fill="none" stroke="#1f77b4" d="M68.86773 307.66273 76.177 240.81221 83.48628 225.56896 90.795558 218.34651 98.104839 214.91922 105.41411 210.99901 112.72339 206.58847 120.03266 207.50032 127.34194 202.30155 134.65122 203.85272 141.9605 202.96413 149.26978 201.85773 156.57904 199.66965 163.88832 195.95308 171.1976 200.85103 178.50687 196.38022 185.81615 197.73767 193.12543 195.00012 200.43471 193.23236 207.74398 195.29975 215.05326 192.98647 222.36254 192.27136 229.67182 194.68259 236.98108 191.97908 244.29036 191.48741 251.59964 192.30411 258.9089 192.49634 266.2182 191.23046 273.52748 190.46183 280.83674 189.16867 288.14604 189.40244 295.4553 190.27669 302.7646 191.41045 310.07386 190.39785 317.38313 192.8942 324.6924 188.87876 332.00169 189.02806 339.31095 190.87451 346.62025 187.6711 353.9295 189.44458 361.2388 187.60582 368.54808 186.32099 375.85734 193.1643 383.16664 191.0177 390.4759 187.65636 397.78517 187.65369 405.09446 189.71295 412.40373 191.11905 419.71299 189.0198 427.02229 187.49256"/>
</g>
<g clip-path="url(#clip_17)">
<path transform="matrix(1,0,0,-1,0,360)" stroke-width="1.5" stroke-linecap="square" stroke-linejoin="round" fill="none" stroke="#ff7f0e" d="M68.86773 226.93309 76.177 208.97948 83.48628 201.52079 90.795558 196.37717 98.104839 200.29062 105.41411 195.6959 112.72339 196.74579 120.03266 192.86002 127.34194 191.76032 134.65122 190.1661 141.9605 188.86219 149.26978 188.25438 156.57904 187.70432 163.88832 186.50446 171.1976 189.63352 178.50687 187.20178 185.81615 185.4102 193.12543 185.74066 200.43471 184.3091 207.74398 184.53582 215.05326 186.57396 222.36254 184.00997 229.67182 185.47994 236.98108 184.39888 244.29036 185.76703 251.59964 186.29227 258.9089 183.16658 266.2182 183.02996 273.52748 184.37024 280.83674 184.94835 288.14604 180.15543 295.4553 182.95539 302.7646 184.48795 310.07386 184.56253 317.38313 185.47014 324.6924 179.59967 332.00169 182.6517 339.31095 181.54741 346.62025 180.81327 353.9295 180.20122 361.2388 181.03022 368.54808 179.691 375.85734 182.24643 383.16664 181.22983 390.4759 179.49439 397.78517 183.47025 405.09446 178.84052 412.40373 182.08342 419.71299 179.80867 427.02229 182.1496"/>
</g>
<path transform="matrix(1,0,0,-1,0,360)" stroke-width=".8" stroke-linecap="square" stroke-miterlimit="10" stroke-linejoin="miter" fill="none" stroke="#000000" d="M50.96 41.96V333.12"/>
<path transform="matrix(1,0,0,-1,0,360)" stroke-width=".8" stroke-linecap="square" stroke-miterlimit="10" stroke-linejoin="miter" fill="none" stroke="#000000" d="M444.93 41.96V333.12"/>
<path transform="matrix(1,0,0,-1,0,360)" stroke-width=".8" stroke-linecap="square" stroke-miterlimit="10" stroke-linejoin="miter" fill="none" stroke="#000000" d="M50.96 41.96H444.93"/>
<path transform="matrix(1,0,0,-1,0,360)" stroke-width=".8" stroke-linecap="square" stroke-miterlimit="10" stroke-linejoin="miter" fill="none" stroke="#000000" d="M50.96 333.12H444.93"/>
<text xml:space="preserve" transform="matrix(1 0 -0 1 175.67156 20.880005)" font-size="12" font-family="DejaVuSans"><tspan y="0" x="0 7.286125 14.642126 19.574128 22.910128 30.266129 34.97013 38.30613 45.65013 53.258134 60.614133 63.950136 67.766139 75.97414 83.58214 88.28614 95.63014 103.01014 110.61814 117.21814 124.56214 132.18215 139.56215">Variational Autoencoder</tspan></text>
<path transform="matrix(1,0,0,-1,0,360)" d="M459.23 41.96H853.2V333.12H459.23Z" fill="#ffffff"/>
<g clip-path="url(#clip_18)">
<path transform="matrix(1,0,0,-1,0,360)" d="M477.13774 288.97709V271.65043L484.447 190.93733 491.7563 176.31249 499.06556 168.67652 506.37486 163.179 513.6841 162.75171 520.9934 157.49494 528.3027 156.07619 535.61196 155.98528 542.9212 156.325 550.23049 153.63144 557.5398 158.46306 564.84909 154.549 572.1583 150.97473 579.4676 152.958 586.77688 150.61249 594.0861 152.04987 601.39547 150.27808 608.7047 148.37963 616.014 146.73183 623.32327 146.65834 630.6325 144.87616 637.94186 148.32224 645.2511 149.10782 652.56039 147.59366 659.8696 145.21874 667.1789 146.01746 674.4882 149.76216 681.7975 146.85816 689.10678 145.4777 696.416 147.30696 703.7253 145.07645 711.03457 145.07567 718.3439 146.92835 725.65316 141.3634 732.9624 144.16559 740.27169 144.64337 747.58096 142.11869 754.89028 145.4923 762.1995 144.16652 769.5088 144.65639 776.81808 144.60652 784.1273 142.90193 791.4366 145.63997 798.7459 144.69936 806.0552 147.41681 813.36447 142.31972 820.6737 141.4903 827.983 147.74172 835.2923 143.34664V150.04994L827.983 150.53485 820.6737 150.1074 813.36447 151.64685 806.0552 153.61067 798.7459 153.51709 791.4366 148.26245 784.1273 148.7213 776.81808 150.75698 769.5088 153.24097 762.1995 148.37882 754.89028 148.16422 747.58096 150.24715 740.27169 151.08205 732.9624 148.62924 725.65316 148.06267 718.3439 152.91117 711.03457 153.8231 703.7253 150.75896 696.416 150.79315 689.10678 151.60974 681.7975 153.69539 674.4882 156.2847 667.1789 154.48258 659.8696 155.14508 652.56039 152.22879 645.2511 154.20932 637.94186 157.52027 630.6325 152.74723 623.32327 154.75464 616.014 154.92617 608.7047 156.82389 601.39547 158.30463 594.0861 156.1639 586.77688 156.02227 579.4676 158.56627 572.1583 160.01645 564.84909 160.54792 557.5398 161.84156 550.23049 160.72887 542.9212 160.02742 535.61196 161.7199 528.3027 167.16793 520.9934 166.7154 513.6841 165.85082 506.37486 172.65126 499.06556 173.06655 491.7563 184.88356 484.447 197.21073 477.13774 288.97709Z" fill="#1f77b4" fill-opacity=".1"/>
</g>
<g clip-path="url(#clip_19)">
<path transform="matrix(1,0,0,-1,0,360)" d="M477.13774 191.41384V177.9729L484.447 167.1535 491.7563 160.63466 499.06556 153.93534 506.37486 154.40653 513.6841 154.00835 520.9934 149.98964 528.3027 149.18604 535.61196 147.28952 542.9212 145.69705 550.23049 149.52484 557.5398 148.17848 564.84909 143.63455 572.1583 144.45354 579.4676 147.85634 586.77688 144.50472 594.0861 150.78694 601.39547 144.93299 608.7047 148.88947 616.014 142.3322 623.32327 142.40554 630.6325 145.35932 637.94186 138.5643 645.2511 146.57529 652.56039 145.13246 659.8696 145.55939 667.1789 144.69443 674.4882 140.41484 681.7975 143.10958 689.10678 147.11437 696.416 145.69359 703.7253 146.54212 711.03457 143.68747 718.3439 144.9953 725.65316 145.24326 732.9624 142.36454 740.27169 143.59792 747.58096 145.5257 754.89028 144.41236 762.1995 139.83394 769.5088 144.04103 776.81808 142.12537 784.1273 142.81456 791.4366 143.40537 798.7459 143.42963 806.0552 148.49236 813.36447 144.29967 820.6737 142.71564 827.983 141.84949 835.2923 141.10214V149.93231L827.983 155.77767 820.6737 154.18497 813.36447 152.93224 806.0552 158.53914 798.7459 152.65256 791.4366 153.2889 784.1273 143.19156 776.81808 150.12796 769.5088 152.43413 762.1995 154.06145 754.89028 152.38542 747.58096 151.56462 740.27169 149.55762 732.9624 146.54294 725.65316 150.16785 718.3439 155.80918 711.03457 151.36804 703.7253 152.41887 696.416 153.1365 689.10678 154.19718 681.7975 152.89102 674.4882 148.65518 667.1789 150.08176 659.8696 152.34833 652.56039 150.31465 645.2511 148.04369 637.94186 155.29984 630.6325 150.60675 623.32327 152.29721 616.014 153.83919 608.7047 158.16306 601.39547 155.00455 594.0861 158.51905 586.77688 154.27075 579.4676 150.4222 572.1583 153.78969 564.84909 153.25746 557.5398 154.9477 550.23049 156.17412 542.9212 156.55736 535.61196 157.49195 528.3027 156.31235 520.9934 158.45183 513.6841 157.9104 506.37486 164.90267 499.06556 162.38231 491.7563 168.99199 484.447 172.63442 477.13774 191.41384Z" fill="#ff7f0e" fill-opacity=".1"/>
</g>
<g clip-path="url(#clip_20)">
<path transform="matrix(1,0,0,-1,0,360)" stroke-width=".8" stroke-linecap="butt" stroke-dasharray="2.96,1.28" stroke-linejoin="round" fill="none" stroke="#bebebe" stroke-opacity=".4" d="M477.13774 41.96V333.12"/>
</g>
<path transform="matrix(1,0,0,-1,0,360)" d="M477.13774 41.96V38.46"/>
<path transform="matrix(1,0,0,-1,0,360)" stroke-width=".8" stroke-linecap="butt" stroke-linejoin="round" fill="none" stroke="#000000" d="M477.13774 41.96V38.46"/>
<text xml:space="preserve" transform="matrix(1 0 -0 1 473.95805 332.63377)" font-size="10" font-family="DejaVuSans"><tspan y="0" x="0">0</tspan></text>
<g clip-path="url(#clip_21)">
<path transform="matrix(1,0,0,-1,0,360)" stroke-width=".8" stroke-linecap="butt" stroke-dasharray="2.96,1.28" stroke-linejoin="round" fill="none" stroke="#bebebe" stroke-opacity=".4" d="M550.23049 41.96V333.12"/>
</g>
<path transform="matrix(1,0,0,-1,0,360)" d="M550.23049 41.96V38.46"/>
<path transform="matrix(1,0,0,-1,0,360)" stroke-width=".8" stroke-linecap="butt" stroke-linejoin="round" fill="none" stroke="#000000" d="M550.23049 41.96V38.46"/>
<text xml:space="preserve" transform="matrix(1 0 -0 1 543.8711 332.63377)" font-size="10" font-family="DejaVuSans"><tspan y="0" x="0 6.3600008">10</tspan></text>
<g clip-path="url(#clip_22)">
<path transform="matrix(1,0,0,-1,0,360)" stroke-width=".8" stroke-linecap="butt" stroke-dasharray="2.96,1.28" stroke-linejoin="round" fill="none" stroke="#bebebe" stroke-opacity=".4" d="M623.32327 41.96V333.12"/>
</g>
<path transform="matrix(1,0,0,-1,0,360)" d="M623.32327 41.96V38.46"/>
<path transform="matrix(1,0,0,-1,0,360)" stroke-width=".8" stroke-linecap="butt" stroke-linejoin="round" fill="none" stroke="#000000" d="M623.32327 41.96V38.46"/>
<text xml:space="preserve" transform="matrix(1 0 -0 1 616.96389 332.63377)" font-size="10" font-family="DejaVuSans"><tspan y="0" x="0 6.3600008">20</tspan></text>
<g clip-path="url(#clip_23)">
<path transform="matrix(1,0,0,-1,0,360)" stroke-width=".8" stroke-linecap="butt" stroke-dasharray="2.96,1.28" stroke-linejoin="round" fill="none" stroke="#bebebe" stroke-opacity=".4" d="M696.416 41.96V333.12"/>
</g>
<path transform="matrix(1,0,0,-1,0,360)" d="M696.416 41.96V38.46"/>
<path transform="matrix(1,0,0,-1,0,360)" stroke-width=".8" stroke-linecap="butt" stroke-linejoin="round" fill="none" stroke="#000000" d="M696.416 41.96V38.46"/>
<text xml:space="preserve" transform="matrix(1 0 -0 1 690.05667 332.63377)" font-size="10" font-family="DejaVuSans"><tspan y="0" x="0 6.3600008">30</tspan></text>
<g clip-path="url(#clip_24)">
<path transform="matrix(1,0,0,-1,0,360)" stroke-width=".8" stroke-linecap="butt" stroke-dasharray="2.96,1.28" stroke-linejoin="round" fill="none" stroke="#bebebe" stroke-opacity=".4" d="M769.5088 41.96V333.12"/>
</g>
<path transform="matrix(1,0,0,-1,0,360)" d="M769.5088 41.96V38.46"/>
<path transform="matrix(1,0,0,-1,0,360)" stroke-width=".8" stroke-linecap="butt" stroke-linejoin="round" fill="none" stroke="#000000" d="M769.5088 41.96V38.46"/>
<text xml:space="preserve" transform="matrix(1 0 -0 1 763.1494 332.63377)" font-size="10" font-family="DejaVuSans"><tspan y="0" x="0 6.3600008">40</tspan></text>
<g clip-path="url(#clip_25)">
<path transform="matrix(1,0,0,-1,0,360)" stroke-width=".8" stroke-linecap="butt" stroke-dasharray="2.96,1.28" stroke-linejoin="round" fill="none" stroke="#bebebe" stroke-opacity=".4" d="M842.60159 41.96V333.12"/>
</g>
<path transform="matrix(1,0,0,-1,0,360)" d="M842.60159 41.96V38.46"/>
<path transform="matrix(1,0,0,-1,0,360)" stroke-width=".8" stroke-linecap="butt" stroke-linejoin="round" fill="none" stroke="#000000" d="M842.60159 41.96V38.46"/>
<text xml:space="preserve" transform="matrix(1 0 -0 1 836.2422 332.63377)" font-size="10" font-family="DejaVuSans"><tspan y="0" x="0 6.3600008">50</tspan></text>
<text xml:space="preserve" transform="matrix(1 0 -0 1 640.9025 346.30564)" font-size="10" font-family="DejaVuSans"><tspan y="0" x="0 6.32 12.67 18.79 24.29">Epoch</tspan></text>
<g clip-path="url(#clip_26)">
<path transform="matrix(1,0,0,-1,0,360)" stroke-width=".8" stroke-linecap="butt" stroke-dasharray="2.96,1.28" stroke-linejoin="round" fill="none" stroke="#bebebe" stroke-opacity=".4" d="M459.23 51.352258H853.2"/>
</g>
<path transform="matrix(1,0,0,-1,0,360)" d="M459.23 51.352258H455.73"/>
<path transform="matrix(1,0,0,-1,0,360)" stroke-width=".8" stroke-linecap="butt" stroke-linejoin="round" fill="none" stroke="#000000" d="M459.23 51.352258H455.73"/>
<g clip-path="url(#clip_27)">
<path transform="matrix(1,0,0,-1,0,360)" stroke-width=".8" stroke-linecap="butt" stroke-dasharray="2.96,1.28" stroke-linejoin="round" fill="none" stroke="#bebebe" stroke-opacity=".4" d="M459.23 88.92129H853.2"/>
</g>
<path transform="matrix(1,0,0,-1,0,360)" d="M459.23 88.92129H455.73"/>
<path transform="matrix(1,0,0,-1,0,360)" stroke-width=".8" stroke-linecap="butt" stroke-linejoin="round" fill="none" stroke="#000000" d="M459.23 88.92129H455.73"/>
<g clip-path="url(#clip_28)">
<path transform="matrix(1,0,0,-1,0,360)" stroke-width=".8" stroke-linecap="butt" stroke-dasharray="2.96,1.28" stroke-linejoin="round" fill="none" stroke="#bebebe" stroke-opacity=".4" d="M459.23 126.490329H853.2"/>
</g>
<path transform="matrix(1,0,0,-1,0,360)" d="M459.23 126.490329H455.73"/>
<path transform="matrix(1,0,0,-1,0,360)" stroke-width=".8" stroke-linecap="butt" stroke-linejoin="round" fill="none" stroke="#000000" d="M459.23 126.490329H455.73"/>
<g clip-path="url(#clip_29)">
<path transform="matrix(1,0,0,-1,0,360)" stroke-width=".8" stroke-linecap="butt" stroke-dasharray="2.96,1.28" stroke-linejoin="round" fill="none" stroke="#bebebe" stroke-opacity=".4" d="M459.23 164.05936H853.2"/>
</g>
<path transform="matrix(1,0,0,-1,0,360)" d="M459.23 164.05936H455.73"/>
<path transform="matrix(1,0,0,-1,0,360)" stroke-width=".8" stroke-linecap="butt" stroke-linejoin="round" fill="none" stroke="#000000" d="M459.23 164.05936H455.73"/>
<g clip-path="url(#clip_30)">
<path transform="matrix(1,0,0,-1,0,360)" stroke-width=".8" stroke-linecap="butt" stroke-dasharray="2.96,1.28" stroke-linejoin="round" fill="none" stroke="#bebebe" stroke-opacity=".4" d="M459.23 201.62839H853.2"/>
</g>
<path transform="matrix(1,0,0,-1,0,360)" d="M459.23 201.62839H455.73"/>
<path transform="matrix(1,0,0,-1,0,360)" stroke-width=".8" stroke-linecap="butt" stroke-linejoin="round" fill="none" stroke="#000000" d="M459.23 201.62839H455.73"/>
<g clip-path="url(#clip_31)">
<path transform="matrix(1,0,0,-1,0,360)" stroke-width=".8" stroke-linecap="butt" stroke-dasharray="2.96,1.28" stroke-linejoin="round" fill="none" stroke="#bebebe" stroke-opacity=".4" d="M459.23 239.19742H853.2"/>
</g>
<path transform="matrix(1,0,0,-1,0,360)" d="M459.23 239.19742H455.73"/>
<path transform="matrix(1,0,0,-1,0,360)" stroke-width=".8" stroke-linecap="butt" stroke-linejoin="round" fill="none" stroke="#000000" d="M459.23 239.19742H455.73"/>
<g clip-path="url(#clip_32)">
<path transform="matrix(1,0,0,-1,0,360)" stroke-width=".8" stroke-linecap="butt" stroke-dasharray="2.96,1.28" stroke-linejoin="round" fill="none" stroke="#bebebe" stroke-opacity=".4" d="M459.23 276.76646H853.2"/>
</g>
<path transform="matrix(1,0,0,-1,0,360)" d="M459.23 276.76646H455.73"/>
<path transform="matrix(1,0,0,-1,0,360)" stroke-width=".8" stroke-linecap="butt" stroke-linejoin="round" fill="none" stroke="#000000" d="M459.23 276.76646H455.73"/>
<g clip-path="url(#clip_33)">
<path transform="matrix(1,0,0,-1,0,360)" stroke-width=".8" stroke-linecap="butt" stroke-dasharray="2.96,1.28" stroke-linejoin="round" fill="none" stroke="#bebebe" stroke-opacity=".4" d="M459.23 314.33549H853.2"/>
</g>
<path transform="matrix(1,0,0,-1,0,360)" d="M459.23 314.33549H455.73"/>
<path transform="matrix(1,0,0,-1,0,360)" stroke-width=".8" stroke-linecap="butt" stroke-linejoin="round" fill="none" stroke="#000000" d="M459.23 314.33549H455.73"/>
<g clip-path="url(#clip_34)">
<path transform="matrix(1,0,0,-1,0,360)" stroke-width="1.5" stroke-linecap="square" stroke-linejoin="round" fill="none" stroke="#1f77b4" d="M477.13774 280.31376 484.447 194.07404 491.7563 180.59803 499.06556 170.87152 506.37486 167.91513 513.6841 164.30127 520.9934 162.10517 528.3027 161.62206 535.61196 158.85259 542.9212 158.17621 550.23049 157.18016 557.5398 160.1523 564.84909 157.54846 572.1583 155.49559 579.4676 155.76213 586.77688 153.31737 594.0861 154.10688 601.39547 154.29135 608.7047 152.60175 616.014 150.829 623.32327 150.7065 630.6325 148.81169 637.94186 152.92125 645.2511 151.65857 652.56039 149.91123 659.8696 150.18192 667.1789 150.25002 674.4882 153.02344 681.7975 150.27677 689.10678 148.54372 696.416 149.05007 703.7253 147.91771 711.03457 149.44939 718.3439 149.91976 725.65316 144.71305 732.9624 146.39742 740.27169 147.8627 747.58096 146.1829 754.89028 146.82826 762.1995 146.27268 769.5088 148.94869 776.81808 147.68175 784.1273 145.81162 791.4366 146.9512 798.7459 149.10823 806.0552 150.51375 813.36447 146.98329 820.6737 145.79885 827.983 149.13828 835.2923 146.69829"/>
</g>
<g clip-path="url(#clip_35)">
<path transform="matrix(1,0,0,-1,0,360)" stroke-width="1.5" stroke-linecap="square" stroke-linejoin="round" fill="none" stroke="#ff7f0e" d="M477.13774 184.69336 484.447 169.89395 491.7563 164.81333 499.06556 158.15883 506.37486 159.6546 513.6841 155.95937 520.9934 154.22074 528.3027 152.74919 535.61196 152.39073 542.9212 151.1272 550.23049 152.84947 557.5398 151.56308 564.84909 148.44602 572.1583 149.12162 579.4676 149.13927 586.77688 149.38774 594.0861 154.653 601.39547 149.96877 608.7047 153.52626 616.014 148.0857 623.32327 147.35138 630.6325 147.98303 637.94186 146.93207 645.2511 147.3095 652.56039 147.72356 659.8696 148.95386 667.1789 147.38809 674.4882 144.53502 681.7975 148.0003 689.10678 150.65578 696.416 149.41506 703.7253 149.4805 711.03457 147.52776 718.3439 150.40224 725.65316 147.70555 732.9624 144.45374 740.27169 146.57778 747.58096 148.54517 754.89028 148.39888 762.1995 146.9477 769.5088 148.23758 776.81808 146.12667 784.1273 143.00307 791.4366 148.34712 798.7459 148.04109 806.0552 153.51575 813.36447 148.61595 820.6737 148.4503 827.983 148.81357 835.2923 145.51723"/>
</g>
<path transform="matrix(1,0,0,-1,0,360)" stroke-width=".8" stroke-linecap="square" stroke-miterlimit="10" stroke-linejoin="miter" fill="none" stroke="#000000" d="M459.23 41.96V333.12"/>
<path transform="matrix(1,0,0,-1,0,360)" stroke-width=".8" stroke-linecap="square" stroke-miterlimit="10" stroke-linejoin="miter" fill="none" stroke="#000000" d="M853.2 41.96V333.12"/>
<path transform="matrix(1,0,0,-1,0,360)" stroke-width=".8" stroke-linecap="square" stroke-miterlimit="10" stroke-linejoin="miter" fill="none" stroke="#000000" d="M459.23 41.96H853.2"/>
<path transform="matrix(1,0,0,-1,0,360)" stroke-width=".8" stroke-linecap="square" stroke-miterlimit="10" stroke-linejoin="miter" fill="none" stroke="#000000" d="M459.23 333.12H853.2"/>
<text xml:space="preserve" transform="matrix(1 0 -0 1 581.9572 20.880005)" font-size="12" font-family="DejaVuSans"><tspan y="0" x="0 8.376 15.720001 23.328001 30.948002 34.284006 38.988008 42.324007 49.668008 57.27601 64.63201 67.96801 71.78401 79.99201 87.60001 92.304019 99.64802 107.028018 114.63602 121.236019 128.58002 136.20001 143.58002">Conditional Autoencoder</tspan></text>
<g>
<path transform="matrix(1,0,0,-1,0,360)" d="M739.575 295.77626H846.2C847.5333 295.77626 848.2 296.44294 848.2 297.77626V326.12C848.2 327.45335 847.5333 328.12 846.2 328.12H739.575C738.24166 328.12 737.575 327.45335 737.575 326.12V297.77626C737.575 296.44294 738.24166 295.77626 739.575 295.77626Z" fill="#ffffff" fill-opacity=".8"/>
<path transform="matrix(1,0,0,-1,0,360)" stroke-width="1" stroke-linecap="butt" stroke-miterlimit="10" stroke-linejoin="miter" fill="none" stroke="#d5d6d5" stroke-opacity=".8" d="M739.575 295.77626H846.2C847.5333 295.77626 848.2 296.44294 848.2 297.77626V326.12C848.2 327.45335 847.5333 328.12 846.2 328.12H739.575C738.24166 328.12 737.575 327.45335 737.575 326.12V297.77626C737.575 296.44294 738.24166 295.77626 739.575 295.77626Z"/>
</g>
<path transform="matrix(1,0,0,-1,0,360)" stroke-width="1.5" stroke-linecap="square" stroke-linejoin="round" fill="none" stroke="#1f77b4" d="M741.575 320.02626H751.575 761.575"/>
<text xml:space="preserve" transform="matrix(1 0 -0 1 769.575 43.473756)" font-size="10" font-family="DejaVuSans"><tspan y="0" x="0 4.64125 8.75125 14.88125 17.661252 24.001252 27.181252 32.579378 38.699377 43.909376">Train Loss</tspan></text>
<path transform="matrix(1,0,0,-1,0,360)" stroke-width="1.5" stroke-linecap="square" stroke-linejoin="round" fill="none" stroke="#ff7f0e" d="M741.575 305.35438H751.575 761.575"/>
<text xml:space="preserve" transform="matrix(1 0 -0 1 769.575 58.14563)" font-size="10" font-family="DejaVuSans"><tspan y="0" x="0 6.074375 12.204375 14.984375 17.764376 24.114377 30.244378 34.164377 36.944375 43.064374 49.404375 52.584375 57.9825 64.1025 69.3125">Validation Loss</tspan></text>
</svg>
