<svg xmlns="http://www.w3.org/2000/svg" xmlns:xlink="http://www.w3.org/1999/xlink" version="1.1" width="864" height="360" viewBox="0 0 864 360">
<defs>
<clipPath id="clip_0">
<path transform="matrix(1,0,0,-1,0,360)" d="M50.96 41.96H444.93V333.12H50.96Z"/>
</clipPath>
<clipPath id="clip_1">
<path transform="matrix(1,0,0,-1,0,360)" d="M50.96 41.96H444.93V333.12H50.96Z"/>
</clipPath>
<clipPath id="clip_2">
<path transform="matrix(1,0,0,-1,0,360)" d="M50.96 41.96H444.93V333.12H50.96Z"/>
</clipPath>
<clipPath id="clip_3">
<path transform="matrix(1,0,0,-1,0,360)" d="M50.96 41.96H444.93V333.12H50.96Z"/>
</clipPath>
<clipPath id="clip_4">
<path transform="matrix(1,0,0,-1,0,360)" d="M50.96 41.96H444.93V333.12H50.96Z"/>
</clipPath>
<clipPath id="clip_5">
<path transform="matrix(1,0,0,-1,0,360)" d="M50.96 41.96H444.93V333.12H50.96Z"/>
</clipPath>
<clipPath id="clip_6">
<path transform="matrix(1,0,0,-1,0,360)" d="M50.96 41.96H444.93V333.12H50.96Z"/>
</clipPath>
<clipPath id="clip_7">
<path transform="matrix(1,0,0,-1,0,360)" d="M50.96 41.96H444.93V333.12H50.96Z"/>
</clipPath>
<clipPath id="clip_8">
<path transform="matrix(1,0,0,-1,0,360)" d="M50.96 41.96H444.93V333.12H50.96Z"/>
</clipPath>
<clipPath id="clip_9">
<path transform="matrix(1,0,0,-1,0,360)" d="M50.96 41.96H444.93V333.12H50.96Z"/>
</clipPath>
<clipPath id="clip_10">
<path transform="matrix(1,0,0,-1,0,360)" d="M50.96 41.96H444.93V333.12H50.96Z"/>
</clipPath>
<clipPath id="clip_11">
<path transform="matrix(1,0,0,-1,0,360)" d="M50.96 41.96H444.93V333.12H50.96Z"/>
</clipPath>
<clipPath id="clip_12">
<path transform="matrix(1,0,0,-1,0,360)" d="M50.96 41.96H444.93V333.12H50.96Z"/>
</clipPath>
<clipPath id="clip_13">
<path transform="matrix(1,0,0,-1,0,360)" d="M50.96 41.96H444.93V333.12H50.96Z"/>
</clipPath>
<clipPath id="clip_14">
<path transform="matrix(1,0,0,-1,0,360)" d="M50.96 41.96H444.93V333.12H50.96Z"/>
</clipPath>
<clipPath id="clip_15">
<path transform="matrix(1,0,0,-1,0,360)" d="M50.96 41.96H444.93V333.12H50.96Z"/>
</clipPath>
<clipPath id="clip_16">
<path transform="matrix(1,0,0,-1,0,360)" d="M50.96 41.96H444.93V333.12H50.96Z"/>
</clipPath>
<clipPath id="clip_17">
<path transform="matrix(1,0,0,-1,0,360)" d="M50.96 41.96H444.93V333.12H50.96Z"/>
</clipPath>
<clipPath id="clip_18">
<path transform="matrix(1,0,0,-1,0,360)" d="M459.23 41.96H853.2V333.12H459.23Z"/>
</clipPath>
<clipPath id="clip_19">
<path transform="matrix(1,0,0,-1,0,360)" d="M459.23 41.96H853.2V333.12H459.23Z"/>
</clipPath>
<clipPath id="clip_20">
<path transform="matrix(1,0,0,-1,0,360)" d="M459.23 41.96H853.2V333.12H459.23Z"/>
</clipPath>
<clipPath id="clip_21">
<path transform="matrix(1,0,0,-1,0,360)" d="M459.23 41.96H853.2V333.12H459.23Z"/>
</clipPath>
<clipPath id="clip_22">
<path transform="matrix(1,0,0,-1,0,360)" d="M459.23 41.96H853.2V333.12H459.23Z"/>
</clipPath>
<clipPath id="clip_23">
<path transform="matrix(1,0,0,-1,0,360)" d="M459.23 41.96H853.2V333.12H459.23Z"/>
</clipPath>
<clipPath id="clip_24">
<path transform="matrix(1,0,0,-1,0,360)" d="M459.23 41.96H853.2V333.12H459.23Z"/>
</clipPath>
<clipPath id="clip_25">
<path transform="matrix(1,0,0,-1,0,360)" d="M459.23 41.96H853.2V333.12H459.23Z"/>
</clipPath>
<clipPath id="clip_26">
<path transform="matrix(1,0,0,-1,0,360)" d="M459.23 41.96H853.2V333.12H459.23Z"/>
</clipPath>
<clipPath id="clip_27">
<path transform="matrix(1,0,0,-1,0,360)" d="M459.23 41.96H853.2V333.12H459.23Z"/>
</clipPath>
<clipPath id="clip_28">
<path transform="matrix(1,0,0,-1,0,360)" d="M459.23 41.96H853.2V333.12H459.23Z"/>
</clipPath>
<clipPath id="clip_29">
<path transform="matrix(1,0,0,-1,0,360)" d="M459.23 41.96H853.2V333.12H459.23Z"/>
</clipPath>
<clipPath id="clip_30">
<path transform="matrix(1,0,0,-1,0,360)" d="M459.23 41.96H853.2V333.12H459.23Z"/>
</clipPath>
<clipPath id="clip_31">
<path transform="matrix(1,0,0,-1,0,360)" d="M459.23 41.96H853.2V333.12H459.23Z"/>
</clipPath>
<clipPath id="clip_32">
<path transform="matrix(1,0,0,-1,0,360)" d="M459.23 41.96H853.2V333.12H459.23Z"/>
</clipPath>
<clipPath id="clip_33">
<path transform="matrix(1,0,0,-1,0,360)" d="M459.23 41.96H853.2V333.12H459.23Z"/>
</clipPath>
<clipPath id="clip_34">
<path transform="matrix(1,0,0,-1,0,360)" d="M459.23 41.96H853.2V333.12H459.23Z"/>
</clipPath>
<clipPath id="clip_35">
<path transform="matrix(1,0,0,-1,0,360)" d="M459.23 41.96H853.2V333.12H459.23Z"/>
</clipPath>
</defs>
<path transform="matrix(1,0,0,-1,0,360)" d="M0 0H864V360H0Z" fill="#ffffff"/>
<path transform="matrix(1,0,0,-1,0,360)" d="M50.96 41.96H444.93V333.12H50.96Z" fill="#ffffff"/>
<g clip-path="url(#clip_0)">
<path transform="matrix(1,0,0,-1,0,360)" d="M68.86773 326.1223V321.9626L76.177 266.43589 83.48628 237.38501 90.795558 228.67023 98.104839 219.65816 105.41411 214.72931 112.72339 212.72162 120.03266 207.3174 127.34194 205.30869 134.65122 200.73104 141.9605 199.66872 149.26978 201.74326 156.57904 199.4092 163.88832 199.75368 171.1976 197.25548 178.50687 197.14435 185.81615 191.76802 193.12543 193.76047 200.43471 194.81328 207.74398 188.58327 215.05326 192.85497 222.36254 191.74501 229.67182 188.22754 236.98108 188.97957 244.29036 190.63816 251.59964 187.95282 258.9089 187.07822 266.2182 187.66501 273.52748 188.84133 280.83674 185.79682 288.14604 187.37917 295.4553 184.90714 302.7646 187.00934 310.07386 184.90341 317.38313 184.33759 324.6924 185.7337 332.00169 186.70482 339.31095 186.24396 346.62025 181.21569 353.9295 182.97423 361.2388 181.45159 368.54808 182.6696 375.85734 182.7052 383.16664 182.47068 390.4759 184.22055 397.78517 181.67652 405.09446 183.4626 412.40373 180.4621 419.71299 185.78057 427.02229 182.62245V187.41188L419.71299 189.92089 412.40373 187.76696 405.09446 185.6389 397.78517 188.4166 390.4759 185.87773 383.16664 188.45058 375.85734 189.16112 368.54808 187.5932 361.2388 193.63744 353.9295 187.41556 346.62025 189.02184 339.31095 192.8692 332.00169 190.25412 324.6924 192.24414 317.38313 190.95874 310.07386 188.6209 302.7646 191.43395 295.4553 196.3738 288.14604 193.88996 280.83674 191.2677 273.52748 193.96921 266.2182 192.56774 258.9089 196.7882 251.59964 198.19176 244.29036 197.00772 236.98108 196.26938 229.67182 195.44475 222.36254 196.05553 215.05326 197.74074 207.74398 197.64098 200.43471 199.66896 193.12543 199.76918 185.81615 197.12808 178.50687 202.22446 171.1976 204.43804 163.88832 204.82207 156.57904 206.80902 149.26978 204.43946 141.9605 210.5146 134.65122 205.31377 127.34194 211.49268 120.03266 210.37525 112.72339 215.8026 105.41411 217.53653 98.104839 225.37793 90.795558 232.38336 83.48628 245.3069 76.177 271.24589 68.86773 326.1223Z" fill="#1f77b4" fill-opacity=".1"/>
</g>
<g clip-path="url(#clip_1)">
<path transform="matrix(1,0,0,-1,0,360)" d="M68.86773 264.64204V257.3095L76.177 217.8775 83.48628 208.82187 90.795558 202.72664 98.104839 197.222 105.41411 194.88997 112.72339 192.93105 120.03266 189.80735 127.34194 192.39598 134.65122 189.22098 141.9605 186.70754 149.26978 184.37686 156.57904 184.3186 163.88832 186.38249 171.1976 185.68262 178.50687 184.47109 185.81615 183.50206 193.12543 177.72185 200.43471 182.14083 207.74398 181.62087 215.05326 178.25926 222.36254 180.14 229.67182 179.21987 236.98108 181.16645 244.29036 179.77365 251.59964 179.23313 258.9089 179.31253 266.2182 177.05948 273.52748 179.81507 280.83674 177.64807 288.14604 181.01937 295.4553 180.15424 302.7646 180.99427 310.07386 179.10327 317.38313 179.52802 324.6924 177.66048 332.00169 177.22454 339.31095 177.13019 346.62025 178.19629 353.9295 177.33173 361.2388 177.04219 368.54808 173.14089 375.85734 179.82672 383.16664 177.31682 390.4759 179.48296 397.78517 177.72187 405.09446 176.97931 412.40373 178.0099 419.71299 176.87961 427.02229 174.0077V182.53847L419.71299 183.36876 412.40373 187.3688 405.09446 185.34642 397.78517 180.61434 390.4759 182.47142 383.16664 180.06563 375.85734 185.13439 368.54808 181.75696 361.2388 181.71396 353.9295 182.7565 346.62025 182.23743 339.31095 184.72269 332.00169 183.23816 324.6924 186.02996 317.38313 184.10512 310.07386 188.04973 302.7646 185.23349 295.4553 184.21253 288.14604 182.85179 280.83674 183.86685 273.52748 185.1725 266.2182 188.67096 258.9089 187.1192 251.59964 184.1331 244.29036 187.49129 236.98108 186.74138 229.67182 191.23638 222.36254 183.8963 215.05326 187.7178 207.74398 188.3086 200.43471 186.13231 193.12543 186.86594 185.81615 192.79123 178.50687 187.92853 171.1976 190.70322 163.88832 189.80539 156.57904 189.61525 149.26978 193.42917 141.9605 193.107 134.65122 197.53528 127.34194 196.67987 120.03266 199.79302 112.72339 199.45159 105.41411 199.14328 98.104839 205.92784 90.795558 206.98674 83.48628 217.15579 76.177 229.69409 68.86773 264.64204Z" fill="#ff7f0e" fill-opacity=".1"/>
</g>
<g clip-path="url(#clip_2)">
<path transform="matrix(1,0,0,-1,0,360)" stroke-width=".8" stroke-linecap="butt" stroke-dasharray="2.96,1.28" stroke-linejoin="round" fill="none" stroke="#bebebe" stroke-opacity=".4" d="M68.86773 41.96V333.12"/>
</g>
<path transform="matrix(1,0,0,-1,0,360)" d="M68.86773 41.96V38.46"/>
<path transform="matrix(1,0,0,-1,0,360)" stroke-width=".8" stroke-linecap="butt" stroke-linejoin="round" fill="none" stroke="#000000" d="M68.86773 41.96V38.46"/>
<text xml:space="preserve" transform="matrix(1 0 -0 1 65.68804 332.63377)" font-size="10" font-family="DejaVuSans"><tspan y="0" x="0">0</tspan></text>
<g clip-path="url(#clip_3)">
<path transform="matrix(1,0,0,-1,0,360)" stroke-width=".8" stroke-linecap="butt" stroke-dasharray="2.96,1.28" stroke-linejoin="round" fill="none" stroke="#bebebe" stroke-opacity=".4" d="M141.9605 41.96V333.12"/>
</g>
<path transform="matrix(1,0,0,-1,0,360)" d="M141.9605 41.96V38.46"/>
<path transform="matrix(1,0,0,-1,0,360)" stroke-width=".8" stroke-linecap="butt" stroke-linejoin="round" fill="none" stroke="#000000" d="M141.9605 41.96V38.46"/>
<text xml:space="preserve" transform="matrix(1 0 -0 1 135.60112 332.63377)" font-size="10" font-family="DejaVuSans"><tspan y="0" x="0 6.3600008">10</tspan></text>
<g clip-path="url(#clip_4)">
<path transform="matrix(1,0,0,-1,0,360)" stroke-width=".8" stroke-linecap="butt" stroke-dasharray="2.96,1.28" stroke-linejoin="round" fill="none" stroke="#bebebe" stroke-opacity=".4" d="M215.05326 41.96V333.12"/>
</g>
<path transform="matrix(1,0,0,-1,0,360)" d="M215.05326 41.96V38.46"/>
<path transform="matrix(1,0,0,-1,0,360)" stroke-width=".8" stroke-linecap="butt" stroke-linejoin="round" fill="none" stroke="#000000" d="M215.05326 41.96V38.46"/>
<text xml:space="preserve" transform="matrix(1 0 -0 1 208.69388 332.63377)" font-size="10" font-family="DejaVuSans"><tspan y="0" x="0 6.3600008">20</tspan></text>
<g clip-path="url(#clip_5)">
<path transform="matrix(1,0,0,-1,0,360)" stroke-width=".8" stroke-linecap="butt" stroke-dasharray="2.96,1.28" stroke-linejoin="round" fill="none" stroke="#bebebe" stroke-opacity=".4" d="M288.14604 41.96V333.12"/>
</g>
<path transform="matrix(1,0,0,-1,0,360)" d="M288.14604 41.96V38.46"/>
<path transform="matrix(1,0,0,-1,0,360)" stroke-width=".8" stroke-linecap="butt" stroke-linejoin="round" fill="none" stroke="#000000" d="M288.14604 41.96V38.46"/>
<text xml:space="preserve" transform="matrix(1 0 -0 1 281.78666 332.63377)" font-size="10" font-family="DejaVuSans"><tspan y="0" x="0 6.3600008">30</tspan></text>
<g clip-path="url(#clip_6)">
<path transform="matrix(1,0,0,-1,0,360)" stroke-width=".8" stroke-linecap="butt" stroke-dasharray="2.96,1.28" stroke-linejoin="round" fill="none" stroke="#bebebe" stroke-opacity=".4" d="M361.2388 41.96V333.12"/>
</g>
<path transform="matrix(1,0,0,-1,0,360)" d="M361.2388 41.96V38.46"/>
<path transform="matrix(1,0,0,-1,0,360)" stroke-width=".8" stroke-linecap="butt" stroke-linejoin="round" fill="none" stroke="#000000" d="M361.2388 41.96V38.46"/>
<text xml:space="preserve" transform="matrix(1 0 -0 1 354.8794 332.63377)" font-size="10" font-family="DejaVuSans"><tspan y="0" x="0 6.3600008">40</tspan></text>
<g clip-path="url(#clip_7)">
<path transform="matrix(1,0,0,-1,0,360)" stroke-width=".8" stroke-linecap="butt" stroke-dasharray="2.96,1.28" stroke-linejoin="round" fill="none" stroke="#bebebe" stroke-opacity=".4" d="M434.33155 41.96V333.12"/>
</g>
<path transform="matrix(1,0,0,-1,0,360)" d="M434.33155 41.96V38.46"/>
<path transform="matrix(1,0,0,-1,0,360)" stroke-width=".8" stroke-linecap="butt" stroke-linejoin="round" fill="none" stroke="#000000" d="M434.33155 41.96V38.46"/>
<text xml:space="preserve" transform="matrix(1 0 -0 1 427.97218 332.63377)" font-size="10" font-family="DejaVuSans"><tspan y="0" x="0 6.3600008">50</tspan></text>
<text xml:space="preserve" transform="matrix(1 0 -0 1 232.6325 346.30564)" font-size="10" font-family="DejaVuSans"><tspan y="0" x="0 6.32 12.67 18.79 24.29">Epoch</tspan></text>
<g clip-path="url(#clip_8)">
<path transform="matrix(1,0,0,-1,0,360)" stroke-width=".8" stroke-linecap="butt" stroke-dasharray="2.96,1.28" stroke-linejoin="round" fill="none" stroke="#bebebe" stroke-opacity=".4" d="M50.96 51.352258H444.93"/>
</g>
<path transform="matrix(1,0,0,-1,0,360)" d="M50.96 51.352258H47.46"/>
<path transform="matrix(1,0,0,-1,0,360)" stroke-width=".8" stroke-linecap="butt" stroke-linejoin="round" fill="none" stroke="#000000" d="M50.96 51.352258H47.46"/>
<text xml:space="preserve" transform="matrix(1 0 -0 1 31.24125 312.4446)" font-size="10" font-family="DejaVuSans"><tspan y="0" x="0 6.3600008">60</tspan></text>
<g clip-path="url(#clip_9)">
<path transform="matrix(1,0,0,-1,0,360)" stroke-width=".8" stroke-linecap="butt" stroke-dasharray="2.96,1.28" stroke-linejoin="round" fill="none" stroke="#bebebe" stroke-opacity=".4" d="M50.96 88.92129H444.93"/>
</g>
<path transform="matrix(1,0,0,-1,0,360)" d="M50.96 88.92129H47.46"/>
<path transform="matrix(1,0,0,-1,0,360)" stroke-width=".8" stroke-linecap="butt" stroke-linejoin="round" fill="none" stroke="#000000" d="M50.96 88.92129H47.46"/>
<text xml:space="preserve" transform="matrix(1 0 -0 1 31.24125 274.87559)" font-size="10" font-family="DejaVuSans"><tspan y="0" x="0 6.3600008">80</tspan></text>
<g clip-path="url(#clip_10)">
<path transform="matrix(1,0,0,-1,0,360)" stroke-width=".8" stroke-linecap="butt" stroke-dasharray="2.96,1.28" stroke-linejoin="round" fill="none" stroke="#bebebe" stroke-opacity=".4" d="M50.96 126.490329H444.93"/>
</g>
<path transform="matrix(1,0,0,-1,0,360)" d="M50.96 126.490329H47.46"/>
<path transform="matrix(1,0,0,-1,0,360)" stroke-width=".8" stroke-linecap="butt" stroke-linejoin="round" fill="none" stroke="#000000" d="M50.96 126.490329H47.46"/>
<text xml:space="preserve" transform="matrix(1 0 -0 1 24.881875 237.30655)" font-size="10" font-family="DejaVuSans"><tspan y="0" x="0 6.3600008 12.720001">100</tspan></text>
<g clip-path="url(#clip_11)">
<path transform="matrix(1,0,0,-1,0,360)" stroke-width=".8" stroke-linecap="butt" stroke-dasharray="2.96,1.28" stroke-linejoin="round" fill="none" stroke="#bebebe" stroke-opacity=".4" d="M50.96 164.05936H444.93"/>
</g>
<path transform="matrix(1,0,0,-1,0,360)" d="M50.96 164.05936H47.46"/>
<path transform="matrix(1,0,0,-1,0,360)" stroke-width=".8" stroke-linecap="butt" stroke-linejoin="round" fill="none" stroke="#000000" d="M50.96 164.05936H47.46"/>
<text xml:space="preserve" transform="matrix(1 0 -0 1 24.881875 199.73752)" font-size="10" font-family="DejaVuSans"><tspan y="0" x="0 6.3600008 12.720001">120</tspan></text>
<g clip-path="url(#clip_12)">
<path transform="matrix(1,0,0,-1,0,360)" stroke-width=".8" stroke-linecap="butt" stroke-dasharray="2.96,1.28" stroke-linejoin="round" fill="none" stroke="#bebebe" stroke-opacity=".4" d="M50.96 201.62839H444.93"/>
</g>
<path transform="matrix(1,0,0,-1,0,360)" d="M50.96 201.62839H47.46"/>
<path transform="matrix(1,0,0,-1,0,360)" stroke-width=".8" stroke-linecap="butt" stroke-linejoin="round" fill="none" stroke="#000000" d="M50.96 201.62839H47.46"/>
<text xml:space="preserve" transform="matrix(1 0 -0 1 24.881875 162.16849)" font-size="10" font-family="DejaVuSans"><tspan y="0" x="0 6.3600008 12.720001">140</tspan></text>
<g clip-path="url(#clip_13)">
<path transform="matrix(1,0,0,-1,0,360)" stroke-width=".8" stroke-linecap="butt" stroke-dasharray="2.96,1.28" stroke-linejoin="round" fill="none" stroke="#bebebe" stroke-opacity=".4" d="M50.96 239.19742H444.93"/>
</g>
<path transform="matrix(1,0,0,-1,0,360)" d="M50.96 239.19742H47.46"/>
<path transform="matrix(1,0,0,-1,0,360)" stroke-width=".8" stroke-linecap="butt" stroke-linejoin="round" fill="none" stroke="#000000" d="M50.96 239.19742H47.46"/>
<text xml:space="preserve" transform="matrix(1 0 -0 1 24.881875 124.59946)" font-size="10" font-family="DejaVuSans"><tspan y="0" x="0 6.3600008 12.720001">160</tspan></text>
<g clip-path="url(#clip_14)">
<path transform="matrix(1,0,0,-1,0,360)" stroke-width=".8" stroke-linecap="butt" stroke-dasharray="2.96,1.28" stroke-linejoin="round" fill="none" stroke="#bebebe" stroke-opacity=".4" d="M50.96 276.76646H444.93"/>
</g>
<path transform="matrix(1,0,0,-1,0,360)" d="M50.96 276.76646H47.46"/>
<path transform="matrix(1,0,0,-1,0,360)" stroke-width=".8" stroke-linecap="butt" stroke-linejoin="round" fill="none" stroke="#000000" d="M50.96 276.76646H47.46"/>
<text xml:space="preserve" transform="matrix(1 0 -0 1 24.881875 87.030429)" font-size="10" font-family="DejaVuSans"><tspan y="0" x="0 6.3600008 12.720001">180</tspan></text>
<g clip-path="url(#clip_15)">
<path transform="matrix(1,0,0,-1,0,360)" stroke-width=".8" stroke-linecap="butt" stroke-dasharray="2.96,1.28" stroke-linejoin="round" fill="none" stroke="#bebebe" stroke-opacity=".4" d="M50.96 314.33549H444.93"/>
</g>
<path transform="matrix(1,0,0,-1,0,360)" d="M50.96 314.33549H47.46"/>
<path transform="matrix(1,0,0,-1,0,360)" stroke-width=".8" stroke-linecap="butt" stroke-linejoin="round" fill="none" stroke="#000000" d="M50.96 314.33549H47.46"/>
<text xml:space="preserve" transform="matrix(1 0 -0 1 24.881875 49.461397)" font-size="10" font-family="DejaVuSans"><tspan y="0" x="0 6.3600008 12.720001">200</tspan></text>
<text xml:space="preserve" transform="matrix(0 -1 1 0 18.80375 183.46782)" font-size="10" font-family="DejaVuSans"><tspan y="0" x="0 5.3981258 11.518126 16.728127">Loss</tspan></text>
<g clip-path="url(#clip_16)">
<path transform="matrix(1,0,0,-1,0,360)" stroke-width="1.5" stroke-linecap="square" stroke-linejoin="round" fill="none" stroke="#1f77b4" d="M68.86773 324.04246 76.177 268.84089 83.48628 241.34595 90.795558 230.5268 98.104839 222.51805 105.41411 216.13292 112.72339 214.26212 120.03266 208.84633 127.34194 208.40068 134.65122 203.0224 141.9605 205.09166 149.26978 203.09136 156.57904 203.10912 163.88832 202.28787 171.1976 200.84676 178.50687 199.6844 185.81615 194.44806 193.12543 196.76483 200.43471 197.24112 207.74398 193.11212 215.05326 195.29785 222.36254 193.90027 229.67182 191.83615 236.98108 192.62447 244.29036 193.82294 251.59964 193.07228 258.9089 191.93321 266.2182 190.11638 273.52748 191.40528 280.83674 188.53226 288.14604 190.63455 295.4553 190.64048 302.7646 189.22164 310.07386 186.76216 317.38313 187.64817 324.6924 188.98892 332.00169 188.47948 339.31095 189.55658 346.62025 185.11876 353.9295 185.19489 361.2388 187.54451 368.54808 185.1314 375.85734 185.93317 383.16664 185.46062 390.4759 185.04914 397.78517 185.04656 405.09446 184.55075 412.40373 184.11454 419.71299 187.85073 427.02229 185.01717"/>
</g>
<g clip-path="url(#clip_17)">
<path transform="matrix(1,0,0,-1,0,360)" stroke-width="1.5" stroke-linecap="square" stroke-linejoin="round" fill="none" stroke="#ff7f0e" d="M68.86773 260.97578 76.177 223.7858 83.48628 212.98883 90.795558 204.85669 98.104839 201.57492 105.41411 197.01663 112.72339 196.19132 120.03266 194.80017 127.34194 194.53792 134.65122 193.37813 141.9605 189.90726 149.26978 188.90302 156.57904 186.96692 163.88832 188.09395 171.1976 188.19292 178.50687 186.19982 185.81615 188.14665 193.12543 182.29389 200.43471 184.13657 207.74398 184.96474 215.05326 182.98853 222.36254 182.01816 229.67182 185.22812 236.98108 183.9539 244.29036 183.63248 251.59964 181.6831 258.9089 183.21587 266.2182 182.86522 273.52748 182.49379 280.83674 180.75746 288.14604 181.93558 295.4553 182.18338 302.7646 183.11388 310.07386 183.5765 317.38313 181.81656 324.6924 181.84522 332.00169 180.23134 339.31095 180.92644 346.62025 180.21686 353.9295 180.04412 361.2388 179.37807 368.54808 177.44892 375.85734 182.48055 383.16664 178.69123 390.4759 180.97719 397.78517 179.16809 405.09446 181.16286 412.40373 182.68935 419.71299 180.12418 427.02229 178.27309"/>
</g>
<path transform="matrix(1,0,0,-1,0,360)" stroke-width=".8" stroke-linecap="square" stroke-miterlimit="10" stroke-linejoin="miter" fill="none" stroke="#000000" d="M50.96 41.96V333.12"/>
<path transform="matrix(1,0,0,-1,0,360)" stroke-width=".8" stroke-linecap="square" stroke-miterlimit="10" stroke-linejoin="miter" fill="none" stroke="#000000" d="M444.93 41.96V333.12"/>
<path transform="matrix(1,0,0,-1,0,360)" stroke-width=".8" stroke-linecap="square" stroke-miterlimit="10" stroke-linejoin="miter" fill="none" stroke="#000000" d="M50.96 41.96H444.93"/>
<path transform="matrix(1,0,0,-1,0,360)" stroke-width=".8" stroke-linecap="square" stroke-miterlimit="10" stroke-linejoin="miter" fill="none" stroke="#000000" d="M50.96 333.12H444.93"/>
<text xml:space="preserve" transform="matrix(1 0 -0 1 175.67156 20.880005)" font-size="12" font-family="DejaVuSans"><tspan y="0" x="0 7.286125 14.642126 19.574128 22.910128 30.266129 34.97013 38.30613 45.65013 53.258134 60.614133 63.950136 67.766139 75.97414 83.58214 88.28614 95.63014 103.01014 110.61814 117.21814 124.56214 132.18215 139.56215">Variational Autoencoder</tspan></text>
<path transform="matrix(1,0,0,-1,0,360)" d="M459.23 41.96H853.2V333.12H459.23Z" fill="#ffffff"/>
<g clip-path="url(#clip_18)">
<path transform="matrix(1,0,0,-1,0,360)" d="M477.13774 293.30784V284.17338L484.447 194.95224 491.7563 171.23116 499.06556 159.12776 506.37486 152.2554 513.6841 143.95943 520.9934 142.59349 528.3027 145.03733 535.61196 138.1605 542.9212 131.43196 550.23049 132.78417 557.5398 126.943279 564.84909 126.43484 572.1583 121.732059 579.4676 128.83193 586.77688 125.88309 594.0861 127.32421 601.39547 129.42629 608.7047 123.44585 616.014 129.39737 623.32327 120.79807 630.6325 119.611949 637.94186 121.25915 645.2511 125.50627 652.56039 119.17776 659.8696 119.189449 667.1789 130.82634 674.4882 119.422588 681.7975 117.99704 689.10678 113.41722 696.416 120.56534 703.7253 124.73472 711.03457 116.83235 718.3439 125.37884 725.65316 113.18115 732.9624 121.012798 740.27169 122.74093 747.58096 123.66918 754.89028 121.78988 762.1995 119.72097 769.5088 115.64559 776.81808 113.238788 784.1273 115.05863 791.4366 115.43801 798.7459 118.98278 806.0552 115.13981 813.36447 118.28927 820.6737 114.88173 827.983 114.28885 835.2923 119.49683V125.87612L827.983 124.8387 820.6737 124.703708 813.36447 128.4065 806.0552 127.81167 798.7459 126.26067 791.4366 126.138599 784.1273 126.13588 776.81808 125.55719 769.5088 123.03295 762.1995 124.35377 754.89028 128.38231 747.58096 128.31394 740.27169 130.32172 732.9624 128.98094 725.65316 123.29608 718.3439 133.79567 711.03457 128.27983 703.7253 132.34925 696.416 128.52829 689.10678 121.0509 681.7975 132.80158 674.4882 123.9226 667.1789 134.64815 659.8696 130.80828 652.56039 130.2641 645.2511 132.43198 637.94186 130.84355 630.6325 136.65895 623.32327 127.64103 616.014 131.34568 608.7047 128.92824 601.39547 136.50278 594.0861 131.3197 586.77688 135.81983 579.4676 136.2735 572.1583 133.61234 564.84909 132.62847 557.5398 139.63899 550.23049 144.12368 542.9212 143.19876 535.61196 146.85424 528.3027 149.74118 520.9934 147.01045 513.6841 155.02642 506.37486 158.48734 499.06556 168.33916 491.7563 178.16996 484.447 197.64122 477.13774 293.30784Z" fill="#1f77b4" fill-opacity=".1"/>
</g>
<g clip-path="url(#clip_19)">
<path transform="matrix(1,0,0,-1,0,360)" d="M477.13774 200.6639V173.88996L484.447 159.85834 491.7563 152.82073 499.06556 145.53385 506.37486 137.4895 513.6841 132.84099 520.9934 129.02852 528.3027 131.51251 535.61196 132.25821 542.9212 124.67376 550.23049 123.483608 557.5398 118.540767 564.84909 117.190547 572.1583 120.10223 579.4676 115.16277 586.77688 111.787288 594.0861 127.40657 601.39547 112.29152 608.7047 119.64264 616.014 124.36495 623.32327 112.04308 630.6325 114.23507 637.94186 116.11136 645.2511 119.38586 652.56039 114.71873 659.8696 116.615619 667.1789 116.49341 674.4882 117.91139 681.7975 112.897388 689.10678 114.63829 696.416 113.16545 703.7253 115.545169 711.03457 111.902599 718.3439 125.12711 725.65316 110.49675 732.9624 120.8153 740.27169 108.70164 747.58096 123.11812 754.89028 110.29863 762.1995 109.33054 769.5088 115.71199 776.81808 110.92255 784.1273 108.41612 791.4366 117.40221 798.7459 115.13438 806.0552 112.03466 813.36447 112.737888 820.6737 111.99478 827.983 112.46172 835.2923 113.916217V120.19297L827.983 122.09175 820.6737 123.47235 813.36447 126.62616 806.0552 125.82115 798.7459 124.764408 791.4366 123.73834 784.1273 129.92696 776.81808 122.468189 769.5088 130.7271 762.1995 127.90798 754.89028 122.35505 747.58096 129.5098 740.27169 118.36219 732.9624 131.08281 725.65316 120.8219 718.3439 134.14731 711.03457 130.74198 703.7253 126.09288 696.416 118.58583 689.10678 124.34598 681.7975 126.1749 674.4882 126.21358 667.1789 126.133289 659.8696 129.46053 652.56039 125.15605 645.2511 126.53895 637.94186 129.17594 630.6325 122.42602 623.32327 129.259 616.014 133.28621 608.7047 130.2473 601.39547 125.67291 594.0861 132.04438 586.77688 125.73723 579.4676 126.097 572.1583 123.79173 564.84909 137.391 557.5398 129.4323 550.23049 129.17795 542.9212 139.73845 535.61196 142.65773 528.3027 138.33713 520.9934 143.65496 513.6841 133.80408 506.37486 143.33621 499.06556 156.52639 491.7563 157.71123 484.447 167.5781 477.13774 200.6639Z" fill="#ff7f0e" fill-opacity=".1"/>
</g>
<g clip-path="url(#clip_20)">
<path transform="matrix(1,0,0,-1,0,360)" stroke-width=".8" stroke-linecap="butt" stroke-dasharray="2.96,1.28" stroke-linejoin="round" fill="none" stroke="#bebebe" stroke-opacity=".4" d="M477.13774 41.96V333.12"/>
</g>
<path transform="matrix(1,0,0,-1,0,360)" d="M477.13774 41.96V38.46"/>
<path transform="matrix(1,0,0,-1,0,360)" stroke-width=".8" stroke-linecap="butt" stroke-linejoin="round" fill="none" stroke="#000000" d="M477.13774 41.96V38.46"/>
<text xml:space="preserve" transform="matrix(1 0 -0 1 473.95805 332.63377)" font-size="10" font-family="DejaVuSans"><tspan y="0" x="0">0</tspan></text>
<g clip-path="url(#clip_21)">
<path transform="matrix(1,0,0,-1,0,360)" stroke-width=".8" stroke-linecap="butt" stroke-dasharray="2.96,1.28" stroke-linejoin="round" fill="none" stroke="#bebebe" stroke-opacity=".4" d="M550.23049 41.96V333.12"/>
</g>
<path transform="matrix(1,0,0,-1,0,360)" d="M550.23049 41.96V38.46"/>
<path transform="matrix(1,0,0,-1,0,360)" stroke-width=".8" stroke-linecap="butt" stroke-linejoin="round" fill="none" stroke="#000000" d="M550.23049 41.96V38.46"/>
<text xml:space="preserve" transform="matrix(1 0 -0 1 543.8711 332.63377)" font-size="10" font-family="DejaVuSans"><tspan y="0" x="0 6.3600008">10</tspan></text>
<g clip-path="url(#clip_22)">
<path transform="matrix(1,0,0,-1,0,360)" stroke-width=".8" stroke-linecap="butt" stroke-dasharray="2.96,1.28" stroke-linejoin="round" fill="none" stroke="#bebebe" stroke-opacity=".4" d="M623.32327 41.96V333.12"/>
</g>
<path transform="matrix(1,0,0,-1,0,360)" d="M623.32327 41.96V38.46"/>
<path transform="matrix(1,0,0,-1,0,360)" stroke-width=".8" stroke-linecap="butt" stroke-linejoin="round" fill="none" stroke="#000000" d="M623.32327 41.96V38.46"/>
<text xml:space="preserve" transform="matrix(1 0 -0 1 616.96389 332.63377)" font-size="10" font-family="DejaVuSans"><tspan y="0" x="0 6.3600008">20</tspan></text>
<g clip-path="url(#clip_23)">
<path transform="matrix(1,0,0,-1,0,360)" stroke-width=".8" stroke-linecap="butt" stroke-dasharray="2.96,1.28" stroke-linejoin="round" fill="none" stroke="#bebebe" stroke-opacity=".4" d="M696.416 41.96V333.12"/>
</g>
<path transform="matrix(1,0,0,-1,0,360)" d="M696.416 41.96V38.46"/>
<path transform="matrix(1,0,0,-1,0,360)" stroke-width=".8" stroke-linecap="butt" stroke-linejoin="round" fill="none" stroke="#000000" d="M696.416 41.96V38.46"/>
<text xml:space="preserve" transform="matrix(1 0 -0 1 690.05667 332.63377)" font-size="10" font-family="DejaVuSans"><tspan y="0" x="0 6.3600008">30</tspan></text>
<g clip-path="url(#clip_24)">
<path transform="matrix(1,0,0,-1,0,360)" stroke-width=".8" stroke-linecap="butt" stroke-dasharray="2.96,1.28" stroke-linejoin="round" fill="none" stroke="#bebebe" stroke-opacity=".4" d="M769.5088 41.96V333.12"/>
</g>
<path transform="matrix(1,0,0,-1,0,360)" d="M769.5088 41.96V38.46"/>
<path transform="matrix(1,0,0,-1,0,360)" stroke-width=".8" stroke-linecap="butt" stroke-linejoin="round" fill="none" stroke="#000000" d="M769.5088 41.96V38.46"/>
<text xml:space="preserve" transform="matrix(1 0 -0 1 763.1494 332.63377)" font-size="10" font-family="DejaVuSans"><tspan y="0" x="0 6.3600008">40</tspan></text>
<g clip-path="url(#clip_25)">
<path transform="matrix(1,0,0,-1,0,360)" stroke-width=".8" stroke-linecap="butt" stroke-dasharray="2.96,1.28" stroke-linejoin="round" fill="none" stroke="#bebebe" stroke-opacity=".4" d="M842.60159 41.96V333.12"/>
</g>
<path transform="matrix(1,0,0,-1,0,360)" d="M842.60159 41.96V38.46"/>
<path transform="matrix(1,0,0,-1,0,360)" stroke-width=".8" stroke-linecap="butt" stroke-linejoin="round" fill="none" stroke="#000000" d="M842.60159 41.96V38.46"/>
<text xml:space="preserve" transform="matrix(1 0 -0 1 836.2422 332.63377)" font-size="10" font-family="DejaVuSans"><tspan y="0" x="0 6.3600008">50</tspan></text>
<text xml:space="preserve" transform="matrix(1 0 -0 1 640.9025 346.30564)" font-size="10" font-family="DejaVuSans"><tspan y="0" x="0 6.32 12.67 18.79 24.29">Epoch</tspan></text>
<g clip-path="url(#clip_26)">
<path transform="matrix(1,0,0,-1,0,360)" stroke-width=".8" stroke-linecap="butt" stroke-dasharray="2.96,1.28" stroke-linejoin="round" fill="none" stroke="#bebebe" stroke-opacity=".4" d="M459.23 51.352258H853.2"/>
</g>
<path transform="matrix(1,0,0,-1,0,360)" d="M459.23 51.352258H455.73"/>
<path transform="matrix(1,0,0,-1,0,360)" stroke-width=".8" stroke-linecap="butt" stroke-linejoin="round" fill="none" stroke="#000000" d="M459.23 51.352258H455.73"/>
<g clip-path="url(#clip_27)">
<path transform="matrix(1,0,0,-1,0,360)" stroke-width=".8" stroke-linecap="butt" stroke-dasharray="2.96,1.28" stroke-linejoin="round" fill="none" stroke="#bebebe" stroke-opacity=".4" d="M459.23 88.92129H853.2"/>
</g>
<path transform="matrix(1,0,0,-1,0,360)" d="M459.23 88.92129H455.73"/>
<path transform="matrix(1,0,0,-1,0,360)" stroke-width=".8" stroke-linecap="butt" stroke-linejoin="round" fill="none" stroke="#000000" d="M459.23 88.92129H455.73"/>
<g clip-path="url(#clip_28)">
<path transform="matrix(1,0,0,-1,0,360)" stroke-width=".8" stroke-linecap="butt" stroke-dasharray="2.96,1.28" stroke-linejoin="round" fill="none" stroke="#bebebe" stroke-opacity=".4" d="M459.23 126.490329H853.2"/>
</g>
<path transform="matrix(1,0,0,-1,0,360)" d="M459.23 126.490329H455.73"/>
<path transform="matrix(1,0,0,-1,0,360)" stroke-width=".8" stroke-linecap="butt" stroke-linejoin="round" fill="none" stroke="#000000" d="M459.23 126.490329H455.73"/>
<g clip-path="url(#clip_29)">
<path transform="matrix(1,0,0,-1,0,360)" stroke-width=".8" stroke-linecap="butt" stroke-dasharray="2.96,1.28" stroke-linejoin="round" fill="none" stroke="#bebebe" stroke-opacity=".4" d="M459.23 164.05936H853.2"/>
</g>
<path transform="matrix(1,0,0,-1,0,360)" d="M459.23 164.05936H455.73"/>
<path transform="matrix(1,0,0,-1,0,360)" stroke-width=".8" stroke-linecap="butt" stroke-linejoin="round" fill="none" stroke="#000000" d="M459.23 164.05936H455.73"/>
<g clip-path="url(#clip_30)">
<path transform="matrix(1,0,0,-1,0,360)" stroke-width=".8" stroke-linecap="butt" stroke-dasharray="2.96,1.28" stroke-linejoin="round" fill="none" stroke="#bebebe" stroke-opacity=".4" d="M459.23 201.62839H853.2"/>
</g>
<path transform="matrix(1,0,0,-1,0,360)" d="M459.23 201.62839H455.73"/>
<path transform="matrix(1,0,0,-1,0,360)" stroke-width=".8" stroke-linecap="butt" stroke-linejoin="round" fill="none" stroke="#000000" d="M459.23 201.62839H455.73"/>
<g clip-path="url(#clip_31)">
<path transform="matrix(1,0,0,-1,0,360)" stroke-width=".8" stroke-linecap="butt" stroke-dasharray="2.96,1.28" stroke-linejoin="round" fill="none" stroke="#bebebe" stroke-opacity=".4" d="M459.23 239.19742H853.2"/>
</g>
<path transform="matrix(1,0,0,-1,0,360)" d="M459.23 239.19742H455.73"/>
<path transform="matrix(1,0,0,-1,0,360)" stroke-width=".8" stroke-linecap="butt" stroke-linejoin="round" fill="none" stroke="#000000" d="M459.23 239.19742H455.73"/>
<g clip-path="url(#clip_32)">
<path transform="matrix(1,0,0,-1,0,360)" stroke-width=".8" stroke-linecap="butt" stroke-dasharray="2.96,1.28" stroke-linejoin="round" fill="none" stroke="#bebebe" stroke-opacity=".4" d="M459.23 276.76646H853.2"/>
</g>
<path transform="matrix(1,0,0,-1,0,360)" d="M459.23 276.76646H455.73"/>
<path transform="matrix(1,0,0,-1,0,360)" stroke-width=".8" stroke-linecap="butt" stroke-linejoin="round" fill="none" stroke="#000000" d="M459.23 276.76646H455.73"/>
<g clip-path="url(#clip_33)">
<path transform="matrix(1,0,0,-1,0,360)" stroke-width=".8" stroke-linecap="butt" stroke-dasharray="2.96,1.28" stroke-linejoin="round" fill="none" stroke="#bebebe" stroke-opacity=".4" d="M459.23 314.33549H853.2"/>
</g>
<path transform="matrix(1,0,0,-1,0,360)" d="M459.23 314.33549H455.73"/>
<path transform="matrix(1,0,0,-1,0,360)" stroke-width=".8" stroke-linecap="butt" stroke-linejoin="round" fill="none" stroke="#000000" d="M459.23 314.33549H455.73"/>
<g clip-path="url(#clip_34)">
<path transform="matrix(1,0,0,-1,0,360)" stroke-width="1.5" stroke-linecap="square" stroke-linejoin="round" fill="none" stroke="#1f77b4" d="M477.13774 288.7406 484.447 196.29674 491.7563 174.70056 499.06556 163.73346 506.37486 155.37137 513.6841 149.49292 520.9934 144.80197 528.3027 147.38925 535.61196 142.50737 542.9212 137.31536 550.23049 138.45392 557.5398 133.29114 564.84909 129.53165 572.1583 127.672199 579.4676 132.5527 586.77688 130.85146 594.0861 129.32196 601.39547 132.96454 608.7047 126.18704 616.014 130.37152 623.32327 124.21955 630.6325 128.13545 637.94186 126.051349 645.2511 128.96913 652.56039 124.720928 659.8696 124.998859 667.1789 132.73725 674.4882 121.67259 681.7975 125.39931 689.10678 117.23406 696.416 124.54682 703.7253 128.54198 711.03457 122.55609 718.3439 129.58725 725.65316 118.23862 732.9624 124.99687 740.27169 126.53133 747.58096 125.991558 754.89028 125.0861 762.1995 122.03737 769.5088 119.33927 776.81808 119.39799 784.1273 120.59725 791.4366 120.7883 798.7459 122.62173 806.0552 121.47574 813.36447 123.347888 820.6737 119.79272 827.983 119.563777 835.2923 122.68648"/>
</g>
<g clip-path="url(#clip_35)">
<path transform="matrix(1,0,0,-1,0,360)" stroke-width="1.5" stroke-linecap="square" stroke-linejoin="round" fill="none" stroke="#ff7f0e" d="M477.13774 187.27693 484.447 163.71822 491.7563 155.26598 499.06556 151.03012 506.37486 140.41286 513.6841 133.32253 520.9934 136.34174 528.3027 134.92482 535.61196 137.45798 542.9212 132.20612 550.23049 126.33078 557.5398 123.98653 564.84909 127.29077 572.1583 121.946979 579.4676 120.62988 586.77688 118.76225 594.0861 129.72547 601.39547 118.982219 608.7047 124.94497 616.014 128.82558 623.32327 120.65105 630.6325 118.33054 637.94186 122.64365 645.2511 122.9624 652.56039 119.93739 659.8696 123.03807 667.1789 121.313358 674.4882 122.062488 681.7975 119.53614 689.10678 119.492137 696.416 115.87564 703.7253 120.81902 711.03457 121.32229 718.3439 129.6372 725.65316 115.659328 732.9624 125.94906 740.27169 113.53191 747.58096 126.31396 754.89028 116.326839 762.1995 118.61926 769.5088 123.21954 776.81808 116.695369 784.1273 119.17154 791.4366 120.570278 798.7459 119.94939 806.0552 118.92791 813.36447 119.68202 820.6737 117.73357 827.983 117.27673 835.2923 117.05459"/>
</g>
<path transform="matrix(1,0,0,-1,0,360)" stroke-width=".8" stroke-linecap="square" stroke-miterlimit="10" stroke-linejoin="miter" fill="none" stroke="#000000" d="M459.23 41.96V333.12"/>
<path transform="matrix(1,0,0,-1,0,360)" stroke-width=".8" stroke-linecap="square" stroke-miterlimit="10" stroke-linejoin="miter" fill="none" stroke="#000000" d="M853.2 41.96V333.12"/>
<path transform="matrix(1,0,0,-1,0,360)" stroke-width=".8" stroke-linecap="square" stroke-miterlimit="10" stroke-linejoin="miter" fill="none" stroke="#000000" d="M459.23 41.96H853.2"/>
<path transform="matrix(1,0,0,-1,0,360)" stroke-width=".8" stroke-linecap="square" stroke-miterlimit="10" stroke-linejoin="miter" fill="none" stroke="#000000" d="M459.23 333.12H853.2"/>
<text xml:space="preserve" transform="matrix(1 0 -0 1 581.9572 20.880005)" font-size="12" font-family="DejaVuSans"><tspan y="0" x="0 8.376 15.720001 23.328001 30.948002 34.284006 38.988008 42.324007 49.668008 57.27601 64.63201 67.96801 71.78401 79.99201 87.60001 92.304019 99.64802 107.028018 114.63602 121.236019 128.58002 136.20001 143.58002">Conditional Autoencoder</tspan></text>
<g>
<path transform="matrix(1,0,0,-1,0,360)" d="M739.575 295.77626H846.2C847.5333 295.77626 848.2 296.44294 848.2 297.77626V326.12C848.2 327.45335 847.5333 328.12 846.2 328.12H739.575C738.24166 328.12 737.575 327.45335 737.575 326.12V297.77626C737.575 296.44294 738.24166 295.77626 739.575 295.77626Z" fill="#ffffff" fill-opacity=".8"/>
<path transform="matrix(1,0,0,-1,0,360)" stroke-width="1" stroke-linecap="butt" stroke-miterlimit="10" stroke-linejoin="miter" fill="none" stroke="#d5d6d5" stroke-opacity=".8" d="M739.575 295.77626H846.2C847.5333 295.77626 848.2 296.44294 848.2 297.77626V326.12C848.2 327.45335 847.5333 328.12 846.2 328.12H739.575C738.24166 328.12 737.575 327.45335 737.575 326.12V297.77626C737.575 296.44294 738.24166 295.77626 739.575 295.77626Z"/>
</g>
<path transform="matrix(1,0,0,-1,0,360)" stroke-width="1.5" stroke-linecap="square" stroke-linejoin="round" fill="none" stroke="#1f77b4" d="M741.575 320.02626H751.575 761.575"/>
<text xml:space="preserve" transform="matrix(1 0 -0 1 769.575 43.473756)" font-size="10" font-family="DejaVuSans"><tspan y="0" x="0 4.64125 8.75125 14.88125 17.661252 24.001252 27.181252 32.579378 38.699377 43.909376">Train Loss</tspan></text>
<path transform="matrix(1,0,0,-1,0,360)" stroke-width="1.5" stroke-linecap="square" stroke-linejoin="round" fill="none" stroke="#ff7f0e" d="M741.575 305.35438H751.575 761.575"/>
<text xml:space="preserve" transform="matrix(1 0 -0 1 769.575 58.14563)" font-size="10" font-family="DejaVuSans"><tspan y="0" x="0 6.074375 12.204375 14.984375 17.764376 24.114377 30.244378 34.164377 36.944375 43.064374 49.404375 52.584375 57.9825 64.1025 69.3125">Validation Loss</tspan></text>
</svg>
