<svg xmlns="http://www.w3.org/2000/svg" xmlns:xlink="http://www.w3.org/1999/xlink" version="1.1" width="864" height="360" viewBox="0 0 864 360">
<defs>
<clipPath id="clip_0">
<path transform="matrix(1,0,0,-1,0,360)" d="M50.96 41.96H444.93V333.12H50.96Z"/>
</clipPath>
<clipPath id="clip_1">
<path transform="matrix(1,0,0,-1,0,360)" d="M50.96 41.96H444.93V333.12H50.96Z"/>
</clipPath>
<clipPath id="clip_2">
<path transform="matrix(1,0,0,-1,0,360)" d="M50.96 41.96H444.93V333.12H50.96Z"/>
</clipPath>
<clipPath id="clip_3">
<path transform="matrix(1,0,0,-1,0,360)" d="M50.96 41.96H444.93V333.12H50.96Z"/>
</clipPath>
<clipPath id="clip_4">
<path transform="matrix(1,0,0,-1,0,360)" d="M50.96 41.96H444.93V333.12H50.96Z"/>
</clipPath>
<clipPath id="clip_5">
<path transform="matrix(1,0,0,-1,0,360)" d="M50.96 41.96H444.93V333.12H50.96Z"/>
</clipPath>
<clipPath id="clip_6">
<path transform="matrix(1,0,0,-1,0,360)" d="M50.96 41.96H444.93V333.12H50.96Z"/>
</clipPath>
<clipPath id="clip_7">
<path transform="matrix(1,0,0,-1,0,360)" d="M50.96 41.96H444.93V333.12H50.96Z"/>
</clipPath>
<clipPath id="clip_8">
<path transform="matrix(1,0,0,-1,0,360)" d="M50.96 41.96H444.93V333.12H50.96Z"/>
</clipPath>
<clipPath id="clip_9">
<path transform="matrix(1,0,0,-1,0,360)" d="M50.96 41.96H444.93V333.12H50.96Z"/>
</clipPath>
<clipPath id="clip_10">
<path transform="matrix(1,0,0,-1,0,360)" d="M50.96 41.96H444.93V333.12H50.96Z"/>
</clipPath>
<clipPath id="clip_11">
<path transform="matrix(1,0,0,-1,0,360)" d="M50.96 41.96H444.93V333.12H50.96Z"/>
</clipPath>
<clipPath id="clip_12">
<path transform="matrix(1,0,0,-1,0,360)" d="M50.96 41.96H444.93V333.12H50.96Z"/>
</clipPath>
<clipPath id="clip_13">
<path transform="matrix(1,0,0,-1,0,360)" d="M50.96 41.96H444.93V333.12H50.96Z"/>
</clipPath>
<clipPath id="clip_14">
<path transform="matrix(1,0,0,-1,0,360)" d="M50.96 41.96H444.93V333.12H50.96Z"/>
</clipPath>
<clipPath id="clip_15">
<path transform="matrix(1,0,0,-1,0,360)" d="M50.96 41.96H444.93V333.12H50.96Z"/>
</clipPath>
<clipPath id="clip_16">
<path transform="matrix(1,0,0,-1,0,360)" d="M50.96 41.96H444.93V333.12H50.96Z"/>
</clipPath>
<clipPath id="clip_17">
<path transform="matrix(1,0,0,-1,0,360)" d="M50.96 41.96H444.93V333.12H50.96Z"/>
</clipPath>
<clipPath id="clip_18">
<path transform="matrix(1,0,0,-1,0,360)" d="M459.23 41.96H853.2V333.12H459.23Z"/>
</clipPath>
<clipPath id="clip_19">
<path transform="matrix(1,0,0,-1,0,360)" d="M459.23 41.96H853.2V333.12H459.23Z"/>
</clipPath>
<clipPath id="clip_20">
<path transform="matrix(1,0,0,-1,0,360)" d="M459.23 41.96H853.2V333.12H459.23Z"/>
</clipPath>
<clipPath id="clip_21">
<path transform="matrix(1,0,0,-1,0,360)" d="M459.23 41.96H853.2V333.12H459.23Z"/>
</clipPath>
<clipPath id="clip_22">
<path transform="matrix(1,0,0,-1,0,360)" d="M459.23 41.96H853.2V333.12H459.23Z"/>
</clipPath>
<clipPath id="clip_23">
<path transform="matrix(1,0,0,-1,0,360)" d="M459.23 41.96H853.2V333.12H459.23Z"/>
</clipPath>
<clipPath id="clip_24">
<path transform="matrix(1,0,0,-1,0,360)" d="M459.23 41.96H853.2V333.12H459.23Z"/>
</clipPath>
<clipPath id="clip_25">
<path transform="matrix(1,0,0,-1,0,360)" d="M459.23 41.96H853.2V333.12H459.23Z"/>
</clipPath>
<clipPath id="clip_26">
<path transform="matrix(1,0,0,-1,0,360)" d="M459.23 41.96H853.2V333.12H459.23Z"/>
</clipPath>
<clipPath id="clip_27">
<path transform="matrix(1,0,0,-1,0,360)" d="M459.23 41.96H853.2V333.12H459.23Z"/>
</clipPath>
<clipPath id="clip_28">
<path transform="matrix(1,0,0,-1,0,360)" d="M459.23 41.96H853.2V333.12H459.23Z"/>
</clipPath>
<clipPath id="clip_29">
<path transform="matrix(1,0,0,-1,0,360)" d="M459.23 41.96H853.2V333.12H459.23Z"/>
</clipPath>
<clipPath id="clip_30">
<path transform="matrix(1,0,0,-1,0,360)" d="M459.23 41.96H853.2V333.12H459.23Z"/>
</clipPath>
<clipPath id="clip_31">
<path transform="matrix(1,0,0,-1,0,360)" d="M459.23 41.96H853.2V333.12H459.23Z"/>
</clipPath>
<clipPath id="clip_32">
<path transform="matrix(1,0,0,-1,0,360)" d="M459.23 41.96H853.2V333.12H459.23Z"/>
</clipPath>
<clipPath id="clip_33">
<path transform="matrix(1,0,0,-1,0,360)" d="M459.23 41.96H853.2V333.12H459.23Z"/>
</clipPath>
<clipPath id="clip_34">
<path transform="matrix(1,0,0,-1,0,360)" d="M459.23 41.96H853.2V333.12H459.23Z"/>
</clipPath>
<clipPath id="clip_35">
<path transform="matrix(1,0,0,-1,0,360)" d="M459.23 41.96H853.2V333.12H459.23Z"/>
</clipPath>
</defs>
<path transform="matrix(1,0,0,-1,0,360)" d="M0 0H864V360H0Z" fill="#ffffff"/>
<path transform="matrix(1,0,0,-1,0,360)" d="M50.96 41.96H444.93V333.12H50.96Z" fill="#ffffff"/>
<g clip-path="url(#clip_0)">
<path transform="matrix(1,0,0,-1,0,360)" d="M68.86773 321.71498V310.4819L76.177 246.5736 83.48628 227.53815 90.795558 217.52802 98.104839 213.29216 105.41411 210.79431 112.72339 206.27285 120.03266 202.58739 127.34194 198.1052 134.65122 200.46926 141.9605 195.83319 149.26978 196.43885 156.57904 195.18407 163.88832 197.47168 171.1976 195.96237 178.50687 192.00658 185.81615 190.60576 193.12543 190.82836 200.43471 190.89116 207.74398 189.29102 215.05326 188.84644 222.36254 192.85019 229.67182 188.84377 236.98108 185.38809 244.29036 188.68273 251.59964 187.71515 258.9089 183.35167 266.2182 189.08238 273.52748 185.91648 280.83674 184.82483 288.14604 185.62226 295.4553 184.52252 302.7646 185.2964 310.07386 185.28133 317.38313 182.47602 324.6924 185.09484 332.00169 182.82924 339.31095 184.65642 346.62025 183.30617 353.9295 180.83847 361.2388 181.88967 368.54808 182.22492 375.85734 184.15746 383.16664 183.99942 390.4759 184.03264 397.78517 182.13228 405.09446 177.61835 412.40373 184.02309 419.71299 183.16344 427.02229 181.18166V187.44614L419.71299 187.62699 412.40373 189.13747 405.09446 189.0524 397.78517 187.44664 390.4759 189.37494 383.16664 189.33625 375.85734 188.17417 368.54808 193.16362 361.2388 188.24929 353.9295 187.32135 346.62025 192.5866 339.31095 192.23888 332.00169 194.46186 324.6924 190.72664 317.38313 188.55623 310.07386 190.90535 302.7646 189.88794 295.4553 192.80103 288.14604 191.47402 280.83674 190.8286 273.52748 192.54703 266.2182 191.16649 258.9089 191.46475 251.59964 195.56906 244.29036 195.15438 236.98108 192.88936 229.67182 191.99204 222.36254 197.20104 215.05326 193.95586 207.74398 196.79019 200.43471 195.12856 193.12543 198.81612 185.81615 193.57166 178.50687 196.33853 171.1976 202.9644 163.88832 199.64038 156.57904 198.26403 149.26978 201.29625 141.9605 205.19837 134.65122 208.1017 127.34194 204.61646 120.03266 213.28992 112.72339 211.46367 105.41411 216.2836 98.104839 217.5329 90.795558 223.8259 83.48628 232.3708 76.177 253.35391 68.86773 321.71498Z" fill="#1f77b4" fill-opacity=".1"/>
</g>
<g clip-path="url(#clip_1)">
<path transform="matrix(1,0,0,-1,0,360)" d="M68.86773 256.3163V244.20127L76.177 206.04219 83.48628 201.6533 90.795558 194.3694 98.104839 195.83304 105.41411 191.34185 112.72339 188.86608 120.03266 183.88665 127.34194 189.575 134.65122 185.87564 141.9605 183.19446 149.26978 184.77826 156.57904 183.53359 163.88832 181.6995 171.1976 183.74192 178.50687 180.91793 185.81615 181.2651 193.12543 181.44802 200.43471 183.0567 207.74398 182.21642 215.05326 179.44466 222.36254 181.0864 229.67182 178.01616 236.98108 180.87966 244.29036 180.54305 251.59964 174.83621 258.9089 177.36112 266.2182 174.85854 273.52748 180.82256 280.83674 181.8317 288.14604 180.24997 295.4553 175.35852 302.7646 176.86566 310.07386 183.36554 317.38313 181.15964 324.6924 182.60674 332.00169 173.84819 339.31095 178.43369 346.62025 176.98493 353.9295 178.31388 361.2388 176.45838 368.54808 175.59383 375.85734 175.97872 383.16664 174.37715 390.4759 173.22258 397.78517 178.08974 405.09446 173.22936 412.40373 177.39156 419.71299 175.3473 427.02229 177.643V184.88301L419.71299 182.5836 412.40373 180.90485 405.09446 180.10294 397.78517 182.24246 390.4759 186.04184 383.16664 181.23589 375.85734 183.76 368.54808 182.98862 361.2388 181.51709 353.9295 185.50296 346.62025 184.72472 339.31095 180.65496 332.00169 180.32881 324.6924 184.67246 317.38313 187.42421 310.07386 186.219 302.7646 185.78032 295.4553 180.43466 288.14604 184.37194 280.83674 183.86507 273.52748 188.36597 266.2182 182.43901 258.9089 187.60274 251.59964 180.09645 244.29036 186.70786 236.98108 185.34726 229.67182 185.22531 222.36254 188.24866 215.05326 185.31233 207.74398 189.73615 200.43471 187.71657 193.12543 187.62619 185.81615 184.15984 178.50687 187.10778 171.1976 190.42769 163.88832 190.71823 156.57904 198.86309 149.26978 192.70568 141.9605 191.28633 134.65122 188.24332 127.34194 195.936 120.03266 193.06087 112.72339 197.5249 105.41411 202.0916 98.104839 201.9963 90.795558 200.92733 83.48628 209.89043 76.177 214.8119 68.86773 256.3163Z" fill="#ff7f0e" fill-opacity=".1"/>
</g>
<g clip-path="url(#clip_2)">
<path transform="matrix(1,0,0,-1,0,360)" stroke-width=".8" stroke-linecap="butt" stroke-dasharray="2.96,1.28" stroke-linejoin="round" fill="none" stroke="#bebebe" stroke-opacity=".4" d="M68.86773 41.96V333.12"/>
</g>
<path transform="matrix(1,0,0,-1,0,360)" d="M68.86773 41.96V38.46"/>
<path transform="matrix(1,0,0,-1,0,360)" stroke-width=".8" stroke-linecap="butt" stroke-linejoin="round" fill="none" stroke="#000000" d="M68.86773 41.96V38.46"/>
<text xml:space="preserve" transform="matrix(1 0 -0 1 65.68804 332.63377)" font-size="10" font-family="DejaVuSans"><tspan y="0" x="0">0</tspan></text>
<g clip-path="url(#clip_3)">
<path transform="matrix(1,0,0,-1,0,360)" stroke-width=".8" stroke-linecap="butt" stroke-dasharray="2.96,1.28" stroke-linejoin="round" fill="none" stroke="#bebebe" stroke-opacity=".4" d="M141.9605 41.96V333.12"/>
</g>
<path transform="matrix(1,0,0,-1,0,360)" d="M141.9605 41.96V38.46"/>
<path transform="matrix(1,0,0,-1,0,360)" stroke-width=".8" stroke-linecap="butt" stroke-linejoin="round" fill="none" stroke="#000000" d="M141.9605 41.96V38.46"/>
<text xml:space="preserve" transform="matrix(1 0 -0 1 135.60112 332.63377)" font-size="10" font-family="DejaVuSans"><tspan y="0" x="0 6.3600008">10</tspan></text>
<g clip-path="url(#clip_4)">
<path transform="matrix(1,0,0,-1,0,360)" stroke-width=".8" stroke-linecap="butt" stroke-dasharray="2.96,1.28" stroke-linejoin="round" fill="none" stroke="#bebebe" stroke-opacity=".4" d="M215.05326 41.96V333.12"/>
</g>
<path transform="matrix(1,0,0,-1,0,360)" d="M215.05326 41.96V38.46"/>
<path transform="matrix(1,0,0,-1,0,360)" stroke-width=".8" stroke-linecap="butt" stroke-linejoin="round" fill="none" stroke="#000000" d="M215.05326 41.96V38.46"/>
<text xml:space="preserve" transform="matrix(1 0 -0 1 208.69388 332.63377)" font-size="10" font-family="DejaVuSans"><tspan y="0" x="0 6.3600008">20</tspan></text>
<g clip-path="url(#clip_5)">
<path transform="matrix(1,0,0,-1,0,360)" stroke-width=".8" stroke-linecap="butt" stroke-dasharray="2.96,1.28" stroke-linejoin="round" fill="none" stroke="#bebebe" stroke-opacity=".4" d="M288.14604 41.96V333.12"/>
</g>
<path transform="matrix(1,0,0,-1,0,360)" d="M288.14604 41.96V38.46"/>
<path transform="matrix(1,0,0,-1,0,360)" stroke-width=".8" stroke-linecap="butt" stroke-linejoin="round" fill="none" stroke="#000000" d="M288.14604 41.96V38.46"/>
<text xml:space="preserve" transform="matrix(1 0 -0 1 281.78666 332.63377)" font-size="10" font-family="DejaVuSans"><tspan y="0" x="0 6.3600008">30</tspan></text>
<g clip-path="url(#clip_6)">
<path transform="matrix(1,0,0,-1,0,360)" stroke-width=".8" stroke-linecap="butt" stroke-dasharray="2.96,1.28" stroke-linejoin="round" fill="none" stroke="#bebebe" stroke-opacity=".4" d="M361.2388 41.96V333.12"/>
</g>
<path transform="matrix(1,0,0,-1,0,360)" d="M361.2388 41.96V38.46"/>
<path transform="matrix(1,0,0,-1,0,360)" stroke-width=".8" stroke-linecap="butt" stroke-linejoin="round" fill="none" stroke="#000000" d="M361.2388 41.96V38.46"/>
<text xml:space="preserve" transform="matrix(1 0 -0 1 354.8794 332.63377)" font-size="10" font-family="DejaVuSans"><tspan y="0" x="0 6.3600008">40</tspan></text>
<g clip-path="url(#clip_7)">
<path transform="matrix(1,0,0,-1,0,360)" stroke-width=".8" stroke-linecap="butt" stroke-dasharray="2.96,1.28" stroke-linejoin="round" fill="none" stroke="#bebebe" stroke-opacity=".4" d="M434.33155 41.96V333.12"/>
</g>
<path transform="matrix(1,0,0,-1,0,360)" d="M434.33155 41.96V38.46"/>
<path transform="matrix(1,0,0,-1,0,360)" stroke-width=".8" stroke-linecap="butt" stroke-linejoin="round" fill="none" stroke="#000000" d="M434.33155 41.96V38.46"/>
<text xml:space="preserve" transform="matrix(1 0 -0 1 427.97218 332.63377)" font-size="10" font-family="DejaVuSans"><tspan y="0" x="0 6.3600008">50</tspan></text>
<text xml:space="preserve" transform="matrix(1 0 -0 1 232.6325 346.30564)" font-size="10" font-family="DejaVuSans"><tspan y="0" x="0 6.32 12.67 18.79 24.29">Epoch</tspan></text>
<g clip-path="url(#clip_8)">
<path transform="matrix(1,0,0,-1,0,360)" stroke-width=".8" stroke-linecap="butt" stroke-dasharray="2.96,1.28" stroke-linejoin="round" fill="none" stroke="#bebebe" stroke-opacity=".4" d="M50.96 51.352258H444.93"/>
</g>
<path transform="matrix(1,0,0,-1,0,360)" d="M50.96 51.352258H47.46"/>
<path transform="matrix(1,0,0,-1,0,360)" stroke-width=".8" stroke-linecap="butt" stroke-linejoin="round" fill="none" stroke="#000000" d="M50.96 51.352258H47.46"/>
<text xml:space="preserve" transform="matrix(1 0 -0 1 31.24125 312.4446)" font-size="10" font-family="DejaVuSans"><tspan y="0" x="0 6.3600008">60</tspan></text>
<g clip-path="url(#clip_9)">
<path transform="matrix(1,0,0,-1,0,360)" stroke-width=".8" stroke-linecap="butt" stroke-dasharray="2.96,1.28" stroke-linejoin="round" fill="none" stroke="#bebebe" stroke-opacity=".4" d="M50.96 88.92129H444.93"/>
</g>
<path transform="matrix(1,0,0,-1,0,360)" d="M50.96 88.92129H47.46"/>
<path transform="matrix(1,0,0,-1,0,360)" stroke-width=".8" stroke-linecap="butt" stroke-linejoin="round" fill="none" stroke="#000000" d="M50.96 88.92129H47.46"/>
<text xml:space="preserve" transform="matrix(1 0 -0 1 31.24125 274.87559)" font-size="10" font-family="DejaVuSans"><tspan y="0" x="0 6.3600008">80</tspan></text>
<g clip-path="url(#clip_10)">
<path transform="matrix(1,0,0,-1,0,360)" stroke-width=".8" stroke-linecap="butt" stroke-dasharray="2.96,1.28" stroke-linejoin="round" fill="none" stroke="#bebebe" stroke-opacity=".4" d="M50.96 126.490329H444.93"/>
</g>
<path transform="matrix(1,0,0,-1,0,360)" d="M50.96 126.490329H47.46"/>
<path transform="matrix(1,0,0,-1,0,360)" stroke-width=".8" stroke-linecap="butt" stroke-linejoin="round" fill="none" stroke="#000000" d="M50.96 126.490329H47.46"/>
<text xml:space="preserve" transform="matrix(1 0 -0 1 24.881875 237.30655)" font-size="10" font-family="DejaVuSans"><tspan y="0" x="0 6.3600008 12.720001">100</tspan></text>
<g clip-path="url(#clip_11)">
<path transform="matrix(1,0,0,-1,0,360)" stroke-width=".8" stroke-linecap="butt" stroke-dasharray="2.96,1.28" stroke-linejoin="round" fill="none" stroke="#bebebe" stroke-opacity=".4" d="M50.96 164.05936H444.93"/>
</g>
<path transform="matrix(1,0,0,-1,0,360)" d="M50.96 164.05936H47.46"/>
<path transform="matrix(1,0,0,-1,0,360)" stroke-width=".8" stroke-linecap="butt" stroke-linejoin="round" fill="none" stroke="#000000" d="M50.96 164.05936H47.46"/>
<text xml:space="preserve" transform="matrix(1 0 -0 1 24.881875 199.73752)" font-size="10" font-family="DejaVuSans"><tspan y="0" x="0 6.3600008 12.720001">120</tspan></text>
<g clip-path="url(#clip_12)">
<path transform="matrix(1,0,0,-1,0,360)" stroke-width=".8" stroke-linecap="butt" stroke-dasharray="2.96,1.28" stroke-linejoin="round" fill="none" stroke="#bebebe" stroke-opacity=".4" d="M50.96 201.62839H444.93"/>
</g>
<path transform="matrix(1,0,0,-1,0,360)" d="M50.96 201.62839H47.46"/>
<path transform="matrix(1,0,0,-1,0,360)" stroke-width=".8" stroke-linecap="butt" stroke-linejoin="round" fill="none" stroke="#000000" d="M50.96 201.62839H47.46"/>
<text xml:space="preserve" transform="matrix(1 0 -0 1 24.881875 162.16849)" font-size="10" font-family="DejaVuSans"><tspan y="0" x="0 6.3600008 12.720001">140</tspan></text>
<g clip-path="url(#clip_13)">
<path transform="matrix(1,0,0,-1,0,360)" stroke-width=".8" stroke-linecap="butt" stroke-dasharray="2.96,1.28" stroke-linejoin="round" fill="none" stroke="#bebebe" stroke-opacity=".4" d="M50.96 239.19742H444.93"/>
</g>
<path transform="matrix(1,0,0,-1,0,360)" d="M50.96 239.19742H47.46"/>
<path transform="matrix(1,0,0,-1,0,360)" stroke-width=".8" stroke-linecap="butt" stroke-linejoin="round" fill="none" stroke="#000000" d="M50.96 239.19742H47.46"/>
<text xml:space="preserve" transform="matrix(1 0 -0 1 24.881875 124.59946)" font-size="10" font-family="DejaVuSans"><tspan y="0" x="0 6.3600008 12.720001">160</tspan></text>
<g clip-path="url(#clip_14)">
<path transform="matrix(1,0,0,-1,0,360)" stroke-width=".8" stroke-linecap="butt" stroke-dasharray="2.96,1.28" stroke-linejoin="round" fill="none" stroke="#bebebe" stroke-opacity=".4" d="M50.96 276.76646H444.93"/>
</g>
<path transform="matrix(1,0,0,-1,0,360)" d="M50.96 276.76646H47.46"/>
<path transform="matrix(1,0,0,-1,0,360)" stroke-width=".8" stroke-linecap="butt" stroke-linejoin="round" fill="none" stroke="#000000" d="M50.96 276.76646H47.46"/>
<text xml:space="preserve" transform="matrix(1 0 -0 1 24.881875 87.030429)" font-size="10" font-family="DejaVuSans"><tspan y="0" x="0 6.3600008 12.720001">180</tspan></text>
<g clip-path="url(#clip_15)">
<path transform="matrix(1,0,0,-1,0,360)" stroke-width=".8" stroke-linecap="butt" stroke-dasharray="2.96,1.28" stroke-linejoin="round" fill="none" stroke="#bebebe" stroke-opacity=".4" d="M50.96 314.33549H444.93"/>
</g>
<path transform="matrix(1,0,0,-1,0,360)" d="M50.96 314.33549H47.46"/>
<path transform="matrix(1,0,0,-1,0,360)" stroke-width=".8" stroke-linecap="butt" stroke-linejoin="round" fill="none" stroke="#000000" d="M50.96 314.33549H47.46"/>
<text xml:space="preserve" transform="matrix(1 0 -0 1 24.881875 49.461397)" font-size="10" font-family="DejaVuSans"><tspan y="0" x="0 6.3600008 12.720001">200</tspan></text>
<text xml:space="preserve" transform="matrix(0 -1 1 0 18.80375 183.46782)" font-size="10" font-family="DejaVuSans"><tspan y="0" x="0 5.3981258 11.518126 16.728127">Loss</tspan></text>
<g clip-path="url(#clip_16)">
<path transform="matrix(1,0,0,-1,0,360)" stroke-width="1.5" stroke-linecap="square" stroke-linejoin="round" fill="none" stroke="#1f77b4" d="M68.86773 316.09843 76.177 249.96375 83.48628 229.95449 90.795558 220.67696 98.104839 215.41252 105.41411 213.53896 112.72339 208.86826 120.03266 207.93866 127.34194 201.36083 134.65122 204.28548 141.9605 200.51578 149.26978 198.86754 156.57904 196.72405 163.88832 198.55603 171.1976 199.46338 178.50687 194.17256 185.81615 192.08872 193.12543 194.82224 200.43471 193.00986 207.74398 193.0406 215.05326 191.40114 222.36254 195.0256 229.67182 190.4179 236.98108 189.13874 244.29036 191.91855 251.59964 191.6421 258.9089 187.4082 266.2182 190.12444 273.52748 189.23175 280.83674 187.82672 288.14604 188.54813 295.4553 188.66178 302.7646 187.59218 310.07386 188.09334 317.38313 185.51613 324.6924 187.91074 332.00169 188.64554 339.31095 188.44765 346.62025 187.94638 353.9295 184.07991 361.2388 185.06948 368.54808 187.69426 375.85734 186.16582 383.16664 186.66783 390.4759 186.7038 397.78517 184.78946 405.09446 183.33538 412.40373 186.58028 419.71299 185.39522 427.02229 184.3139"/>
</g>
<g clip-path="url(#clip_17)">
<path transform="matrix(1,0,0,-1,0,360)" stroke-width="1.5" stroke-linecap="square" stroke-linejoin="round" fill="none" stroke="#ff7f0e" d="M68.86773 250.25879 76.177 210.42705 83.48628 205.77187 90.795558 197.64836 98.104839 198.91468 105.41411 196.71672 112.72339 193.1955 120.03266 188.47376 127.34194 192.7555 134.65122 187.05948 141.9605 187.24039 149.26978 188.74198 156.57904 191.19834 163.88832 186.20886 171.1976 187.0848 178.50687 184.01285 185.81615 182.71247 193.12543 184.53711 200.43471 185.38663 207.74398 185.97629 215.05326 182.3785 222.36254 184.66753 229.67182 181.62075 236.98108 183.11347 244.29036 183.62545 251.59964 177.46633 258.9089 182.48194 266.2182 178.64878 273.52748 184.59427 280.83674 182.84838 288.14604 182.31096 295.4553 177.89659 302.7646 181.32299 310.07386 184.79227 317.38313 184.29193 324.6924 183.63959 332.00169 177.0885 339.31095 179.54433 346.62025 180.85482 353.9295 181.90842 361.2388 178.98773 368.54808 179.29123 375.85734 179.86936 383.16664 177.80652 390.4759 179.6322 397.78517 180.16609 405.09446 176.66616 412.40373 179.14821 419.71299 178.96546 427.02229 181.263"/>
</g>
<path transform="matrix(1,0,0,-1,0,360)" stroke-width=".8" stroke-linecap="square" stroke-miterlimit="10" stroke-linejoin="miter" fill="none" stroke="#000000" d="M50.96 41.96V333.12"/>
<path transform="matrix(1,0,0,-1,0,360)" stroke-width=".8" stroke-linecap="square" stroke-miterlimit="10" stroke-linejoin="miter" fill="none" stroke="#000000" d="M444.93 41.96V333.12"/>
<path transform="matrix(1,0,0,-1,0,360)" stroke-width=".8" stroke-linecap="square" stroke-miterlimit="10" stroke-linejoin="miter" fill="none" stroke="#000000" d="M50.96 41.96H444.93"/>
<path transform="matrix(1,0,0,-1,0,360)" stroke-width=".8" stroke-linecap="square" stroke-miterlimit="10" stroke-linejoin="miter" fill="none" stroke="#000000" d="M50.96 333.12H444.93"/>
<text xml:space="preserve" transform="matrix(1 0 -0 1 175.67156 20.880005)" font-size="12" font-family="DejaVuSans"><tspan y="0" x="0 7.286125 14.642126 19.574128 22.910128 30.266129 34.97013 38.30613 45.65013 53.258134 60.614133 63.950136 67.766139 75.97414 83.58214 88.28614 95.63014 103.01014 110.61814 117.21814 124.56214 132.18215 139.56215">Variational Autoencoder</tspan></text>
<path transform="matrix(1,0,0,-1,0,360)" d="M459.23 41.96H853.2V333.12H459.23Z" fill="#ffffff"/>
<g clip-path="url(#clip_18)">
<path transform="matrix(1,0,0,-1,0,360)" d="M477.13774 286.068V274.43226L484.447 188.16727 491.7563 168.11077 499.06556 161.51186 506.37486 153.63027 513.6841 146.30413 520.9934 141.87805 528.3027 146.08707 535.61196 134.85796 542.9212 137.9848 550.23049 133.3268 557.5398 134.57544 564.84909 135.4308 572.1583 134.30261 579.4676 133.71009 586.77688 135.98938 594.0861 135.26512 601.39547 131.91796 608.7047 128.6267 616.014 127.37146 623.32327 125.139087 630.6325 131.03113 637.94186 128.91059 645.2511 127.895069 652.56039 131.01631 659.8696 126.48638 667.1789 127.09032 674.4882 122.71528 681.7975 126.65996 689.10678 129.72205 696.416 129.75417 703.7253 124.897968 711.03457 128.03354 718.3439 123.161708 725.65316 123.847209 732.9624 121.67507 740.27169 117.92692 747.58096 124.91588 754.89028 126.346828 762.1995 125.548618 769.5088 124.87062 776.81808 128.3549 784.1273 126.620319 791.4366 127.19323 798.7459 120.066509 806.0552 118.56313 813.36447 122.89094 820.6737 121.51638 827.983 120.632839 835.2923 120.8023V132.52776L827.983 132.92012 820.6737 126.46079 813.36447 137.12354 806.0552 124.40083 798.7459 134.04846 791.4366 138.05176 784.1273 129.41602 776.81808 135.5407 769.5088 136.43183 762.1995 133.60208 754.89028 133.54254 747.58096 134.77529 740.27169 133.31433 732.9624 132.77158 725.65316 131.29662 718.3439 137.56534 711.03457 131.54862 703.7253 134.45818 696.416 133.25258 689.10678 132.06024 681.7975 134.58629 674.4882 134.54779 667.1789 140.08452 659.8696 133.49773 652.56039 141.22933 645.2511 137.28253 637.94186 135.93567 630.6325 137.68999 623.32327 138.21352 616.014 136.77269 608.7047 135.88468 601.39547 135.4456 594.0861 139.9577 586.77688 141.20893 579.4676 137.9407 572.1583 142.2365 564.84909 142.90471 557.5398 142.23616 550.23049 140.47855 542.9212 144.99976 535.61196 143.98346 528.3027 155.8648 520.9934 154.2042 513.6841 147.94911 506.37486 160.34865 499.06556 167.86647 491.7563 174.59389 484.447 196.3084 477.13774 286.068Z" fill="#1f77b4" fill-opacity=".1"/>
</g>
<g clip-path="url(#clip_19)">
<path transform="matrix(1,0,0,-1,0,360)" d="M477.13774 187.46006V178.79953L484.447 157.81381 491.7563 146.20287 499.06556 143.14974 506.37486 138.7112 513.6841 135.56365 520.9934 134.75496 528.3027 131.50296 535.61196 125.90875 542.9212 126.27969 550.23049 130.76145 557.5398 128.8665 564.84909 130.27895 572.1583 126.87545 579.4676 125.66668 586.77688 125.37589 594.0861 123.7746 601.39547 126.631427 608.7047 125.857707 616.014 126.08909 623.32327 117.15146 630.6325 123.0903 637.94186 128.01474 645.2511 123.895259 652.56039 126.34719 659.8696 122.8364 667.1789 121.43884 674.4882 119.87403 681.7975 132.26486 689.10678 120.896228 696.416 121.90528 703.7253 120.49366 711.03457 130.94918 718.3439 121.14372 725.65316 122.72259 732.9624 128.3029 740.27169 118.67711 747.58096 129.04509 754.89028 130.3194 762.1995 133.04183 769.5088 121.20269 776.81808 123.15654 784.1273 129.14496 791.4366 120.727588 798.7459 124.59246 806.0552 121.14241 813.36447 127.30396 820.6737 124.772029 827.983 122.06293 835.2923 120.5131V133.19225L827.983 134.31201 820.6737 136.72324 813.36447 133.76142 806.0552 139.19437 798.7459 130.68437 791.4366 134.21927 784.1273 133.325 776.81808 136.56781 769.5088 137.2935 762.1995 142.10146 754.89028 139.3405 747.58096 136.35923 740.27169 132.4716 732.9624 137.53032 725.65316 127.37918 718.3439 132.83663 711.03457 139.18015 703.7253 138.70514 696.416 125.0971 689.10678 133.04116 681.7975 139.01422 674.4882 136.77834 667.1789 133.86737 659.8696 140.15404 652.56039 134.37046 645.2511 140.06124 637.94186 140.03525 630.6325 133.15073 623.32327 132.8054 616.014 132.09232 608.7047 136.23738 601.39547 130.90346 594.0861 131.53264 586.77688 138.05469 579.4676 133.56722 572.1583 133.49025 564.84909 136.80283 557.5398 142.77295 550.23049 142.12149 542.9212 139.63983 535.61196 141.81417 528.3027 136.86042 520.9934 141.94286 513.6841 142.993 506.37486 146.76828 499.06556 153.56467 491.7563 158.30568 484.447 170.23651 477.13774 187.46006Z" fill="#ff7f0e" fill-opacity=".1"/>
</g>
<g clip-path="url(#clip_20)">
<path transform="matrix(1,0,0,-1,0,360)" stroke-width=".8" stroke-linecap="butt" stroke-dasharray="2.96,1.28" stroke-linejoin="round" fill="none" stroke="#bebebe" stroke-opacity=".4" d="M477.13774 41.96V333.12"/>
</g>
<path transform="matrix(1,0,0,-1,0,360)" d="M477.13774 41.96V38.46"/>
<path transform="matrix(1,0,0,-1,0,360)" stroke-width=".8" stroke-linecap="butt" stroke-linejoin="round" fill="none" stroke="#000000" d="M477.13774 41.96V38.46"/>
<text xml:space="preserve" transform="matrix(1 0 -0 1 473.95805 332.63377)" font-size="10" font-family="DejaVuSans"><tspan y="0" x="0">0</tspan></text>
<g clip-path="url(#clip_21)">
<path transform="matrix(1,0,0,-1,0,360)" stroke-width=".8" stroke-linecap="butt" stroke-dasharray="2.96,1.28" stroke-linejoin="round" fill="none" stroke="#bebebe" stroke-opacity=".4" d="M550.23049 41.96V333.12"/>
</g>
<path transform="matrix(1,0,0,-1,0,360)" d="M550.23049 41.96V38.46"/>
<path transform="matrix(1,0,0,-1,0,360)" stroke-width=".8" stroke-linecap="butt" stroke-linejoin="round" fill="none" stroke="#000000" d="M550.23049 41.96V38.46"/>
<text xml:space="preserve" transform="matrix(1 0 -0 1 543.8711 332.63377)" font-size="10" font-family="DejaVuSans"><tspan y="0" x="0 6.3600008">10</tspan></text>
<g clip-path="url(#clip_22)">
<path transform="matrix(1,0,0,-1,0,360)" stroke-width=".8" stroke-linecap="butt" stroke-dasharray="2.96,1.28" stroke-linejoin="round" fill="none" stroke="#bebebe" stroke-opacity=".4" d="M623.32327 41.96V333.12"/>
</g>
<path transform="matrix(1,0,0,-1,0,360)" d="M623.32327 41.96V38.46"/>
<path transform="matrix(1,0,0,-1,0,360)" stroke-width=".8" stroke-linecap="butt" stroke-linejoin="round" fill="none" stroke="#000000" d="M623.32327 41.96V38.46"/>
<text xml:space="preserve" transform="matrix(1 0 -0 1 616.96389 332.63377)" font-size="10" font-family="DejaVuSans"><tspan y="0" x="0 6.3600008">20</tspan></text>
<g clip-path="url(#clip_23)">
<path transform="matrix(1,0,0,-1,0,360)" stroke-width=".8" stroke-linecap="butt" stroke-dasharray="2.96,1.28" stroke-linejoin="round" fill="none" stroke="#bebebe" stroke-opacity=".4" d="M696.416 41.96V333.12"/>
</g>
<path transform="matrix(1,0,0,-1,0,360)" d="M696.416 41.96V38.46"/>
<path transform="matrix(1,0,0,-1,0,360)" stroke-width=".8" stroke-linecap="butt" stroke-linejoin="round" fill="none" stroke="#000000" d="M696.416 41.96V38.46"/>
<text xml:space="preserve" transform="matrix(1 0 -0 1 690.05667 332.63377)" font-size="10" font-family="DejaVuSans"><tspan y="0" x="0 6.3600008">30</tspan></text>
<g clip-path="url(#clip_24)">
<path transform="matrix(1,0,0,-1,0,360)" stroke-width=".8" stroke-linecap="butt" stroke-dasharray="2.96,1.28" stroke-linejoin="round" fill="none" stroke="#bebebe" stroke-opacity=".4" d="M769.5088 41.96V333.12"/>
</g>
<path transform="matrix(1,0,0,-1,0,360)" d="M769.5088 41.96V38.46"/>
<path transform="matrix(1,0,0,-1,0,360)" stroke-width=".8" stroke-linecap="butt" stroke-linejoin="round" fill="none" stroke="#000000" d="M769.5088 41.96V38.46"/>
<text xml:space="preserve" transform="matrix(1 0 -0 1 763.1494 332.63377)" font-size="10" font-family="DejaVuSans"><tspan y="0" x="0 6.3600008">40</tspan></text>
<g clip-path="url(#clip_25)">
<path transform="matrix(1,0,0,-1,0,360)" stroke-width=".8" stroke-linecap="butt" stroke-dasharray="2.96,1.28" stroke-linejoin="round" fill="none" stroke="#bebebe" stroke-opacity=".4" d="M842.60159 41.96V333.12"/>
</g>
<path transform="matrix(1,0,0,-1,0,360)" d="M842.60159 41.96V38.46"/>
<path transform="matrix(1,0,0,-1,0,360)" stroke-width=".8" stroke-linecap="butt" stroke-linejoin="round" fill="none" stroke="#000000" d="M842.60159 41.96V38.46"/>
<text xml:space="preserve" transform="matrix(1 0 -0 1 836.2422 332.63377)" font-size="10" font-family="DejaVuSans"><tspan y="0" x="0 6.3600008">50</tspan></text>
<text xml:space="preserve" transform="matrix(1 0 -0 1 640.9025 346.30564)" font-size="10" font-family="DejaVuSans"><tspan y="0" x="0 6.32 12.67 18.79 24.29">Epoch</tspan></text>
<g clip-path="url(#clip_26)">
<path transform="matrix(1,0,0,-1,0,360)" stroke-width=".8" stroke-linecap="butt" stroke-dasharray="2.96,1.28" stroke-linejoin="round" fill="none" stroke="#bebebe" stroke-opacity=".4" d="M459.23 51.352258H853.2"/>
</g>
<path transform="matrix(1,0,0,-1,0,360)" d="M459.23 51.352258H455.73"/>
<path transform="matrix(1,0,0,-1,0,360)" stroke-width=".8" stroke-linecap="butt" stroke-linejoin="round" fill="none" stroke="#000000" d="M459.23 51.352258H455.73"/>
<g clip-path="url(#clip_27)">
<path transform="matrix(1,0,0,-1,0,360)" stroke-width=".8" stroke-linecap="butt" stroke-dasharray="2.96,1.28" stroke-linejoin="round" fill="none" stroke="#bebebe" stroke-opacity=".4" d="M459.23 88.92129H853.2"/>
</g>
<path transform="matrix(1,0,0,-1,0,360)" d="M459.23 88.92129H455.73"/>
<path transform="matrix(1,0,0,-1,0,360)" stroke-width=".8" stroke-linecap="butt" stroke-linejoin="round" fill="none" stroke="#000000" d="M459.23 88.92129H455.73"/>
<g clip-path="url(#clip_28)">
<path transform="matrix(1,0,0,-1,0,360)" stroke-width=".8" stroke-linecap="butt" stroke-dasharray="2.96,1.28" stroke-linejoin="round" fill="none" stroke="#bebebe" stroke-opacity=".4" d="M459.23 126.490329H853.2"/>
</g>
<path transform="matrix(1,0,0,-1,0,360)" d="M459.23 126.490329H455.73"/>
<path transform="matrix(1,0,0,-1,0,360)" stroke-width=".8" stroke-linecap="butt" stroke-linejoin="round" fill="none" stroke="#000000" d="M459.23 126.490329H455.73"/>
<g clip-path="url(#clip_29)">
<path transform="matrix(1,0,0,-1,0,360)" stroke-width=".8" stroke-linecap="butt" stroke-dasharray="2.96,1.28" stroke-linejoin="round" fill="none" stroke="#bebebe" stroke-opacity=".4" d="M459.23 164.05936H853.2"/>
</g>
<path transform="matrix(1,0,0,-1,0,360)" d="M459.23 164.05936H455.73"/>
<path transform="matrix(1,0,0,-1,0,360)" stroke-width=".8" stroke-linecap="butt" stroke-linejoin="round" fill="none" stroke="#000000" d="M459.23 164.05936H455.73"/>
<g clip-path="url(#clip_30)">
<path transform="matrix(1,0,0,-1,0,360)" stroke-width=".8" stroke-linecap="butt" stroke-dasharray="2.96,1.28" stroke-linejoin="round" fill="none" stroke="#bebebe" stroke-opacity=".4" d="M459.23 201.62839H853.2"/>
</g>
<path transform="matrix(1,0,0,-1,0,360)" d="M459.23 201.62839H455.73"/>
<path transform="matrix(1,0,0,-1,0,360)" stroke-width=".8" stroke-linecap="butt" stroke-linejoin="round" fill="none" stroke="#000000" d="M459.23 201.62839H455.73"/>
<g clip-path="url(#clip_31)">
<path transform="matrix(1,0,0,-1,0,360)" stroke-width=".8" stroke-linecap="butt" stroke-dasharray="2.96,1.28" stroke-linejoin="round" fill="none" stroke="#bebebe" stroke-opacity=".4" d="M459.23 239.19742H853.2"/>
</g>
<path transform="matrix(1,0,0,-1,0,360)" d="M459.23 239.19742H455.73"/>
<path transform="matrix(1,0,0,-1,0,360)" stroke-width=".8" stroke-linecap="butt" stroke-linejoin="round" fill="none" stroke="#000000" d="M459.23 239.19742H455.73"/>
<g clip-path="url(#clip_32)">
<path transform="matrix(1,0,0,-1,0,360)" stroke-width=".8" stroke-linecap="butt" stroke-dasharray="2.96,1.28" stroke-linejoin="round" fill="none" stroke="#bebebe" stroke-opacity=".4" d="M459.23 276.76646H853.2"/>
</g>
<path transform="matrix(1,0,0,-1,0,360)" d="M459.23 276.76646H455.73"/>
<path transform="matrix(1,0,0,-1,0,360)" stroke-width=".8" stroke-linecap="butt" stroke-linejoin="round" fill="none" stroke="#000000" d="M459.23 276.76646H455.73"/>
<g clip-path="url(#clip_33)">
<path transform="matrix(1,0,0,-1,0,360)" stroke-width=".8" stroke-linecap="butt" stroke-dasharray="2.96,1.28" stroke-linejoin="round" fill="none" stroke="#bebebe" stroke-opacity=".4" d="M459.23 314.33549H853.2"/>
</g>
<path transform="matrix(1,0,0,-1,0,360)" d="M459.23 314.33549H455.73"/>
<path transform="matrix(1,0,0,-1,0,360)" stroke-width=".8" stroke-linecap="butt" stroke-linejoin="round" fill="none" stroke="#000000" d="M459.23 314.33549H455.73"/>
<g clip-path="url(#clip_34)">
<path transform="matrix(1,0,0,-1,0,360)" stroke-width="1.5" stroke-linecap="square" stroke-linejoin="round" fill="none" stroke="#1f77b4" d="M477.13774 280.25013 484.447 192.23783 491.7563 171.35233 499.06556 164.68917 506.37486 156.98946 513.6841 147.12662 520.9934 148.04113 528.3027 150.97594 535.61196 139.4207 542.9212 141.49228 550.23049 136.90268 557.5398 138.4058 564.84909 139.16776 572.1583 138.26955 579.4676 135.8254 586.77688 138.59915 594.0861 137.6114 601.39547 133.68178 608.7047 132.25569 616.014 132.07209 623.32327 131.6763 630.6325 134.36055 637.94186 132.42313 645.2511 132.5888 652.56039 136.12282 659.8696 129.99205 667.1789 133.58742 674.4882 128.63153 681.7975 130.62313 689.10678 130.89115 696.416 131.50337 703.7253 129.67807 711.03457 129.79108 718.3439 130.36353 725.65316 127.57191 732.9624 127.22333 740.27169 125.62063 747.58096 129.84558 754.89028 129.94469 762.1995 129.57535 769.5088 130.65122 776.81808 131.9478 784.1273 128.01818 791.4366 132.6225 798.7459 127.05748 806.0552 121.48199 813.36447 130.00724 820.6737 123.98859 827.983 126.77648 835.2923 126.66502"/>
</g>
<g clip-path="url(#clip_35)">
<path transform="matrix(1,0,0,-1,0,360)" stroke-width="1.5" stroke-linecap="square" stroke-linejoin="round" fill="none" stroke="#ff7f0e" d="M477.13774 183.12979 484.447 164.02516 491.7563 152.25428 499.06556 148.35721 506.37486 142.73975 513.6841 139.27832 520.9934 138.3489 528.3027 134.18169 535.61196 133.86147 542.9212 132.95977 550.23049 136.44147 557.5398 135.81974 564.84909 133.54088 572.1583 130.18285 579.4676 129.61695 586.77688 131.71529 594.0861 127.65361 601.39547 128.76744 608.7047 131.04755 616.014 129.0907 623.32327 124.97843 630.6325 128.12052 637.94186 134.025 645.2511 131.97824 652.56039 130.35883 659.8696 131.49523 667.1789 127.65311 674.4882 128.32619 681.7975 135.63954 689.10678 126.96869 696.416 123.50119 703.7253 129.5994 711.03457 135.06465 718.3439 126.990169 725.65316 125.05088 732.9624 132.91661 740.27169 125.574359 747.58096 132.70215 754.89028 134.82994 762.1995 137.57164 769.5088 129.2481 776.81808 129.86217 784.1273 131.23499 791.4366 127.47343 798.7459 127.63842 806.0552 130.16838 813.36447 130.53269 820.6737 130.74764 827.983 128.18747 835.2923 126.85267"/>
</g>
<path transform="matrix(1,0,0,-1,0,360)" stroke-width=".8" stroke-linecap="square" stroke-miterlimit="10" stroke-linejoin="miter" fill="none" stroke="#000000" d="M459.23 41.96V333.12"/>
<path transform="matrix(1,0,0,-1,0,360)" stroke-width=".8" stroke-linecap="square" stroke-miterlimit="10" stroke-linejoin="miter" fill="none" stroke="#000000" d="M853.2 41.96V333.12"/>
<path transform="matrix(1,0,0,-1,0,360)" stroke-width=".8" stroke-linecap="square" stroke-miterlimit="10" stroke-linejoin="miter" fill="none" stroke="#000000" d="M459.23 41.96H853.2"/>
<path transform="matrix(1,0,0,-1,0,360)" stroke-width=".8" stroke-linecap="square" stroke-miterlimit="10" stroke-linejoin="miter" fill="none" stroke="#000000" d="M459.23 333.12H853.2"/>
<text xml:space="preserve" transform="matrix(1 0 -0 1 581.9572 20.880005)" font-size="12" font-family="DejaVuSans"><tspan y="0" x="0 8.376 15.720001 23.328001 30.948002 34.284006 38.988008 42.324007 49.668008 57.27601 64.63201 67.96801 71.78401 79.99201 87.60001 92.304019 99.64802 107.028018 114.63602 121.236019 128.58002 136.20001 143.58002">Conditional Autoencoder</tspan></text>
<g>
<path transform="matrix(1,0,0,-1,0,360)" d="M739.575 295.77626H846.2C847.5333 295.77626 848.2 296.44294 848.2 297.77626V326.12C848.2 327.45335 847.5333 328.12 846.2 328.12H739.575C738.24166 328.12 737.575 327.45335 737.575 326.12V297.77626C737.575 296.44294 738.24166 295.77626 739.575 295.77626Z" fill="#ffffff" fill-opacity=".8"/>
<path transform="matrix(1,0,0,-1,0,360)" stroke-width="1" stroke-linecap="butt" stroke-miterlimit="10" stroke-linejoin="miter" fill="none" stroke="#d5d6d5" stroke-opacity=".8" d="M739.575 295.77626H846.2C847.5333 295.77626 848.2 296.44294 848.2 297.77626V326.12C848.2 327.45335 847.5333 328.12 846.2 328.12H739.575C738.24166 328.12 737.575 327.45335 737.575 326.12V297.77626C737.575 296.44294 738.24166 295.77626 739.575 295.77626Z"/>
</g>
<path transform="matrix(1,0,0,-1,0,360)" stroke-width="1.5" stroke-linecap="square" stroke-linejoin="round" fill="none" stroke="#1f77b4" d="M741.575 320.02626H751.575 761.575"/>
<text xml:space="preserve" transform="matrix(1 0 -0 1 769.575 43.473756)" font-size="10" font-family="DejaVuSans"><tspan y="0" x="0 4.64125 8.75125 14.88125 17.661252 24.001252 27.181252 32.579378 38.699377 43.909376">Train Loss</tspan></text>
<path transform="matrix(1,0,0,-1,0,360)" stroke-width="1.5" stroke-linecap="square" stroke-linejoin="round" fill="none" stroke="#ff7f0e" d="M741.575 305.35438H751.575 761.575"/>
<text xml:space="preserve" transform="matrix(1 0 -0 1 769.575 58.14563)" font-size="10" font-family="DejaVuSans"><tspan y="0" x="0 6.074375 12.204375 14.984375 17.764376 24.114377 30.244378 34.164377 36.944375 43.064374 49.404375 52.584375 57.9825 64.1025 69.3125">Validation Loss</tspan></text>
</svg>
