<?xml version="1.0" encoding="UTF-8" standalone="no"?>
<svg
   xmlns:dc="http://purl.org/dc/elements/1.1/"
   xmlns:cc="http://creativecommons.org/ns#"
   xmlns:rdf="http://www.w3.org/1999/02/22-rdf-syntax-ns#"
   xmlns:svg="http://www.w3.org/2000/svg"
   xmlns="http://www.w3.org/2000/svg"
   viewBox="0 0 672 480"
   height="480"
   width="672"
   xml:space="preserve"
   id="svg2"
   version="1.1"><metadata
     id="metadata8"><rdf:RDF><cc:Work
         rdf:about=""><dc:format>image/svg+xml</dc:format><dc:type
           rdf:resource="http://purl.org/dc/dcmitype/StillImage" /></cc:Work></rdf:RDF></metadata><defs
     id="defs6"><clipPath
       id="clipPath22"
       clipPathUnits="userSpaceOnUse"><path
         id="path20"
         d="M 56.225,41.96 H 484.50333 V 349.2 H 56.225 Z" /></clipPath><clipPath
       id="clipPath42"
       clipPathUnits="userSpaceOnUse"><path
         id="path40"
         d="M 56.225,41.96 H 484.50333 V 349.2 H 56.225 Z" /></clipPath><clipPath
       id="clipPath62"
       clipPathUnits="userSpaceOnUse"><path
         id="path60"
         d="M 56.225,41.96 H 484.50333 V 349.2 H 56.225 Z" /></clipPath><clipPath
       id="clipPath82"
       clipPathUnits="userSpaceOnUse"><path
         id="path80"
         d="M 56.225,41.96 H 484.50333 V 349.2 H 56.225 Z" /></clipPath><clipPath
       id="clipPath102"
       clipPathUnits="userSpaceOnUse"><path
         id="path100"
         d="M 56.225,41.96 H 484.50333 V 349.2 H 56.225 Z" /></clipPath><clipPath
       id="clipPath122"
       clipPathUnits="userSpaceOnUse"><path
         id="path120"
         d="M 56.225,41.96 H 484.50333 V 349.2 H 56.225 Z" /></clipPath><clipPath
       id="clipPath142"
       clipPathUnits="userSpaceOnUse"><path
         id="path140"
         d="M 56.225,41.96 H 484.50333 V 349.2 H 56.225 Z" /></clipPath><clipPath
       id="clipPath162"
       clipPathUnits="userSpaceOnUse"><path
         id="path160"
         d="M 56.225,41.96 H 484.50333 V 349.2 H 56.225 Z" /></clipPath><clipPath
       id="clipPath188"
       clipPathUnits="userSpaceOnUse"><path
         id="path186"
         d="M 56.225,41.96 H 484.50333 V 349.2 H 56.225 Z" /></clipPath><clipPath
       id="clipPath210"
       clipPathUnits="userSpaceOnUse"><path
         id="path208"
         d="M -1021,-463 H 1794 V 1233 H -1021 Z" /></clipPath><clipPath
       id="clipPath220"
       clipPathUnits="userSpaceOnUse"><path
         id="path218"
         d="M 56.225,41.96 H 484.50333 V 349.2 H 56.225 Z" /></clipPath><clipPath
       id="clipPath242"
       clipPathUnits="userSpaceOnUse"><path
         id="path240"
         d="M -1021,-463 H 1794 V 1233 H -1021 Z" /></clipPath><clipPath
       id="clipPath252"
       clipPathUnits="userSpaceOnUse"><path
         id="path250"
         d="M 56.225,41.96 H 484.50333 V 349.2 H 56.225 Z" /></clipPath><clipPath
       id="clipPath274"
       clipPathUnits="userSpaceOnUse"><path
         id="path272"
         d="M -1021,-463 H 1794 V 1233 H -1021 Z" /></clipPath><clipPath
       id="clipPath284"
       clipPathUnits="userSpaceOnUse"><path
         id="path282"
         d="M 56.225,41.96 H 484.50333 V 349.2 H 56.225 Z" /></clipPath><clipPath
       id="clipPath306"
       clipPathUnits="userSpaceOnUse"><path
         id="path304"
         d="M -1021,-463 H 1794 V 1233 H -1021 Z" /></clipPath><clipPath
       id="clipPath316"
       clipPathUnits="userSpaceOnUse"><path
         id="path314"
         d="M 56.225,41.96 H 484.50333 V 349.2 H 56.225 Z" /></clipPath><clipPath
       id="clipPath338"
       clipPathUnits="userSpaceOnUse"><path
         id="path336"
         d="M -1021,-463 H 1794 V 1233 H -1021 Z" /></clipPath><clipPath
       id="clipPath348"
       clipPathUnits="userSpaceOnUse"><path
         id="path346"
         d="M 56.225,41.96 H 484.50333 V 349.2 H 56.225 Z" /></clipPath><clipPath
       id="clipPath370"
       clipPathUnits="userSpaceOnUse"><path
         id="path368"
         d="M -1021,-463 H 1794 V 1233 H -1021 Z" /></clipPath><clipPath
       id="clipPath380"
       clipPathUnits="userSpaceOnUse"><path
         id="path378"
         d="M 56.225,41.96 H 484.50333 V 349.2 H 56.225 Z" /></clipPath><clipPath
       id="clipPath402"
       clipPathUnits="userSpaceOnUse"><path
         id="path400"
         d="M -1021,-463 H 1794 V 1233 H -1021 Z" /></clipPath><clipPath
       id="clipPath418"
       clipPathUnits="userSpaceOnUse"><path
         id="path416"
         d="M 56.225,41.96 H 484.50333 V 349.2 H 56.225 Z" /></clipPath><clipPath
       id="clipPath428"
       clipPathUnits="userSpaceOnUse"><path
         id="path426"
         d="M 56.225,41.96 H 484.50333 V 349.2 H 56.225 Z" /></clipPath></defs><g
     transform="matrix(1.3333333,0,0,-1.3333333,0,480)"
     id="g10"><path
       id="path12"
       style="fill:#ffffff;fill-opacity:1;fill-rule:nonzero;stroke:none"
       d="M 0,0 H 504 V 360 H 0 Z" /><path
       id="path14"
       style="fill:#ffffff;fill-opacity:1;fill-rule:nonzero;stroke:none"
       d="M 56.225,41.96 H 484.50333 V 349.2 H 56.225 Z" /><g
       id="g16"><g
         clip-path="url(#clipPath22)"
         id="g18"><path
           id="path24"
           style="fill:none;stroke:#b0b0b0;stroke-width:0.80000001;stroke-linecap:square;stroke-linejoin:round;stroke-miterlimit:10;stroke-dasharray:none;stroke-opacity:1"
           d="M 72.808168,41.96 V 349.2" /></g></g><g
       id="g26"><path
         id="path28"
         style="fill:#000000;fill-opacity:1;fill-rule:nonzero;stroke:#000000;stroke-width:0.80000001;stroke-linecap:butt;stroke-linejoin:round;stroke-miterlimit:10;stroke-dasharray:none;stroke-opacity:1"
         d="m 72.808168,41.96 v -3.5" /><g
         transform="translate(69.62848,27.36625)"
         id="g30"><text
           id="text34"
           style="font-variant:normal;font-weight:normal;font-size:10px;font-family:'DejaVu Sans';-inkscape-font-specification:DejaVuSans;writing-mode:lr-tb;fill:#000000;fill-opacity:1;fill-rule:nonzero;stroke:none"
           transform="scale(1,-1)"><tspan
             id="tspan32"
             y="0"
             x="0">0</tspan></text>
</g></g><g
       id="g36"><g
         clip-path="url(#clipPath42)"
         id="g38"><path
           id="path44"
           style="fill:none;stroke:#b0b0b0;stroke-width:0.80000001;stroke-linecap:square;stroke-linejoin:round;stroke-miterlimit:10;stroke-dasharray:none;stroke-opacity:1"
           d="M 130.48875,41.96 V 349.2" /></g></g><g
       id="g46"><path
         id="path48"
         style="fill:#000000;fill-opacity:1;fill-rule:nonzero;stroke:#000000;stroke-width:0.80000001;stroke-linecap:butt;stroke-linejoin:round;stroke-miterlimit:10;stroke-dasharray:none;stroke-opacity:1"
         d="m 130.48875,41.96 v -3.5" /><g
         transform="translate(117.77,27.36625)"
         id="g50"><text
           id="text54"
           style="font-variant:normal;font-weight:normal;font-size:10px;font-family:'DejaVu Sans';-inkscape-font-specification:DejaVuSans;writing-mode:lr-tb;fill:#000000;fill-opacity:1;fill-rule:nonzero;stroke:none"
           transform="scale(1,-1)"><tspan
             id="tspan52"
             y="0"
             x="0 6.3600001 12.72 19.08">2000</tspan></text>
</g></g><g
       id="g56"><g
         clip-path="url(#clipPath62)"
         id="g58"><path
           id="path64"
           style="fill:none;stroke:#b0b0b0;stroke-width:0.80000001;stroke-linecap:square;stroke-linejoin:round;stroke-miterlimit:10;stroke-dasharray:none;stroke-opacity:1"
           d="M 188.16933,41.96 V 349.2" /></g></g><g
       id="g66"><path
         id="path68"
         style="fill:#000000;fill-opacity:1;fill-rule:nonzero;stroke:#000000;stroke-width:0.80000001;stroke-linecap:butt;stroke-linejoin:round;stroke-miterlimit:10;stroke-dasharray:none;stroke-opacity:1"
         d="m 188.16933,41.96 v -3.5" /><g
         transform="translate(175.45059,27.36625)"
         id="g70"><text
           id="text74"
           style="font-variant:normal;font-weight:normal;font-size:10px;font-family:'DejaVu Sans';-inkscape-font-specification:DejaVuSans;writing-mode:lr-tb;fill:#000000;fill-opacity:1;fill-rule:nonzero;stroke:none"
           transform="scale(1,-1)"><tspan
             id="tspan72"
             y="0"
             x="0 6.3600001 12.72 19.08">4000</tspan></text>
</g></g><g
       id="g76"><g
         clip-path="url(#clipPath82)"
         id="g78"><path
           id="path84"
           style="fill:none;stroke:#b0b0b0;stroke-width:0.80000001;stroke-linecap:square;stroke-linejoin:round;stroke-miterlimit:10;stroke-dasharray:none;stroke-opacity:1"
           d="M 245.84992,41.96 V 349.2" /></g></g><g
       id="g86"><path
         id="path88"
         style="fill:#000000;fill-opacity:1;fill-rule:nonzero;stroke:#000000;stroke-width:0.80000001;stroke-linecap:butt;stroke-linejoin:round;stroke-miterlimit:10;stroke-dasharray:none;stroke-opacity:1"
         d="m 245.84992,41.96 v -3.5" /><g
         transform="translate(233.13117,27.36625)"
         id="g90"><text
           id="text94"
           style="font-variant:normal;font-weight:normal;font-size:10px;font-family:'DejaVu Sans';-inkscape-font-specification:DejaVuSans;writing-mode:lr-tb;fill:#000000;fill-opacity:1;fill-rule:nonzero;stroke:none"
           transform="scale(1,-1)"><tspan
             id="tspan92"
             y="0"
             x="0 6.3600001 12.72 19.08">6000</tspan></text>
</g></g><g
       id="g96"><g
         clip-path="url(#clipPath102)"
         id="g98"><path
           id="path104"
           style="fill:none;stroke:#b0b0b0;stroke-width:0.80000001;stroke-linecap:square;stroke-linejoin:round;stroke-miterlimit:10;stroke-dasharray:none;stroke-opacity:1"
           d="M 303.5305,41.96 V 349.2" /></g></g><g
       id="g106"><path
         id="path108"
         style="fill:#000000;fill-opacity:1;fill-rule:nonzero;stroke:#000000;stroke-width:0.80000001;stroke-linecap:butt;stroke-linejoin:round;stroke-miterlimit:10;stroke-dasharray:none;stroke-opacity:1"
         d="m 303.5305,41.96 v -3.5" /><g
         transform="translate(290.81175,27.36625)"
         id="g110"><text
           id="text114"
           style="font-variant:normal;font-weight:normal;font-size:10px;font-family:'DejaVu Sans';-inkscape-font-specification:DejaVuSans;writing-mode:lr-tb;fill:#000000;fill-opacity:1;fill-rule:nonzero;stroke:none"
           transform="scale(1,-1)"><tspan
             id="tspan112"
             y="0"
             x="0 6.3600001 12.72 19.08">8000</tspan></text>
</g></g><g
       id="g116"><g
         clip-path="url(#clipPath122)"
         id="g118"><path
           id="path124"
           style="fill:none;stroke:#b0b0b0;stroke-width:0.80000001;stroke-linecap:square;stroke-linejoin:round;stroke-miterlimit:10;stroke-dasharray:none;stroke-opacity:1"
           d="M 361.21109,41.96 V 349.2" /></g></g><g
       id="g126"><path
         id="path128"
         style="fill:#000000;fill-opacity:1;fill-rule:nonzero;stroke:#000000;stroke-width:0.80000001;stroke-linecap:butt;stroke-linejoin:round;stroke-miterlimit:10;stroke-dasharray:none;stroke-opacity:1"
         d="m 361.21109,41.96 v -3.5" /><g
         transform="translate(345.31265,27.36625)"
         id="g130"><text
           id="text134"
           style="font-variant:normal;font-weight:normal;font-size:10px;font-family:'DejaVu Sans';-inkscape-font-specification:DejaVuSans;writing-mode:lr-tb;fill:#000000;fill-opacity:1;fill-rule:nonzero;stroke:none"
           transform="scale(1,-1)"><tspan
             id="tspan132"
             y="0"
             x="0 6.3600001 12.72 19.08 25.440001">10000</tspan></text>
</g></g><g
       id="g136"><g
         clip-path="url(#clipPath142)"
         id="g138"><path
           id="path144"
           style="fill:none;stroke:#b0b0b0;stroke-width:0.80000001;stroke-linecap:square;stroke-linejoin:round;stroke-miterlimit:10;stroke-dasharray:none;stroke-opacity:1"
           d="M 418.89167,41.96 V 349.2" /></g></g><g
       id="g146"><path
         id="path148"
         style="fill:#000000;fill-opacity:1;fill-rule:nonzero;stroke:#000000;stroke-width:0.80000001;stroke-linecap:butt;stroke-linejoin:round;stroke-miterlimit:10;stroke-dasharray:none;stroke-opacity:1"
         d="m 418.89167,41.96 v -3.5" /><g
         transform="translate(402.99323,27.36625)"
         id="g150"><text
           id="text154"
           style="font-variant:normal;font-weight:normal;font-size:10px;font-family:'DejaVu Sans';-inkscape-font-specification:DejaVuSans;writing-mode:lr-tb;fill:#000000;fill-opacity:1;fill-rule:nonzero;stroke:none"
           transform="scale(1,-1)"><tspan
             id="tspan152"
             y="0"
             x="0 6.3600001 12.72 19.08 25.440001">12000</tspan></text>
</g></g><g
       id="g156"><g
         clip-path="url(#clipPath162)"
         id="g158"><path
           id="path164"
           style="fill:none;stroke:#b0b0b0;stroke-width:0.80000001;stroke-linecap:square;stroke-linejoin:round;stroke-miterlimit:10;stroke-dasharray:none;stroke-opacity:1"
           d="M 476.57225,41.96 V 349.2" /></g></g><g
       id="g166"><path
         id="path168"
         style="fill:#000000;fill-opacity:1;fill-rule:nonzero;stroke:#000000;stroke-width:0.80000001;stroke-linecap:butt;stroke-linejoin:round;stroke-miterlimit:10;stroke-dasharray:none;stroke-opacity:1"
         d="m 476.57225,41.96 v -3.5" /><g
         transform="translate(460.67382,27.36625)"
         id="g170"><text
           id="text174"
           style="font-variant:normal;font-weight:normal;font-size:10px;font-family:'DejaVu Sans';-inkscape-font-specification:DejaVuSans;writing-mode:lr-tb;fill:#000000;fill-opacity:1;fill-rule:nonzero;stroke:none"
           transform="scale(1,-1)"><tspan
             id="tspan172"
             y="0"
             x="0 6.3600001 12.72 19.08 25.440001">14000</tspan></text>
</g><g
         transform="translate(248.11417,13.694375)"
         id="g176"><text
           id="text180"
           style="font-variant:normal;font-weight:normal;font-size:10px;font-family:'DejaVu Sans';-inkscape-font-specification:DejaVuSans;writing-mode:lr-tb;fill:#000000;fill-opacity:1;fill-rule:nonzero;stroke:none"
           transform="scale(1,-1)"><tspan
             id="tspan178"
             y="0"
             x="0 6.3200002 12.67 15.45 20.66 26.780001 33.130001 39.279999">Episodes</tspan></text>
</g></g><g
       id="g182"><g
         clip-path="url(#clipPath188)"
         id="g184"><path
           id="path190"
           style="fill:none;stroke:#b0b0b0;stroke-width:0.80000001;stroke-linecap:square;stroke-linejoin:round;stroke-miterlimit:10;stroke-dasharray:none;stroke-opacity:1"
           d="M 56.225,79.548331 H 484.50333" /></g></g><g
       id="g192"><path
         id="path194"
         style="fill:#000000;fill-opacity:1;fill-rule:nonzero;stroke:#000000;stroke-width:0.80000001;stroke-linecap:butt;stroke-linejoin:round;stroke-miterlimit:10;stroke-dasharray:none;stroke-opacity:1"
         d="m 56.225,79.548331 h -3.5" /><g
         transform="translate(24.94375,75.751456)"
         id="g196"><text
           id="text200"
           style="font-variant:normal;font-weight:normal;font-size:10px;font-family:'DejaVu Sans';-inkscape-font-specification:DejaVuSans;writing-mode:lr-tb;fill:#000000;fill-opacity:1;fill-rule:nonzero;stroke:none"
           transform="matrix(1,0,0,-1,8.3789063,0)"><tspan
             id="tspan198"
             y="0"
             x="0 6.3600001 9.54">3.5</tspan></text>
<g
           transform="scale(0.01)"
           id="g202"><g
             id="g204"><g
               clip-path="url(#clipPath210)"
               id="g206"><path
                 id="path212"
                 style="fill:#000000;fill-opacity:1;fill-rule:nonzero;stroke:none"
                 d="M 106,355 H 732 V 272 H 106 Z" /></g></g></g></g></g><g
       id="g214"><g
         clip-path="url(#clipPath220)"
         id="g216"><path
           id="path222"
           style="fill:none;stroke:#b0b0b0;stroke-width:0.80000001;stroke-linecap:square;stroke-linejoin:round;stroke-miterlimit:10;stroke-dasharray:none;stroke-opacity:1"
           d="M 56.225,119.92278 H 484.50333" /></g></g><g
       id="g224"><path
         id="path226"
         style="fill:#000000;fill-opacity:1;fill-rule:nonzero;stroke:#000000;stroke-width:0.80000001;stroke-linecap:butt;stroke-linejoin:round;stroke-miterlimit:10;stroke-dasharray:none;stroke-opacity:1"
         d="m 56.225,119.92278 h -3.5" /><g
         transform="translate(24.94375,116.12591)"
         id="g228"><text
           id="text232"
           style="font-variant:normal;font-weight:normal;font-size:10px;font-family:'DejaVu Sans';-inkscape-font-specification:DejaVuSans;writing-mode:lr-tb;fill:#000000;fill-opacity:1;fill-rule:nonzero;stroke:none"
           transform="matrix(1,0,0,-1,8.3789063,0)"><tspan
             id="tspan230"
             y="0"
             x="0 6.3600001 9.54">3.0</tspan></text>
<g
           transform="scale(0.01)"
           id="g234"><g
             id="g236"><g
               clip-path="url(#clipPath242)"
               id="g238"><path
                 id="path244"
                 style="fill:#000000;fill-opacity:1;fill-rule:nonzero;stroke:none"
                 d="M 106,355 H 732 V 272 H 106 Z" /></g></g></g></g></g><g
       id="g246"><g
         clip-path="url(#clipPath252)"
         id="g248"><path
           id="path254"
           style="fill:none;stroke:#b0b0b0;stroke-width:0.80000001;stroke-linecap:square;stroke-linejoin:round;stroke-miterlimit:10;stroke-dasharray:none;stroke-opacity:1"
           d="M 56.225,160.29723 H 484.50333" /></g></g><g
       id="g256"><path
         id="path258"
         style="fill:#000000;fill-opacity:1;fill-rule:nonzero;stroke:#000000;stroke-width:0.80000001;stroke-linecap:butt;stroke-linejoin:round;stroke-miterlimit:10;stroke-dasharray:none;stroke-opacity:1"
         d="m 56.225,160.29723 h -3.5" /><g
         transform="translate(24.94375,156.50035)"
         id="g260"><text
           id="text264"
           style="font-variant:normal;font-weight:normal;font-size:10px;font-family:'DejaVu Sans';-inkscape-font-specification:DejaVuSans;writing-mode:lr-tb;fill:#000000;fill-opacity:1;fill-rule:nonzero;stroke:none"
           transform="matrix(1,0,0,-1,8.3789063,0)"><tspan
             id="tspan262"
             y="0"
             x="0 6.3600001 9.54">2.5</tspan></text>
<g
           transform="scale(0.01)"
           id="g266"><g
             id="g268"><g
               clip-path="url(#clipPath274)"
               id="g270"><path
                 id="path276"
                 style="fill:#000000;fill-opacity:1;fill-rule:nonzero;stroke:none"
                 d="M 106,355 H 732 V 272 H 106 Z" /></g></g></g></g></g><g
       id="g278"><g
         clip-path="url(#clipPath284)"
         id="g280"><path
           id="path286"
           style="fill:none;stroke:#b0b0b0;stroke-width:0.80000001;stroke-linecap:square;stroke-linejoin:round;stroke-miterlimit:10;stroke-dasharray:none;stroke-opacity:1"
           d="M 56.225,200.67168 H 484.50333" /></g></g><g
       id="g288"><path
         id="path290"
         style="fill:#000000;fill-opacity:1;fill-rule:nonzero;stroke:#000000;stroke-width:0.80000001;stroke-linecap:butt;stroke-linejoin:round;stroke-miterlimit:10;stroke-dasharray:none;stroke-opacity:1"
         d="m 56.225,200.67168 h -3.5" /><g
         transform="translate(24.94375,196.8748)"
         id="g292"><text
           id="text296"
           style="font-variant:normal;font-weight:normal;font-size:10px;font-family:'DejaVu Sans';-inkscape-font-specification:DejaVuSans;writing-mode:lr-tb;fill:#000000;fill-opacity:1;fill-rule:nonzero;stroke:none"
           transform="matrix(1,0,0,-1,8.3789063,0)"><tspan
             id="tspan294"
             y="0"
             x="0 6.3600001 9.54">2.0</tspan></text>
<g
           transform="scale(0.01)"
           id="g298"><g
             id="g300"><g
               clip-path="url(#clipPath306)"
               id="g302"><path
                 id="path308"
                 style="fill:#000000;fill-opacity:1;fill-rule:nonzero;stroke:none"
                 d="M 106,355 H 732 V 272 H 106 Z" /></g></g></g></g></g><g
       id="g310"><g
         clip-path="url(#clipPath316)"
         id="g312"><path
           id="path318"
           style="fill:none;stroke:#b0b0b0;stroke-width:0.80000001;stroke-linecap:square;stroke-linejoin:round;stroke-miterlimit:10;stroke-dasharray:none;stroke-opacity:1"
           d="M 56.225,241.04613 H 484.50333" /></g></g><g
       id="g320"><path
         id="path322"
         style="fill:#000000;fill-opacity:1;fill-rule:nonzero;stroke:#000000;stroke-width:0.80000001;stroke-linecap:butt;stroke-linejoin:round;stroke-miterlimit:10;stroke-dasharray:none;stroke-opacity:1"
         d="m 56.225,241.04613 h -3.5" /><g
         transform="translate(24.94375,237.24925)"
         id="g324"><text
           id="text328"
           style="font-variant:normal;font-weight:normal;font-size:10px;font-family:'DejaVu Sans';-inkscape-font-specification:DejaVuSans;writing-mode:lr-tb;fill:#000000;fill-opacity:1;fill-rule:nonzero;stroke:none"
           transform="matrix(1,0,0,-1,8.3789063,0)"><tspan
             id="tspan326"
             y="0"
             x="0 6.3600001 9.54">1.5</tspan></text>
<g
           transform="scale(0.01)"
           id="g330"><g
             id="g332"><g
               clip-path="url(#clipPath338)"
               id="g334"><path
                 id="path340"
                 style="fill:#000000;fill-opacity:1;fill-rule:nonzero;stroke:none"
                 d="M 106,355 H 732 V 272 H 106 Z" /></g></g></g></g></g><g
       id="g342"><g
         clip-path="url(#clipPath348)"
         id="g344"><path
           id="path350"
           style="fill:none;stroke:#b0b0b0;stroke-width:0.80000001;stroke-linecap:square;stroke-linejoin:round;stroke-miterlimit:10;stroke-dasharray:none;stroke-opacity:1"
           d="M 56.225,281.42057 H 484.50333" /></g></g><g
       id="g352"><path
         id="path354"
         style="fill:#000000;fill-opacity:1;fill-rule:nonzero;stroke:#000000;stroke-width:0.80000001;stroke-linecap:butt;stroke-linejoin:round;stroke-miterlimit:10;stroke-dasharray:none;stroke-opacity:1"
         d="m 56.225,281.42057 h -3.5" /><g
         transform="translate(24.94375,277.6237)"
         id="g356"><text
           id="text360"
           style="font-variant:normal;font-weight:normal;font-size:10px;font-family:'DejaVu Sans';-inkscape-font-specification:DejaVuSans;writing-mode:lr-tb;fill:#000000;fill-opacity:1;fill-rule:nonzero;stroke:none"
           transform="matrix(1,0,0,-1,8.3789063,0)"><tspan
             id="tspan358"
             y="0"
             x="0 6.3600001 9.54">1.0</tspan></text>
<g
           transform="scale(0.01)"
           id="g362"><g
             id="g364"><g
               clip-path="url(#clipPath370)"
               id="g366"><path
                 id="path372"
                 style="fill:#000000;fill-opacity:1;fill-rule:nonzero;stroke:none"
                 d="M 106,355 H 732 V 272 H 106 Z" /></g></g></g></g></g><g
       id="g374"><g
         clip-path="url(#clipPath380)"
         id="g376"><path
           id="path382"
           style="fill:none;stroke:#b0b0b0;stroke-width:0.80000001;stroke-linecap:square;stroke-linejoin:round;stroke-miterlimit:10;stroke-dasharray:none;stroke-opacity:1"
           d="M 56.225,321.79502 H 484.50333" /></g></g><g
       id="g384"><path
         id="path386"
         style="fill:#000000;fill-opacity:1;fill-rule:nonzero;stroke:#000000;stroke-width:0.80000001;stroke-linecap:butt;stroke-linejoin:round;stroke-miterlimit:10;stroke-dasharray:none;stroke-opacity:1"
         d="m 56.225,321.79502 h -3.5" /><g
         transform="translate(24.94375,317.99815)"
         id="g388"><text
           id="text392"
           style="font-variant:normal;font-weight:normal;font-size:10px;font-family:'DejaVu Sans';-inkscape-font-specification:DejaVuSans;writing-mode:lr-tb;fill:#000000;fill-opacity:1;fill-rule:nonzero;stroke:none"
           transform="matrix(1,0,0,-1,8.3789063,0)"><tspan
             id="tspan390"
             y="0"
             x="0 6.3600001 9.54">0.5</tspan></text>
<g
           transform="scale(0.01)"
           id="g394"><g
             id="g396"><g
               clip-path="url(#clipPath402)"
               id="g398"><path
                 id="path404"
                 style="fill:#000000;fill-opacity:1;fill-rule:nonzero;stroke:none"
                 d="M 106,355 H 732 V 272 H 106 Z" /></g></g></g></g><g
         transform="rotate(90,-71.435312,90.300937)"
         id="g406"><text
           id="text410"
           style="font-variant:normal;font-weight:normal;font-size:10px;font-family:'DejaVu Sans';-inkscape-font-specification:DejaVuSans;writing-mode:lr-tb;fill:#000000;fill-opacity:1;fill-rule:nonzero;stroke:none"
           transform="scale(1,-1)"><tspan
             id="tspan408"
             y="0"
             x="0 8.6300001 14.78 20.91 27.25 30.43 36.942501 43.092499 51.272499 57.4025 61.340626">Mean Reward</tspan></text>
</g></g><g
       id="g412"><g
         clip-path="url(#clipPath418)"
         id="g414"><path
           id="path420"
           style="fill:none;stroke:#1f77b4;stroke-width:1.5;stroke-linecap:square;stroke-linejoin:round;stroke-miterlimit:10;stroke-dasharray:none;stroke-opacity:1"
           d="m 75.692197,74.497064 2.884029,-16.537023 2.884029,53.999409 2.88403,-5.12816 2.884029,7.30777 2.884029,22.19237 2.884029,49.27366 2.884029,0.12555 2.884029,17.4161 2.88403,-8.13366 2.88403,5.70089 2.88403,3.43249 2.88403,11.58303 2.88403,-2.16965 2.88403,-0.035 2.88403,5.63876 2.88402,7.29978 2.88403,-0.009 2.88403,11.91046 2.88403,-12.10887 2.88403,-8.55706 2.88403,30.74921 2.88403,-4.78596 2.88403,4.34536 2.88403,0.87536 2.88403,3.34955 2.88403,-4.3635 2.88402,2.38542 2.88403,1.79609 2.88403,11.73913 2.88403,7.14436 2.88403,1.63203 2.88403,4.49464 2.88403,-7.99349 2.88403,10.83345 2.88403,10.1291 2.88403,-0.1776 2.88403,0.87823 2.88403,-4.90018 2.88402,0.59583 2.88403,-3.75785 2.88403,3.22409 2.88403,9.68638 2.88403,0.60263 2.88403,-3.93044 2.88403,3.55819 2.88403,7.95315 2.88403,0.32337 2.88403,-0.0591 2.88403,1.07657 2.88403,-3.21453 2.88402,-0.57385 2.88403,4.57912 2.88403,-2.46811 2.88403,6.77796 2.88403,3.7655 2.88403,-7.80884 2.88403,-0.0896 2.88403,4.26743 2.88403,-0.1106 2.88403,2.16004 2.88403,4.13953 2.88403,-4.47222 2.88402,1.98831 2.88403,6.70135 2.88403,-0.66308 2.88403,-0.18002 2.88403,0.0743 2.88403,0.8335 2.88403,2.53258 2.88403,-2.66979 2.88403,2.34738 2.88403,-0.60297 2.88403,-3.12626 2.88403,1.51793 2.88403,0.67677 2.88402,2.12487 2.88403,-0.35652 2.88403,0.97093 2.88403,0.22084 2.88403,0.0367 2.88403,-2.9236 2.88403,0.0434 2.88403,1.98703 2.88403,-0.0278 2.88403,-0.8579 2.88403,0.87549 2.88403,1.99406 2.88402,-3.33199 2.88403,1.25609 2.88403,-1.77423 2.88403,-0.32878 2.88403,3.89238 2.88403,-2.16102 2.88403,3.68274 2.88403,-1.31835 2.88403,-3.58334 2.88403,1.90697 2.88403,-3.6932 2.88403,5.13286 2.88402,-1.54413 2.88403,2.28768 2.88403,-4.86785 2.88403,0.57177 2.88403,1.16397 2.88403,-0.34822 2.88403,0.4795 2.88403,3.78447 2.88403,-4.32216 2.88403,3.69489 2.88403,-2.1907 2.88403,-0.28138 2.88402,1.71406 2.88403,-0.48444 2.88403,-1.23814 2.88403,2.13233 2.88403,-0.20031 2.88403,-1.54557 2.88403,-0.34019 2.88403,-1.18692 2.88403,-1.33692 2.88403,2.58911 2.88403,-0.33476 2.88403,0.0572 5.76806,-2.87966 2.88402,0.76139 2.88403,0.33126 2.88403,0.82435 2.88403,3.70728 2.88403,-1.9846 2.88403,-1.64582 2.88403,1.27769 2.88403,-1.61789 2.88403,1.49367 2.88403,-0.78833 v 0" /></g></g><g
       id="g422"><g
         clip-path="url(#clipPath428)"
         id="g424"><path
           id="path430"
           style="fill:none;stroke:#ff7f0e;stroke-width:1.5;stroke-linecap:square;stroke-linejoin:round;stroke-miterlimit:10;stroke-dasharray:none;stroke-opacity:1"
           d="m 75.692197,59.210386 2.884029,22.142597 2.884029,-25.427528 2.88403,32.865107 2.884029,15.685898 2.884029,-3.35249 2.884029,16.85739 2.884029,-25.636691 2.884029,49.167021 2.88403,-10.34708 2.88403,35.15605 2.88403,21.88081 2.88403,-1.58314 2.88403,5.56329 2.88403,-1.92748 2.88403,20.69832 2.88402,-1.03281 2.88403,4.62954 2.88403,12.57213 2.88403,5.53453 2.88403,6.90934 2.88403,-8.8062 2.88403,-2.84938 2.88403,13.6314 2.88403,-0.70116 2.88403,-4.6709 2.88403,6.67731 2.88402,6.05693 2.88403,-1.78525 2.88403,-0.35393 2.88403,4.40116 2.88403,-6.67759 2.88403,4.13452 2.88403,6.14754 2.88403,12.58557 2.88403,-12.61675 2.88403,17.73644 2.88403,-0.46646 2.88403,9.42226 2.88402,-3.53561 2.88403,1.13754 2.88403,5.66358 2.88403,0.0602 2.88403,-1.79957 2.88403,6.33304 2.88403,5.26242 2.88403,1.58123 2.88403,-7.05019 2.88403,-0.83053 2.88403,6.48467 2.88403,-8.75008 2.88402,4.59199 2.88403,7.56668 2.88403,0.65269 2.88403,1.79489 2.88403,-0.15882 2.88403,-4.51984 2.88403,2.24231 2.88403,10.38298 2.88403,-4.25033 2.88403,-1.89206 2.88403,-0.70871 2.88403,0.54285 2.88402,3.83852 2.88403,1.77578 2.88403,-2.11942 2.88403,10.08935 2.88403,-9.93812 2.88403,5.76441 2.88403,3.67843 2.88403,4.93334 2.88403,-5.44887 2.88403,12.54184 2.88403,-5.15137 2.88403,-2.00205 2.88403,3.63227 2.88402,-0.61848 2.88403,-1.51069 2.88403,4.1377 2.88403,-0.32811 2.88403,-1.02681 2.88403,2.26514 2.88403,0.7385 2.88403,-3.69035 2.88403,2.66338 2.88403,-2.94741 2.88403,2.51605 2.88403,1.17231 2.88402,-5.42432 2.88403,-0.007 2.88403,3.70255 2.88403,-0.9112 2.88403,5.08084 5.76806,-2.77097 5.76806,3.21125 2.88403,-3.85121 2.88403,2.06164 2.88403,1.83031 2.88402,-2.09724 2.88403,-5.99148 2.88403,7.4688 2.88403,-0.99809 2.88403,1.97755 2.88403,1.75912 2.88403,-3.31288 2.88403,2.91388 2.88403,-2.50914 2.88403,2.64292 2.88403,2.0021 2.88403,-1.01861 2.88402,-4.61388 2.88403,3.04625 2.88403,3.84601 2.88403,-1.87415 2.88403,0.37694 2.88403,-1.50705 2.88403,-1.65985 2.88403,3.19267 2.88403,-0.28026 2.88403,-1.33434 2.88403,-1.91101 2.88403,3.64398 2.88402,-3.8255 2.88404,-1.00024 2.88402,3.17383 2.88403,0.58653 2.88403,-0.68639 2.88403,1.41631 2.88403,-4.00849 2.88403,2.13637 2.88403,1.56964 2.88403,0.76527 2.88403,-3.78119 2.88403,2.02763 v 0" /></g></g><g
       id="g432"><path
         id="path434"
         style="fill:none;stroke:#000000;stroke-width:0.80000001;stroke-linecap:square;stroke-linejoin:miter;stroke-miterlimit:10;stroke-dasharray:none;stroke-opacity:1"
         d="M 56.225,41.96 V 349.2" /><path
         id="path436"
         style="fill:none;stroke:#000000;stroke-width:0.80000001;stroke-linecap:square;stroke-linejoin:miter;stroke-miterlimit:10;stroke-dasharray:none;stroke-opacity:1"
         d="M 484.50333,41.96 V 349.2" /><path
         id="path438"
         style="fill:none;stroke:#000000;stroke-width:0.80000001;stroke-linecap:square;stroke-linejoin:miter;stroke-miterlimit:10;stroke-dasharray:none;stroke-opacity:1"
         d="M 56.225,41.96 H 484.50333" /><path
         id="path440"
         style="fill:none;stroke:#000000;stroke-width:0.80000001;stroke-linecap:square;stroke-linejoin:miter;stroke-miterlimit:10;stroke-dasharray:none;stroke-opacity:1"
         d="M 56.225,349.2 H 484.50333" /><path
         id="path442"
         style="fill:#ffffff;fill-opacity:0.8;fill-rule:nonzero;stroke:#cccccc;stroke-width:1;stroke-linecap:butt;stroke-linejoin:miter;stroke-miterlimit:10;stroke-dasharray:none;stroke-opacity:0.8"
         d="m 63.225,311.85625 h 53.07813 c 1.33333,0 2,0.66667 2,2 V 342.2 c 0,1.33333 -0.66667,2 -2,2 H 63.225 c -1.333333,0 -2,-0.66667 -2,-2 v -28.34375 c 0,-1.33333 0.666667,-2 2,-2 z" /><path
         id="path444"
         style="fill:none;stroke:#1f77b4;stroke-width:1.5;stroke-linecap:square;stroke-linejoin:round;stroke-miterlimit:10;stroke-dasharray:none;stroke-opacity:1"
         d="m 65.225,336.10625 h 10 10" /><g
         transform="translate(93.225,332.60625)"
         id="g446"><text
           id="text450"
           style="font-variant:normal;font-weight:normal;font-size:10px;font-family:'DejaVu Sans';-inkscape-font-specification:DejaVuSans;writing-mode:lr-tb;fill:#000000;fill-opacity:1;fill-rule:nonzero;stroke:none"
           transform="scale(1,-1)"><tspan
             id="tspan448"
             y="0"
             x="0 6.3400002 14.72">n=0</tspan></text>
</g><path
         id="path452"
         style="fill:none;stroke:#ff7f0e;stroke-width:1.5;stroke-linecap:square;stroke-linejoin:round;stroke-miterlimit:10;stroke-dasharray:none;stroke-opacity:1"
         d="m 65.225,321.43437 h 10 10" /><g
         transform="translate(93.225,317.93437)"
         id="g454"><text
           id="text458"
           style="font-variant:normal;font-weight:normal;font-size:10px;font-family:'DejaVu Sans';-inkscape-font-specification:DejaVuSans;writing-mode:lr-tb;fill:#000000;fill-opacity:1;fill-rule:nonzero;stroke:none"
           transform="scale(1,-1)"><tspan
             id="tspan456"
             y="0"
             x="0 6.3400002 14.72">n=5</tspan></text>
</g></g></g></svg>