<svg version="1.1" id="svg2" xml:space="preserve" viewBox="0 28.799999999999997 478.08 453.12" xmlns="http://www.w3.org/2000/svg" style="max-height: 500px" width="478.08" height="453.12"><metadata id="metadata8">image/svg+xml</metadata><defs id="defs6"><clipPath clipPathUnits="userSpaceOnUse" id="clipPath22"><path d="M 46.415,61.866 H 349.2 V 304.094 H 46.415 Z" id="path20"/></clipPath><clipPath clipPathUnits="userSpaceOnUse" id="clipPath32"><path d="M 46.415,61.866 H 349.2 V 304.094 H 46.415 Z" id="path30"/></clipPath><clipPath clipPathUnits="userSpaceOnUse" id="clipPath54"><path d="M -1021,-463 H 1794 V 1233 H -1021 Z" id="path52"/></clipPath><clipPath clipPathUnits="userSpaceOnUse" id="clipPath64"><path d="M 46.415,61.866 H 349.2 V 304.094 H 46.415 Z" id="path62"/></clipPath><clipPath clipPathUnits="userSpaceOnUse" id="clipPath86"><path d="M -1021,-463 H 1794 V 1233 H -1021 Z" id="path84"/></clipPath><clipPath clipPathUnits="userSpaceOnUse" id="clipPath96"><path d="M 46.415,61.866 H 349.2 V 304.094 H 46.415 Z" id="path94"/></clipPath><clipPath clipPathUnits="userSpaceOnUse" id="clipPath118"><path d="M -1021,-463 H 1794 V 1233 H -1021 Z" id="path116"/></clipPath><clipPath clipPathUnits="userSpaceOnUse" id="clipPath128"><path d="M 46.415,61.866 H 349.2 V 304.094 H 46.415 Z" id="path126"/></clipPath><clipPath clipPathUnits="userSpaceOnUse" id="clipPath148"><path d="M 46.415,61.866 H 349.2 V 304.094 H 46.415 Z" id="path146"/></clipPath><clipPath clipPathUnits="userSpaceOnUse" id="clipPath168"><path d="M 46.415,61.866 H 349.2 V 304.094 H 46.415 Z" id="path166"/></clipPath><clipPath clipPathUnits="userSpaceOnUse" id="clipPath188"><path d="M 46.415,61.866 H 349.2 V 304.094 H 46.415 Z" id="path186"/></clipPath><clipPath clipPathUnits="userSpaceOnUse" id="clipPath214"><path d="M 46.415,61.866 H 349.2 V 304.094 H 46.415 Z" id="path212"/></clipPath><clipPath clipPathUnits="userSpaceOnUse" id="clipPath234"><path d="M 46.415,61.866 H 349.2 V 304.094 H 46.415 Z" id="path232"/></clipPath><clipPath clipPathUnits="userSpaceOnUse" id="clipPath254"><path d="M 46.415,61.866 H 349.2 V 304.094 H 46.415 Z" id="path252"/></clipPath><clipPath clipPathUnits="userSpaceOnUse" id="clipPath274"><path d="M 46.415,61.866 H 349.2 V 304.094 H 46.415 Z" id="path272"/></clipPath><clipPath clipPathUnits="userSpaceOnUse" id="clipPath294"><path d="M 46.415,61.866 H 349.2 V 304.094 H 46.415 Z" id="path292"/></clipPath><clipPath clipPathUnits="userSpaceOnUse" id="clipPath314"><path d="M 46.415,61.866 H 349.2 V 304.094 H 46.415 Z" id="path312"/></clipPath><clipPath clipPathUnits="userSpaceOnUse" id="clipPath334"><path d="M 46.415,61.866 H 349.2 V 304.094 H 46.415 Z" id="path332"/></clipPath><clipPath clipPathUnits="userSpaceOnUse" id="clipPath360"><path d="M 46.415,61.866 H 349.2 V 304.094 H 46.415 Z" id="path358"/></clipPath><clipPath clipPathUnits="userSpaceOnUse" id="clipPath370"><path d="M 46.415,61.866 H 349.2 V 304.094 H 46.415 Z" id="path368"/></clipPath><clipPath clipPathUnits="userSpaceOnUse" id="clipPath380"><path d="M 46.415,61.866 H 349.2 V 304.094 H 46.415 Z" id="path378"/></clipPath><clipPath clipPathUnits="userSpaceOnUse" id="clipPath390"><path d="M 46.415,61.866 H 349.2 V 304.094 H 46.415 Z" id="path388"/></clipPath><clipPath clipPathUnits="userSpaceOnUse" id="clipPath400"><path d="M 46.415,61.866 H 349.2 V 304.094 H 46.415 Z" id="path398"/></clipPath><clipPath clipPathUnits="userSpaceOnUse" id="clipPath410"><path d="M 46.415,61.866 H 349.2 V 304.094 H 46.415 Z" id="path408"/></clipPath><clipPath clipPathUnits="userSpaceOnUse" id="clipPath420"><path d="M 46.415,61.866 H 349.2 V 304.094 H 46.415 Z" id="path418"/></clipPath><clipPath clipPathUnits="userSpaceOnUse" id="clipPath430"><path d="M 46.415,61.866 H 349.2 V 304.094 H 46.415 Z" id="path428"/></clipPath><clipPath clipPathUnits="userSpaceOnUse" id="clipPath440"><path d="M 46.415,61.866 H 349.2 V 304.094 H 46.415 Z" id="path438"/></clipPath><clipPath clipPathUnits="userSpaceOnUse" id="clipPath494"><path d="M -1016,-351 H 1660 V 1068 H -1016 Z" id="path492"/></clipPath></defs><g id="g10" transform="matrix(1.3333333,0,0,-1.3333333,0,480)"><path d="M 0,0 H 360 V 360 H 0 Z" style="fill:#ffffff;fill-opacity:1;fill-rule:nonzero;stroke:none" id="path12"/><path d="M 46.415,61.866 H 349.2 V 304.094 H 46.415 Z" style="fill:#ffffff;fill-opacity:1;fill-rule:nonzero;stroke:none" id="path14"/><g id="g16"><g id="g18" clip-path="url(#clipPath22)"><path d="m 238.17883,221.33277 3.02785,-6.0557 h -2.52321 v 0 h -1.00928 v 0 h -2.52321 z" style="fill:#000000;fill-opacity:1;fill-rule:nonzero;stroke:#000000;stroke-width:1;stroke-linecap:butt;stroke-linejoin:miter;stroke-miterlimit:10;stroke-dasharray:none;stroke-opacity:1" id="path24"/></g></g><g id="g26"><g id="g28" clip-path="url(#clipPath32)"><path d="M 76.6935,61.866 V 304.094" style="fill:none;stroke:#b0b0b0;stroke-width:0.80000001;stroke-linecap:square;stroke-linejoin:round;stroke-miterlimit:10;stroke-dasharray:none;stroke-opacity:1" id="path34"/></g></g><g id="g36"><path d="m 76.6935,61.866 v -3.5" style="fill:#000000;fill-opacity:1;fill-rule:nonzero;stroke:#000000;stroke-width:0.80000001;stroke-linecap:butt;stroke-linejoin:round;stroke-miterlimit:10;stroke-dasharray:none;stroke-opacity:1" id="path38"/><g id="g40" transform="translate(69.326312,47.27225)"><text transform="matrix(1,0,0,-1,8.3789063,0)" style="font-variant:normal;font-weight:normal;font-size:10px;font-family:'DejaVu Sans';-inkscape-font-specification:DejaVuSans;writing-mode:lr-tb;fill:#000000;fill-opacity:1;fill-rule:nonzero;stroke:none" id="text44"><tspan x="0" y="0" id="tspan42">6</tspan></text>
<g id="g46" transform="scale(0.01)"><g id="g48"><g id="g50" clip-path="url(#clipPath54)"><path d="M 106,355 H 732 V 272 H 106 Z" style="fill:#000000;fill-opacity:1;fill-rule:nonzero;stroke:none" id="path56"/></g></g></g></g></g><g id="g58"><g id="g60" clip-path="url(#clipPath64)"><path d="M 117.06483,61.866 V 304.094" style="fill:none;stroke:#b0b0b0;stroke-width:0.80000001;stroke-linecap:square;stroke-linejoin:round;stroke-miterlimit:10;stroke-dasharray:none;stroke-opacity:1" id="path66"/></g></g><g id="g68"><path d="m 117.06483,61.866 v -3.5" style="fill:#000000;fill-opacity:1;fill-rule:nonzero;stroke:#000000;stroke-width:0.80000001;stroke-linecap:butt;stroke-linejoin:round;stroke-miterlimit:10;stroke-dasharray:none;stroke-opacity:1" id="path70"/><g id="g72" transform="translate(109.69765,47.27225)"><text transform="matrix(1,0,0,-1,8.3789063,0)" style="font-variant:normal;font-weight:normal;font-size:10px;font-family:'DejaVu Sans';-inkscape-font-specification:DejaVuSans;writing-mode:lr-tb;fill:#000000;fill-opacity:1;fill-rule:nonzero;stroke:none" id="text76"><tspan x="0" y="0" id="tspan74">4</tspan></text>
<g id="g78" transform="scale(0.01)"><g id="g80"><g id="g82" clip-path="url(#clipPath86)"><path d="M 106,355 H 732 V 272 H 106 Z" style="fill:#000000;fill-opacity:1;fill-rule:nonzero;stroke:none" id="path88"/></g></g></g></g></g><g id="g90"><g id="g92" clip-path="url(#clipPath96)"><path d="M 157.43617,61.866 V 304.094" style="fill:none;stroke:#b0b0b0;stroke-width:0.80000001;stroke-linecap:square;stroke-linejoin:round;stroke-miterlimit:10;stroke-dasharray:none;stroke-opacity:1" id="path98"/></g></g><g id="g100"><path d="m 157.43617,61.866 v -3.5" style="fill:#000000;fill-opacity:1;fill-rule:nonzero;stroke:#000000;stroke-width:0.80000001;stroke-linecap:butt;stroke-linejoin:round;stroke-miterlimit:10;stroke-dasharray:none;stroke-opacity:1" id="path102"/><g id="g104" transform="translate(150.06898,47.27225)"><text transform="matrix(1,0,0,-1,8.3789063,0)" style="font-variant:normal;font-weight:normal;font-size:10px;font-family:'DejaVu Sans';-inkscape-font-specification:DejaVuSans;writing-mode:lr-tb;fill:#000000;fill-opacity:1;fill-rule:nonzero;stroke:none" id="text108"><tspan x="0" y="0" id="tspan106">2</tspan></text>
<g id="g110" transform="scale(0.01)"><g id="g112"><g id="g114" clip-path="url(#clipPath118)"><path d="M 106,355 H 732 V 272 H 106 Z" style="fill:#000000;fill-opacity:1;fill-rule:nonzero;stroke:none" id="path120"/></g></g></g></g></g><g id="g122"><g id="g124" clip-path="url(#clipPath128)"><path d="M 197.8075,61.866 V 304.094" style="fill:none;stroke:#b0b0b0;stroke-width:0.80000001;stroke-linecap:square;stroke-linejoin:round;stroke-miterlimit:10;stroke-dasharray:none;stroke-opacity:1" id="path130"/></g></g><g id="g132"><path d="m 197.8075,61.866 v -3.5" style="fill:#000000;fill-opacity:1;fill-rule:nonzero;stroke:#000000;stroke-width:0.80000001;stroke-linecap:butt;stroke-linejoin:round;stroke-miterlimit:10;stroke-dasharray:none;stroke-opacity:1" id="path134"/><g id="g136" transform="translate(194.62781,47.27225)"><text transform="scale(1,-1)" style="font-variant:normal;font-weight:normal;font-size:10px;font-family:'DejaVu Sans';-inkscape-font-specification:DejaVuSans;writing-mode:lr-tb;fill:#000000;fill-opacity:1;fill-rule:nonzero;stroke:none" id="text140"><tspan x="0" y="0" id="tspan138">0</tspan></text>
</g></g><g id="g142"><g id="g144" clip-path="url(#clipPath148)"><path d="M 238.17883,61.866 V 304.094" style="fill:none;stroke:#b0b0b0;stroke-width:0.80000001;stroke-linecap:square;stroke-linejoin:round;stroke-miterlimit:10;stroke-dasharray:none;stroke-opacity:1" id="path150"/></g></g><g id="g152"><path d="m 238.17883,61.866 v -3.5" style="fill:#000000;fill-opacity:1;fill-rule:nonzero;stroke:#000000;stroke-width:0.80000001;stroke-linecap:butt;stroke-linejoin:round;stroke-miterlimit:10;stroke-dasharray:none;stroke-opacity:1" id="path154"/><g id="g156" transform="translate(234.99915,47.27225)"><text transform="scale(1,-1)" style="font-variant:normal;font-weight:normal;font-size:10px;font-family:'DejaVu Sans';-inkscape-font-specification:DejaVuSans;writing-mode:lr-tb;fill:#000000;fill-opacity:1;fill-rule:nonzero;stroke:none" id="text160"><tspan x="0" y="0" id="tspan158">2</tspan></text>
</g></g><g id="g162"><g id="g164" clip-path="url(#clipPath168)"><path d="M 278.55017,61.866 V 304.094" style="fill:none;stroke:#b0b0b0;stroke-width:0.80000001;stroke-linecap:square;stroke-linejoin:round;stroke-miterlimit:10;stroke-dasharray:none;stroke-opacity:1" id="path170"/></g></g><g id="g172"><path d="m 278.55017,61.866 v -3.5" style="fill:#000000;fill-opacity:1;fill-rule:nonzero;stroke:#000000;stroke-width:0.80000001;stroke-linecap:butt;stroke-linejoin:round;stroke-miterlimit:10;stroke-dasharray:none;stroke-opacity:1" id="path174"/><g id="g176" transform="translate(275.37048,47.27225)"><text transform="scale(1,-1)" style="font-variant:normal;font-weight:normal;font-size:10px;font-family:'DejaVu Sans';-inkscape-font-specification:DejaVuSans;writing-mode:lr-tb;fill:#000000;fill-opacity:1;fill-rule:nonzero;stroke:none" id="text180"><tspan x="0" y="0" id="tspan178">4</tspan></text>
</g></g><g id="g182"><g id="g184" clip-path="url(#clipPath188)"><path d="M 318.9215,61.866 V 304.094" style="fill:none;stroke:#b0b0b0;stroke-width:0.80000001;stroke-linecap:square;stroke-linejoin:round;stroke-miterlimit:10;stroke-dasharray:none;stroke-opacity:1" id="path190"/></g></g><g id="g192"><path d="m 318.9215,61.866 v -3.5" style="fill:#000000;fill-opacity:1;fill-rule:nonzero;stroke:#000000;stroke-width:0.80000001;stroke-linecap:butt;stroke-linejoin:round;stroke-miterlimit:10;stroke-dasharray:none;stroke-opacity:1" id="path194"/><g id="g196" transform="translate(315.74181,47.27225)"><text transform="scale(1,-1)" style="font-variant:normal;font-weight:normal;font-size:10px;font-family:'DejaVu Sans';-inkscape-font-specification:DejaVuSans;writing-mode:lr-tb;fill:#000000;fill-opacity:1;fill-rule:nonzero;stroke:none" id="text200"><tspan x="0" y="0" id="tspan198">6</tspan></text>
</g><g id="g202" transform="translate(179.82312,32.069125)"><text transform="scale(1,-1)" style="font-variant:normal;font-weight:normal;font-size:12px;font-family:'DejaVu Sans';-inkscape-font-specification:DejaVuSans;writing-mode:lr-tb;fill:#000000;fill-opacity:1;fill-rule:nonzero;stroke:none" id="text206"><tspan x="0 7.6262498 11.95825 19.314251 26.418249 29.75425" y="0" id="tspan204">X-axis</tspan></text>
</g></g><g id="g208"><g id="g210" clip-path="url(#clipPath214)"><path d="M 46.415,61.866 H 349.2" style="fill:none;stroke:#b0b0b0;stroke-width:0.80000001;stroke-linecap:square;stroke-linejoin:round;stroke-miterlimit:10;stroke-dasharray:none;stroke-opacity:1" id="path216"/></g></g><g id="g218"><path d="m 46.415,61.866 h -3.5" style="fill:#000000;fill-opacity:1;fill-rule:nonzero;stroke:#000000;stroke-width:0.80000001;stroke-linecap:butt;stroke-linejoin:round;stroke-miterlimit:10;stroke-dasharray:none;stroke-opacity:1" id="path220"/><g id="g222" transform="translate(33.055625,58.069125)"><text transform="scale(1,-1)" style="font-variant:normal;font-weight:normal;font-size:10px;font-family:'DejaVu Sans';-inkscape-font-specification:DejaVuSans;writing-mode:lr-tb;fill:#000000;fill-opacity:1;fill-rule:nonzero;stroke:none" id="text226"><tspan x="0" y="0" id="tspan224">0</tspan></text>
</g></g><g id="g228"><g id="g230" clip-path="url(#clipPath234)"><path d="M 46.415,102.23733 H 349.2" style="fill:none;stroke:#b0b0b0;stroke-width:0.80000001;stroke-linecap:square;stroke-linejoin:round;stroke-miterlimit:10;stroke-dasharray:none;stroke-opacity:1" id="path236"/></g></g><g id="g238"><path d="m 46.415,102.23733 h -3.5" style="fill:#000000;fill-opacity:1;fill-rule:nonzero;stroke:#000000;stroke-width:0.80000001;stroke-linecap:butt;stroke-linejoin:round;stroke-miterlimit:10;stroke-dasharray:none;stroke-opacity:1" id="path240"/><g id="g242" transform="translate(33.055625,98.440458)"><text transform="scale(1,-1)" style="font-variant:normal;font-weight:normal;font-size:10px;font-family:'DejaVu Sans';-inkscape-font-specification:DejaVuSans;writing-mode:lr-tb;fill:#000000;fill-opacity:1;fill-rule:nonzero;stroke:none" id="text246"><tspan x="0" y="0" id="tspan244">2</tspan></text>
</g></g><g id="g248"><g id="g250" clip-path="url(#clipPath254)"><path d="M 46.415,142.60867 H 349.2" style="fill:none;stroke:#b0b0b0;stroke-width:0.80000001;stroke-linecap:square;stroke-linejoin:round;stroke-miterlimit:10;stroke-dasharray:none;stroke-opacity:1" id="path256"/></g></g><g id="g258"><path d="m 46.415,142.60867 h -3.5" style="fill:#000000;fill-opacity:1;fill-rule:nonzero;stroke:#000000;stroke-width:0.80000001;stroke-linecap:butt;stroke-linejoin:round;stroke-miterlimit:10;stroke-dasharray:none;stroke-opacity:1" id="path260"/><g id="g262" transform="translate(33.055625,138.81179)"><text transform="scale(1,-1)" style="font-variant:normal;font-weight:normal;font-size:10px;font-family:'DejaVu Sans';-inkscape-font-specification:DejaVuSans;writing-mode:lr-tb;fill:#000000;fill-opacity:1;fill-rule:nonzero;stroke:none" id="text266"><tspan x="0" y="0" id="tspan264">4</tspan></text>
</g></g><g id="g268"><g id="g270" clip-path="url(#clipPath274)"><path d="M 46.415,182.98 H 349.2" style="fill:none;stroke:#b0b0b0;stroke-width:0.80000001;stroke-linecap:square;stroke-linejoin:round;stroke-miterlimit:10;stroke-dasharray:none;stroke-opacity:1" id="path276"/></g></g><g id="g278"><path d="m 46.415,182.98 h -3.5" style="fill:#000000;fill-opacity:1;fill-rule:nonzero;stroke:#000000;stroke-width:0.80000001;stroke-linecap:butt;stroke-linejoin:round;stroke-miterlimit:10;stroke-dasharray:none;stroke-opacity:1" id="path280"/><g id="g282" transform="translate(33.055625,179.18312)"><text transform="scale(1,-1)" style="font-variant:normal;font-weight:normal;font-size:10px;font-family:'DejaVu Sans';-inkscape-font-specification:DejaVuSans;writing-mode:lr-tb;fill:#000000;fill-opacity:1;fill-rule:nonzero;stroke:none" id="text286"><tspan x="0" y="0" id="tspan284">6</tspan></text>
</g></g><g id="g288"><g id="g290" clip-path="url(#clipPath294)"><path d="M 46.415,223.35133 H 349.2" style="fill:none;stroke:#b0b0b0;stroke-width:0.80000001;stroke-linecap:square;stroke-linejoin:round;stroke-miterlimit:10;stroke-dasharray:none;stroke-opacity:1" id="path296"/></g></g><g id="g298"><path d="m 46.415,223.35133 h -3.5" style="fill:#000000;fill-opacity:1;fill-rule:nonzero;stroke:#000000;stroke-width:0.80000001;stroke-linecap:butt;stroke-linejoin:round;stroke-miterlimit:10;stroke-dasharray:none;stroke-opacity:1" id="path300"/><g id="g302" transform="translate(33.055625,219.55446)"><text transform="scale(1,-1)" style="font-variant:normal;font-weight:normal;font-size:10px;font-family:'DejaVu Sans';-inkscape-font-specification:DejaVuSans;writing-mode:lr-tb;fill:#000000;fill-opacity:1;fill-rule:nonzero;stroke:none" id="text306"><tspan x="0" y="0" id="tspan304">8</tspan></text>
</g></g><g id="g308"><g id="g310" clip-path="url(#clipPath314)"><path d="M 46.415,263.72267 H 349.2" style="fill:none;stroke:#b0b0b0;stroke-width:0.80000001;stroke-linecap:square;stroke-linejoin:round;stroke-miterlimit:10;stroke-dasharray:none;stroke-opacity:1" id="path316"/></g></g><g id="g318"><path d="m 46.415,263.72267 h -3.5" style="fill:#000000;fill-opacity:1;fill-rule:nonzero;stroke:#000000;stroke-width:0.80000001;stroke-linecap:butt;stroke-linejoin:round;stroke-miterlimit:10;stroke-dasharray:none;stroke-opacity:1" id="path320"/><g id="g322" transform="translate(26.69625,259.92579)"><text transform="scale(1,-1)" style="font-variant:normal;font-weight:normal;font-size:10px;font-family:'DejaVu Sans';-inkscape-font-specification:DejaVuSans;writing-mode:lr-tb;fill:#000000;fill-opacity:1;fill-rule:nonzero;stroke:none" id="text326"><tspan x="0 6.3600001" y="0" id="tspan324">10</tspan></text>
</g></g><g id="g328"><g id="g330" clip-path="url(#clipPath334)"><path d="M 46.415,304.094 H 349.2" style="fill:none;stroke:#b0b0b0;stroke-width:0.80000001;stroke-linecap:square;stroke-linejoin:round;stroke-miterlimit:10;stroke-dasharray:none;stroke-opacity:1" id="path336"/></g></g><g id="g338"><path d="m 46.415,304.094 h -3.5" style="fill:#000000;fill-opacity:1;fill-rule:nonzero;stroke:#000000;stroke-width:0.80000001;stroke-linecap:butt;stroke-linejoin:round;stroke-miterlimit:10;stroke-dasharray:none;stroke-opacity:1" id="path340"/><g id="g342" transform="translate(26.69625,300.29712)"><text transform="scale(1,-1)" style="font-variant:normal;font-weight:normal;font-size:10px;font-family:'DejaVu Sans';-inkscape-font-specification:DejaVuSans;writing-mode:lr-tb;fill:#000000;fill-opacity:1;fill-rule:nonzero;stroke:none" id="text346"><tspan x="0 6.3600001" y="0" id="tspan344">12</tspan></text>
</g><g id="g348" transform="rotate(90,-72.809844,93.006094)"><text transform="scale(1,-1)" style="font-variant:normal;font-weight:normal;font-size:12px;font-family:'DejaVu Sans';-inkscape-font-specification:DejaVuSans;writing-mode:lr-tb;fill:#000000;fill-opacity:1;fill-rule:nonzero;stroke:none" id="text352"><tspan x="0 5.9101248 10.242125 17.598125 24.702126 28.038124" y="0" id="tspan350">Y-axis</tspan></text>
</g></g><g id="g354"><g id="g356" clip-path="url(#clipPath360)"><path d="M 197.8075,61.866 V 283.90833" style="fill:none;stroke:#000000;stroke-width:1;stroke-linecap:butt;stroke-linejoin:round;stroke-miterlimit:10;stroke-dasharray:3.7, 1.6;stroke-dashoffset:0;stroke-opacity:1" id="path362"/></g></g><g id="g364"><g id="g366" clip-path="url(#clipPath370)"><path d="M 197.8075,61.866 326.0037,283.90833" style="fill:none;stroke:#000000;stroke-width:1;stroke-linecap:square;stroke-linejoin:round;stroke-miterlimit:10;stroke-dasharray:none;stroke-opacity:1" id="path372"/></g></g><g id="g374"><g id="g376" clip-path="url(#clipPath380)"><path d="M 197.8075,61.866 69.611299,283.90833" style="fill:none;stroke:#000000;stroke-width:1;stroke-linecap:square;stroke-linejoin:round;stroke-miterlimit:10;stroke-dasharray:none;stroke-opacity:1" id="path382"/></g></g><g id="g384"><g id="g386" clip-path="url(#clipPath390)"><path d="m 238.17883,131.7912 -0.74189,0.42312 -0.74633,0.41525 -0.75068,0.40732 -0.75495,0.39937 -0.75913,0.39136 -0.76323,0.38331 -0.76724,0.37521 -0.77116,0.36707 -0.775,0.3589 -0.77876,0.35068 -0.78242,0.34243 -0.786,0.33412 -0.7895,0.3258 -0.79289,0.31743 -0.79621,0.30902 -0.79943,0.30058 -0.80256,0.29211 -0.80561,0.28361 -0.80857,0.27506 -0.81142,0.2665 -0.81421,0.2579 -0.81688,0.24928 -0.81948,0.24062 -0.82197,0.23194 -0.82439,0.22323 -0.82669,0.2145 -0.82893,0.20574 -0.83105,0.19696 -0.83308,0.18816 -0.83503,0.17934 -0.83689,0.1705 -0.83863,0.16163 -0.8403,0.15275 -0.84187,0.14386 -0.84335,0.13495 -0.84472,0.12601 -0.84601,0.11708 -0.8472,0.10812 -0.8483,0.0991 -0.8493,0.0902 -0.8502,0.0812 -0.85102,0.0722 -0.85173,0.0632 -0.85235,0.0542 -0.85288,0.0452 -0.85331,0.0361 -0.85364,0.0271 -0.85388,0.0181 -0.85402,0.009 h -0.85408 l -0.85402,-0.009 -0.85388,-0.0181 -0.85364,-0.0271 -0.85331,-0.0361 -0.85288,-0.0452 -0.85235,-0.0542 -0.85173,-0.0632 -0.85102,-0.0722 -0.8502,-0.0812 -0.8493,-0.0902 -0.8483,-0.0991 -0.8472,-0.10812 -0.84601,-0.11708 -0.84472,-0.12601 -0.84335,-0.13495 -0.84187,-0.14386 -0.8403,-0.15275 -0.83864,-0.16163 -0.83688,-0.1705 -0.83503,-0.17934 -0.83309,-0.18816 -0.83105,-0.19696 -0.82892,-0.20574 -0.82669,-0.2145 -0.82439,-0.22323 -0.82197,-0.23194 -0.81948,-0.24062 -0.81688,-0.24928 -0.81421,-0.2579 -0.81143,-0.2665 -0.80856,-0.27506 -0.80561,-0.28361 -0.80257,-0.29211 -0.79943,-0.30058 -0.7962,-0.30902 -0.7929,-0.31743 -0.78949,-0.3258 -0.786,-0.33412 -0.78242,-0.34243 -0.77876,-0.35068 -0.775,-0.3589 -0.77116,-0.36707 -0.76724,-0.37521 -0.76323,-0.38331 -0.75913,-0.39136 -0.75495,-0.39937 -0.75068,-0.40732 -0.74633,-0.41525 -0.74189,-0.42312" style="fill:none;stroke:#008000;stroke-width:2;stroke-linecap:square;stroke-linejoin:round;stroke-miterlimit:10;stroke-dasharray:none;stroke-opacity:1" id="path392"/></g></g><g id="g394"><g id="g396" clip-path="url(#clipPath400)"><path d="m 298.73583,236.679 -1.85474,1.0578 -1.86582,1.03811 -1.87671,1.01833 -1.88736,0.99841 -1.89783,0.9784 -1.90806,0.95827 -1.9181,0.93803 -1.92791,0.91769 -1.93751,0.89724 -1.94689,0.8767 -1.95606,0.85606 -1.965,0.83532 -1.97373,0.81449 -1.98223,0.79357 -1.99052,0.77255 -1.99857,0.75146 -2.00642,0.73027 -2.01402,0.70901 -2.02141,0.68767 -2.02858,0.66625 -2.0355,0.64475 -2.04222,0.62319 -2.04869,0.60155 -2.05493,0.57984 -2.06096,0.55808 -2.06675,0.53625 -2.0723,0.51435 -2.07762,0.49241 -2.08272,0.4704 -2.08758,0.44835 -2.0922,0.42624 -2.0966,0.40408 -2.10075,0.38189 -2.10467,0.35964 -2.10836,0.33737 -2.11181,0.31504 -2.11503,0.29268 -2.118,0.2703 -2.12074,0.24788 -2.12325,0.22543 -2.12551,0.20296 -2.12754,0.18047 -2.12933,0.15796 -2.13088,0.13542 -2.13219,0.11287 -2.13327,0.0903 -2.13411,0.0677 -2.1347,0.0452 -2.13506,0.0226 h -2.13518 l -2.13506,-0.0226 -2.1347,-0.0452 -2.13411,-0.0677 -2.13327,-0.0903 -2.13219,-0.11287 -2.13088,-0.13542 -2.12933,-0.15796 -2.12754,-0.18047 -2.12551,-0.20296 -2.12325,-0.22543 -2.12074,-0.24788 -2.118,-0.2703 -2.11503,-0.29268 -2.11181,-0.31504 -2.10836,-0.33737 -2.10467,-0.35964 -2.10075,-0.38189 -2.0966,-0.40408 -2.0922,-0.42624 -2.08758,-0.44835 -2.08272,-0.4704 -2.07762,-0.49241 -2.0723,-0.51435 -2.06675,-0.53625 -2.06096,-0.55808 -2.05493,-0.57984 -2.0487,-0.60155 -2.04221,-0.62319 -2.0355,-0.64475 -2.02858,-0.66625 -2.02141,-0.68767 -2.01402,-0.70901 -2.00642,-0.73027 -1.99857,-0.75146 -1.99052,-0.77255 -1.98223,-0.79357 -1.97373,-0.81449 -1.965,-0.83532 -1.95606,-0.85606 -1.94689,-0.8767 -1.93751,-0.89724 -1.92791,-0.91769 -1.9181,-0.93803 -1.90806,-0.95827 -1.89783,-0.9784 -1.88737,-0.99841 -1.8767,-1.01833 -1.865823,-1.03811 -1.85474,-1.0578" style="fill:none;stroke:#008000;stroke-width:2;stroke-linecap:square;stroke-linejoin:round;stroke-miterlimit:10;stroke-dasharray:none;stroke-opacity:1" id="path402"/></g></g><g id="g404"><g id="g406" clip-path="url(#clipPath410)"><path d="m 238.17883,162.79433 v 60.557" style="fill:none;stroke:#000000;stroke-width:1.5;stroke-linecap:square;stroke-linejoin:round;stroke-miterlimit:10;stroke-dasharray:none;stroke-opacity:1" id="path412"/></g></g><g id="g414"><g id="g416" clip-path="url(#clipPath420)"><path d="m 238.17883,219.35133 c 1.06082,0 2.07832,0.42147 2.82843,1.17158 0.75011,0.7501 1.17157,1.76761 1.17157,2.82842 0,1.06082 -0.42146,2.07832 -1.17157,2.82843 -0.75011,0.75011 -1.76761,1.17157 -2.82843,1.17157 -1.06081,0 -2.07832,-0.42146 -2.82842,-1.17157 -0.75011,-0.75011 -1.17158,-1.76761 -1.17158,-2.82843 0,-1.06081 0.42147,-2.07832 1.17158,-2.82842 0.7501,-0.75011 1.76761,-1.17158 2.82842,-1.17158 z" style="fill:#ff0000;fill-opacity:1;fill-rule:nonzero;stroke:#ff0000;stroke-width:1;stroke-linecap:butt;stroke-linejoin:round;stroke-miterlimit:10;stroke-dasharray:none;stroke-opacity:1" id="path422"/></g></g><g id="g424"><g id="g426" clip-path="url(#clipPath430)"><path d="m 197.8075,61.866 40.37133,100.92833" style="fill:none;stroke:#000000;stroke-width:1.5;stroke-linecap:butt;stroke-linejoin:round;stroke-miterlimit:10;stroke-dasharray:1.5, 2.475;stroke-dashoffset:0;stroke-opacity:1" id="path432"/></g></g><g id="g434"><g id="g436" clip-path="url(#clipPath440)"><path d="m 197.8075,170.8686 0.87357,-0.003 0.87351,-0.0105 0.87339,-0.0175 0.87323,-0.0245 0.87301,-0.0315 0.87273,-0.0385 0.87238,-0.0455 0.872,-0.0525 0.87155,-0.0595 0.87104,-0.0665 0.87048,-0.0734 0.86987,-0.0804 0.86919,-0.0874 0.86847,-0.0943 0.86768,-0.10128 0.86684,-0.10824 0.86595,-0.11518 0.865,-0.12212 0.86399,-0.12904 0.86292,-0.13597 0.86181,-0.14288 0.86064,-0.14978 0.85941,-0.15667 0.85813,-0.16355 0.85679,-0.17043 0.85539,-0.17728 0.85395,-0.18414 0.85244,-0.19097 0.85089,-0.1978 0.84927,-0.20462 0.8476,-0.21141 0.84589,-0.2182 0.84411,-0.22497 0.84228,-0.23172 0.84039,-0.23847 0.83846,-0.2452 0.83646,-0.25191 0.83442,-0.25861 0.83232,-0.26528 0.83016,-0.27195 0.82796,-0.27859 0.82571,-0.28521 0.82338,-0.29183 0.82103,-0.29841 0.8186,-0.30499 0.81614,-0.31153 0.81361,-0.31807 0.81104,-0.32457 0.80841,-0.33107" style="fill:none;stroke:#000000;stroke-width:1.5;stroke-linecap:butt;stroke-linejoin:round;stroke-miterlimit:10;stroke-dasharray:1.5, 2.475;stroke-dashoffset:0;stroke-opacity:1" id="path442"/></g></g><g id="g444"><path d="M 46.415,61.866 V 304.094" style="fill:none;stroke:#000000;stroke-width:0.80000001;stroke-linecap:square;stroke-linejoin:miter;stroke-miterlimit:10;stroke-dasharray:none;stroke-opacity:1" id="path446"/><path d="M 349.2,61.866 V 304.094" style="fill:none;stroke:#000000;stroke-width:0.80000001;stroke-linecap:square;stroke-linejoin:miter;stroke-miterlimit:10;stroke-dasharray:none;stroke-opacity:1" id="path448"/><path d="M 46.415,61.866 H 349.2" style="fill:none;stroke:#000000;stroke-width:0.80000001;stroke-linecap:square;stroke-linejoin:miter;stroke-miterlimit:10;stroke-dasharray:none;stroke-opacity:1" id="path450"/><path d="M 46.415,304.094 H 349.2" style="fill:none;stroke:#000000;stroke-width:0.80000001;stroke-linecap:square;stroke-linejoin:miter;stroke-miterlimit:10;stroke-dasharray:none;stroke-opacity:1" id="path452"/><g id="g454" transform="translate(240.1974,227.8699)"><text transform="scale(1,-1)" style="font-variant:normal;font-weight:normal;font-size:12px;font-family:'DejaVu Sans';-inkscape-font-specification:DejaVuSans;writing-mode:lr-tb;fill:#000000;fill-opacity:1;fill-rule:nonzero;stroke:none" id="text458"><tspan x="0 4.704 12.06 16.788876 24.408875 31.788876" y="0" id="tspan456">target</tspan></text>
</g><g id="g460" transform="translate(240.1974,183.42927)"><text transform="matrix(1,0,0,-1,0,0.4375)" style="font-style:italic;font-variant:normal;font-size:12px;font-family:'DejaVu Sans';-inkscape-font-specification:DejaVuSans-Oblique;writing-mode:lr-tb;fill:#000000;fill-opacity:1;fill-rule:nonzero;stroke:none" id="text464"><tspan x="0" y="0" id="tspan462">z</tspan></text>
<text transform="matrix(1,0,0,-1,6.2988281,-1.53125)" style="font-variant:normal;font-weight:normal;font-size:8.39999962px;font-family:'DejaVu Sans';-inkscape-font-specification:DejaVuSans;writing-mode:lr-tb;fill:#000000;fill-opacity:1;fill-rule:nonzero;stroke:none" id="text468"><tspan x="0 3.2935548 8.4410152 11.894531 17.226562 22.394531" y="0" id="tspan466">target</tspan></text>
</g><g id="g470" transform="translate(224.04887,118.34873)"><text transform="matrix(1,0,0,-1,0,0.28125)" style="font-style:italic;font-variant:normal;font-size:12px;font-family:'DejaVu Sans';-inkscape-font-specification:DejaVuSans-Oblique;writing-mode:lr-tb;fill:#000000;fill-opacity:1;fill-rule:nonzero;stroke:none" id="text474"><tspan x="0" y="0" id="tspan472">r</tspan></text>
<text transform="matrix(1,0,0,-1,4.9335938,-1.6875)" style="font-variant:normal;font-weight:normal;font-size:8.39999962px;font-family:'DejaVu Sans';-inkscape-font-specification:DejaVuSans;writing-mode:lr-tb;fill:#000000;fill-opacity:1;fill-rule:nonzero;stroke:none" id="text478"><tspan x="0 3.2935548 8.4410152 11.894531 17.226562 22.394531" y="0" id="tspan476">target</tspan></text>
</g><g id="g480" transform="translate(204.53108,171.19128)"><text transform="matrix(1,0,0,-1,7.9101562,-1.703125)" style="font-variant:normal;font-weight:normal;font-size:8.39999962px;font-family:'DejaVu Sans';-inkscape-font-specification:DejaVuSans;writing-mode:lr-tb;fill:#000000;fill-opacity:1;fill-rule:nonzero;stroke:none" id="text484"><tspan x="0 3.2935548 8.4410152 11.894531 17.226562 22.394531" y="0" id="tspan482">target</tspan></text>
<g id="g486" transform="matrix(0.012,0,0,0.012,0,0.265625)"><g id="g488"><g id="g490" clip-path="url(#clipPath494)"><path d="m 409,254 1,113 c 0,76 -29,115 -87,116 -44,0 -79,-18 -105,-54 -34,-45 -57,-97 -68,-156 -14,-72 -13,-125 5,-159 18,-35 47,-52 87,-52 43,0 83,34 120,104 z m -71,305 c 102,2 152,-50 151,-155 0,0 25,47 76,143 h 80 L 487,250 486,144 c 0,-16 4,-31 13,-44 10,-16 20,-24 31,-24 h 43 L 559,0 H 504 C 473,0 447,13 425,41 415,55 409,76 409,104 387,69 359,37 323,8 305,-5 273,-11 227,-11 151,-10 99,14 71,62 43,112 37,183 55,273 c 18,96 53,167 103,211 55,49 115,74 180,75 z" style="fill:#000000;fill-opacity:1;fill-rule:nonzero;stroke:none" id="path496"/></g></g></g></g></g></g></svg>